<?xml version="1.0" encoding="UTF-8" standalone="no"?>
<svg
   version="1.1"
   id="Layer_1"
   x="0px"
   y="0px"
   width="600px"
   height="600px"
   viewBox="0 0 2051 1080"
   style="enable-background:new 0 0 2051 1080;"
   xml:space="preserve"
   sodipodi:docname="GALLERIAWAY_n.svg"
   inkscape:version="1.3.2 (091e20e, 2023-11-25, custom)"
   xmlns:inkscape="http://www.inkscape.org/namespaces/inkscape"
   xmlns:sodipodi="http://sodipodi.sourceforge.net/DTD/sodipodi-0.dtd"
   xmlns="http://www.w3.org/2000/svg"
   xmlns:svg="http://www.w3.org/2000/svg"><defs
   id="defs33" /><sodipodi:namedview
   id="namedview33"
   pagecolor="#ffffff"
   bordercolor="#000000"
   borderopacity="0.25"
   inkscape:showpageshadow="2"
   inkscape:pageopacity="0.0"
   inkscape:pagecheckerboard="0"
   inkscape:deskcolor="#d1d1d1"
   inkscape:zoom="1.3683333"
   inkscape:cx="299.63459"
   inkscape:cy="300"
   inkscape:window-width="1920"
   inkscape:window-height="1017"
   inkscape:window-x="-8"
   inkscape:window-y="-8"
   inkscape:window-maximized="1"
   inkscape:current-layer="g37" />
<g
   id="g9">
	<g
   id="g1">
		<path
   id="ns"
   name=""
   fill="#353434"
   d="M1851.047,623.176l0.603,731.454h-145.92h-10.18v10.184v9.745l-121.074,2.208l-18.524-18.793l-3.012-3.053l-4.284,0.017l-68.492,0.31l-3.658,0.015l-2.813,2.348l-6.509,5.424l-31.641,0.623l-14.104-13.145v-11.074v-10.051l-10.046-0.128l-31.726-0.409l-13.699-13.699l5.027-351.793l0.055-3.769l-2.41-2.895l-13.838-16.604V820.021l3.623-4.642l6.094-7.796l-7.62-6.311l-4.358-3.614l1.751-159.395l14.407-14.189L1851.047,623.176 M1861.218,612.976l-496.699,0.924l-20.361,20.055l-1.85,168.446l8.097,6.712l-5.78,7.402v127.261l16.192,19.437l-5.089,356.097l19.667,19.666l35.864,0.463v15.5l20.361,18.975l39.336-0.772l9.256-7.712l68.485-0.308l21.595,21.904l135.438-2.465v-19.746h156.105L1861.218,612.976L1861.218,612.976z" />
	</g>
	<g
   id="g8">
		<path
   id="path1"
   name=""
   fill="#353434"
   d="M1489.308,974.765c0,9.484-4.191,14.229-12.574,14.229c-3.82,0-6.788-1.141-8.895-3.42c-2.104-2.278-3.177-5.564-3.217-9.858l5.335-1.258c0.04,3.107,0.624,5.412,1.749,6.914c1.122,1.503,2.789,2.255,4.998,2.255c1.553,0,2.814-0.291,3.787-0.874c0.969-0.581,1.689-1.538,2.161-2.866c0.47-1.328,0.704-3.139,0.704-5.429v-31.185h5.951V974.765z" />
		<path
   id="path2"
   name=""
   fill="#353434"
   d="M1517.573,947.596c-3.125,0-5.781,0.764-7.969,2.285c-2.188,1.522-3.842,3.624-4.965,6.301c-1.127,2.68-1.688,5.755-1.688,9.229c0,3.783,0.561,7.065,1.688,9.844c1.123,2.78,2.769,4.917,4.937,6.41c2.164,1.492,4.769,2.237,7.815,2.237c3.475,0,6.344-0.966,8.602-2.896c2.26-1.933,3.829-4.737,4.706-8.419l5.798,1.382c-0.695,3.107-1.916,5.791-3.665,8.049c-1.75,2.259-3.927,3.984-6.532,5.182c-2.604,1.195-5.502,1.795-8.693,1.795c-4.332,0-8.059-0.941-11.172-2.822c-3.123-1.881-5.506-4.583-7.162-8.109c-1.657-3.528-2.484-7.731-2.484-12.619c0-4.661,0.881-8.725,2.65-12.189c1.771-3.463,4.234-6.119,7.391-7.972c3.156-1.849,6.76-2.774,10.813-2.774c4.678,0,8.568,1.119,11.666,3.357c3.096,2.236,5.236,5.495,6.422,9.766l-5.826,1.381c-0.944-3.168-2.432-5.529-4.476-7.085C1523.386,948.374,1520.769,947.596,1517.573,947.596z" />
		<path
   id="path3"
   name=""
   fill="#353434"
   d="M1575.716,956.458c0,2.984-0.66,5.52-1.979,7.604s-3.212,3.659-5.686,4.722s-5.43,1.594-8.865,1.594h-9.474v17.848h-5.947v-44.953h15.577c5.269,0,9.32,1.12,12.141,3.357C1574.306,948.87,1575.716,952.146,1575.716,956.458zM1569.554,956.644c0-2.762-0.85-4.788-2.549-6.088c-1.693-1.298-4.32-1.947-7.877-1.947h-9.415v16.435h9.504c3.476,0,6.067-0.694,7.776-2.085C1568.698,961.567,1569.554,959.463,1569.554,956.644z" />
		<path
   id="path4"
   name=""
   fill="#353434"
   d="M1610.396,948.608h-22.295v13.737h20.609v5.336h-20.609v15.21h23.367v5.334h-29.314v-44.953h28.242V948.608z" />
		<path
   id="path5"
   name=""
   fill="#353434"
   d="M1648.354,978.352h0.127v-35.079h5.643v44.953h-6.103l-22.598-35.11h-0.125v35.11h-5.646v-44.953h6.133L1648.354,978.352z" />
		<path
   id="path6"
   name=""
   fill="#353434"
   d="M1692.632,978.352h0.127v-35.079h5.642v44.953h-6.103l-22.6-35.11h-0.121v35.11h-5.645v-44.953h6.133L1692.632,978.352z" />
		<path
   id="path7"
   name=""
   fill="#353434"
   d="M1736.45,948.608h-22.288v13.737h20.605v5.336h-20.605v15.21h23.365v5.334h-29.314v-44.953h28.237V948.608z" />
		<path
   id="path8"
   name=""
   fill="#353434"
   d="M1755.831,956.644c0.818,1.286,1.674,2.722,2.564,4.306c0.889,1.587,1.412,2.521,1.578,2.807l0.367,0.674c0.569-1.144,1.186-2.262,1.839-3.355c0.651-1.094,1.583-2.602,2.789-4.524l8.371-13.277h6.933l-17.297,25.911v19.042h-5.947v-19.042l-16.71-25.911h7.112L1755.831,956.644z" />
	</g>
</g>
<g
   id="g10">
	 <path
   id="path9"
   name=""
   fill="#353434"
   d="m1161.906,1492.479h11.512V507.52h-11.512z" />
</g>
<g
   id="g11">
	<path
   id="path10"
   name=""
   fill="#353434"
   d="m1309.022,1492.479h11.512V507.52h-11.512z" />
</g>
<g
   id="g12">
	<path
   id="path11"
   name=""
   fill="#353434"
   d="M138.165,617.248v11.513h41.547l130.672,221.806c1.063,1.863,3.006,2.909,5.006,2.909c0.967,0,1.945-0.244,2.844-0.759c2.766-1.573,3.732-5.088,2.156-7.85L192.97,628.761h135.827l132.847,222.802c1.068,1.843,3,2.871,4.984,2.871c0.98,0,1.977-0.25,2.883-0.778c2.75-1.593,3.686-5.117,2.096-7.867L342.11,628.761h141.457l131.86,221.833c1.066,1.848,3,2.882,4.988,2.882c0.979,0,1.969-0.25,2.873-0.772c2.758-1.592,3.695-5.11,2.107-7.866L496.844,628.761h139.361l131.972,223.728c1.064,1.861,3.004,2.905,5.002,2.905c0.971,0,1.949-0.246,2.852-0.76c2.762-1.577,3.723-5.092,2.143-7.854l-128.707-218.02h140.009L921.42,849.648c1.068,1.839,3.002,2.867,4.984,2.867c0.982,0,1.979-0.256,2.885-0.78c2.752-1.597,3.686-5.12,2.088-7.871L802.831,628.761h141.545l133.376,222.813c1.07,1.836,3,2.86,4.98,2.86c0.982,0,1.98-0.254,2.891-0.785c2.746-1.601,3.676-5.124,2.076-7.87L957.757,628.761h179.367v-11.513H138.165z" />
	<path
   id="path12"
   name=""
   fill="#353434"
   d="M1091.719,1142.534c1.594-2.75,0.654-6.271-2.096-7.865c-2.738-1.591-6.268-0.654-7.867,2.095l-138.607,234.471h-44.954h-14.397h-81.084l136.496-228.667c1.611-2.74,0.699-6.271-2.045-7.88c-2.729-1.609-6.268-0.696-7.879,2.044l-139.953,234.503h-1.473h-81.836h-14.415h-41.841L786,1141.587c1.598-2.745,0.668-6.272-2.076-7.872c-2.738-1.597-6.27-0.673-7.873,2.078l-139.608,235.441h-26.575h-14.343h-81.749h-14.36h-2.991l135.879-232.574c1.572-2.763,0.605-6.277-2.154-7.851c-2.768-1.572-6.281-0.611-7.852,2.153l-139.159,238.271h-68.465H400.31h-57.223l135.419-230.64c1.582-2.76,0.631-6.276-2.129-7.858c-2.752-1.576-6.277-0.629-7.854,2.132l-138.73,236.366H189.521l135.834-231.601c1.576-2.762,0.621-6.279-2.141-7.857c-2.744-1.582-6.266-0.625-7.852,2.135l-139.134,237.323h-37.375v11.518h254.322h14.363h84.732h14.361h81.802h14.343h81.576h14.419h81.759h14.453h81.593h14.396h246.151v-11.518H956.469L1091.719,1142.534z" />
</g>

<g
   id="g23">
	<path
   id="path13"
   name=""
   fill="#353434"
   d="M1209.094,1368.16c0,5.666,1.38,10.53,4.137,14.591c2.758,4.061,6.648,7.149,11.672,9.264c5.024,2.116,10.86,3.174,17.509,3.174c7.064,0,13.117-1.114,18.16-3.344c5.043-2.229,8.905-5.496,11.587-9.802c2.683-4.307,4.023-9.52,4.023-15.639c0-3.929-0.717-7.98-2.153-12.154c-1.435-4.174-3.191-7.583-5.27-10.228h-17.055v23.062h-9.916v-33.714h31.674c3.777,4.345,6.742,9.415,8.896,15.214s3.23,11.7,3.23,17.707c0,8.462-1.709,15.714-5.128,21.758s-8.367,10.644-14.846,13.797c-6.479,3.154-14.251,4.731-23.316,4.731c-8.499,0-15.95-1.615-22.354-4.845c-6.402-3.229-11.379-7.781-14.93-13.655c-3.551-5.873-5.326-12.569-5.326-20.087c0-8.688,2.077-15.874,6.232-21.56c4.156-5.685,10.162-9.623,18.019-11.814l2.55,10.766c-5.666,1.587-9.981,4.335-12.947,8.245C1210.577,1357.536,1209.094,1362.381,1209.094,1368.16z" />
	<path
   id="path14"
   name=""
   fill="#353434"
   d="M1284.171,1248.491v12.238l-25.271,9.746v34.62l25.271,9.293v11.502l-83.066-31.787v-11.843L1284.171,1248.491z M1226.716,1293.367l23.458,8.612v-28.161l-23.571,9.066c-2.493,0.944-5.005,1.813-7.536,2.606c-2.53,0.793-5.628,1.681-9.293,2.663v0.227C1214.949,1289.477,1220.597,1291.139,1226.716,1293.367z" />
	<path
   id="path15"
   name=""
   fill="#353434"
   d="M1274.312,1228.433v-40.967h9.859v51.959h-83.066v-10.992H1274.312z" />
	<path
   id="path16"
   name=""
   fill="#353434"
   d="M1274.312,1163.895v-40.967h9.859v51.959h-83.066v-10.992H1274.312z" />
	<path
   id="path17"
   name=""
   fill="#353434"
   d="M1210.964,1058.164v41.193h25.385v-38.077h9.858v38.077h28.104v-43.177h9.859v54.169h-83.066v-52.186H1210.964z" />
	<path
   id="path18"
   name=""
   fill="#353434"
   d="M1224.166,982.011c5.704,0,10.426,1.549,14.165,4.646c3.74,3.099,6.403,7.649,7.989,13.656l0.341,0.057c0.491-1.322,1.274-2.54,2.352-3.655c1.076-1.113,2.71-2.352,4.9-3.711c2.191-1.36,5.308-3.06,9.35-5.1l20.908-10.539v12.296l-17.962,8.726c-4.684,2.229-8.263,4.288-10.737,6.176c-2.474,1.89-4.307,4.08-5.496,6.573c-1.19,2.493-1.785,5.609-1.785,9.349v9.576h35.98v10.992h-83.066v-30.653c0-9.481,1.975-16.583,5.921-21.306C1210.974,984.372,1216.687,982.011,1224.166,982.011zM1224.506,993.399c-4.608,0-8.018,1.436-10.228,4.307s-3.314,7.177-3.314,12.919v19.435h27.367v-19.095c0-5.704-1.142-10.058-3.428-13.061C1232.618,994.901,1229.152,993.399,1224.506,993.399z" />
	<path
   id="path19"
   name=""
   fill="#353434"
   d="M1284.171,954.926v11.049h-83.066v-11.049H1284.171z" />
	<path
   id="path20"
   name=""
   fill="#353434"
   d="M1284.171,868.46v12.239l-25.271,9.746v34.62l25.271,9.292v11.503l-83.066-31.787V902.23L1284.171,868.46zM1226.716,913.336l23.458,8.613v-28.161l-23.571,9.065c-2.493,0.945-5.005,1.813-7.536,2.606c-2.53,0.794-5.628,1.682-9.293,2.663v0.227C1214.949,909.446,1220.597,911.107,1226.716,913.336z" />
	<path
   id="path21"
   name=""
   fill="#353434"
   d="M1255.273,811.062c5.629-1.322,10.917-2.304,15.865-2.946c-1.813-0.264-4.099-0.688-6.856-1.275c-2.757-0.585-5.363-1.198-7.819-1.841l-55.358-14.619v-13.146l52.072-13.485c5.893-1.549,11.881-2.738,17.962-3.57c-2.72-0.415-8.556-1.661-17.509-3.739l-52.525-12.239v-11.049l83.066,21.475v11.05l-65.218,16.828c-2.795,0.718-5.023,1.247-6.687,1.587c2.758,0.491,5.648,1.133,8.67,1.926l63.234,16.772v11.049l-83.066,21.078v-11.219L1255.273,811.062z" />
	<path
   id="path22"
   name=""
   fill="#353434"
   d="M1284.171,658.131v12.239l-25.271,9.746v34.62l25.271,9.292v11.503l-83.066-31.787v-11.843L1284.171,658.131z M1226.716,703.007l23.458,8.613v-28.161l-23.571,9.065c-2.493,0.945-5.005,1.813-7.536,2.606c-2.53,0.794-5.628,1.682-9.293,2.663v0.227C1214.949,699.117,1220.597,700.778,1226.716,703.007z" />
	<path
   id="path23"
   name=""
   fill="#353434"
   d="M1225.81,638.583c2.38-1.511,5.033-3.089,7.961-4.731c2.928-1.644,4.655-2.615,5.185-2.918l1.246-0.681c-2.115-1.057-4.183-2.189-6.204-3.399c-2.021-1.208-4.807-2.927-8.357-5.156l-24.535-15.469v-12.806l47.88,31.958h35.187v10.992h-35.187l-47.88,30.881v-13.146L1225.81,638.583z" />
</g>
	<path
   id="10"
   name="10"
   type="space"
   d="M940.376,1370.487L1083.1,1130H941.676l-142.845,240.487z" />
	<path
   id="9"
   name="9"
   type="space"
   d="M785.476,1370.487L928.194,1130H787.021l-141.554,240.487z" />
	<path
   id="8"
   name="8"
   type="space"
   d="M632.206,1370.487L773.58,1130H635.637l-142.793,240.487z" />
	<path
   id="7"
   name="7"
   type="space"
   d="M479.566,1370.487L622.178,1130H480.855L338.11,1370.487Z" />
	<path
   id="6"
   name="6"
   type="space"
   d="M324.797,1370.487L467.353,1130H330.351L188.97,1370.487Z" />
	<path
   id="5"
   name="5"
   type="space"
   d="M940.376,627.513L1083.1,868H941.676L798.831,627.513Z" />
	<path
   id="4"
   name="4"
   type="space"
   d="M785.476,627.513L928.194,868H787.021L645.467,627.513Z" />
	<path
   id="3"
   name="3"
   type="space"
   d="M632.206,627.513L773.58,868H635.637L492.844,627.513Z" />
	<path
   id="2"
   name="2"
   type="space"
   d="M479.566,627.513L622.178,868H480.855L338.11,627.513Z" />
	<path
   id="1"
   name="1"
   type="space"
   d="M324.797,627.513L467.353,868H 330.351L188.97,627.513Z" />

	<g
   id="g37"><path
     id="path24-9-2-2"
     name=""
     fill="#0071bc"
     space_id="1"
     d="m 958.73815,1216.1344 c -9.50193,-6.3205 -20.8965,-8.559 -32.07852,-6.3083 -11.18501,2.2512 -20.82626,8.7238 -27.14306,18.2281 -6.32042,9.502 -8.55897,20.8966 -6.30769,32.0817 2.25127,11.185 8.72378,20.8263 18.2275,27.1401 9.50554,6.3228 20.89711,8.562 32.08212,6.3107 11.18203,-2.2506 20.82627,-8.7238 27.13947,-18.2305 6.32401,-9.4996 8.56257,-20.8942 6.31128,-32.0793 -2.25125,-11.185 -8.72378,-20.8263 -18.2311,-27.1425 z m -56.55497,42.1951 c -1.76898,-8.7888 -0.009,-17.743 4.95529,-25.2075 4.96566,-7.4644 12.54161,-12.5532 21.32746,-14.3216 7.2752,-1.4643 14.63956,-0.4751 21.20952,2.7065 l -36.79106,55.3336 c -5.47444,-4.8215 -9.23689,-11.2357 -10.70121,-18.511 z m 60.8541,11.9648 c -4.96206,7.4668 -12.53862,12.5527 -21.32449,14.3211 -7.27517,1.4643 -14.64253,0.4757 -21.2065,-2.7071 l 36.78627,-55.3264 c 5.47382,4.8185 9.23688,11.2357 10.70059,18.5079 1.77136,8.7853 0.009,17.7371 -4.95587,25.2045 z"
     style="stroke-width:2.26497"
     inkscape:transform-center-x="5.4308598"
     inkscape:transform-center-y="-144.38378" /><path
     id="path24-9-2-88"
     name=""
     fill="#0071bc"
     space_id="1"
     d="m 806.34959,1208.6398 c -9.50193,-6.3204 -20.8965,-8.5589 -32.07852,-6.3083 -11.18501,2.2513 -20.82626,8.7239 -27.14306,18.2282 -6.32042,9.502 -8.55897,20.8966 -6.30769,32.0816 2.25127,11.1851 8.72378,20.8264 18.2275,27.1402 9.50554,6.3228 20.89711,8.562 32.08212,6.3107 11.18203,-2.2507 20.82627,-8.7238 27.13947,-18.2306 6.32401,-9.4995 8.56257,-20.8942 6.31128,-32.0792 -2.25125,-11.185 -8.72378,-20.8263 -18.2311,-27.1426 z m -56.55497,42.1952 c -1.76898,-8.7889 -0.009,-17.7431 4.95529,-25.2075 4.96566,-7.4644 12.54161,-12.5532 21.32746,-14.3216 7.2752,-1.4643 14.63956,-0.4752 21.20952,2.7065 l -36.79106,55.3336 c -5.47444,-4.8215 -9.23689,-11.2358 -10.70121,-18.511 z m 60.8541,11.9648 c -4.96206,7.4668 -12.53862,12.5527 -21.32449,14.321 -7.27517,1.4644 -14.64253,0.4758 -21.2065,-2.707 l 36.78627,-55.3264 c 5.47382,4.8185 9.23688,11.2357 10.70059,18.5079 1.77136,8.7853 0.009,17.7371 -4.95587,25.2045 z"
     style="stroke-width:2.26497"
     inkscape:transform-center-x="5.4308598"
     inkscape:transform-center-y="-144.38378" /><path
     id="path24-9-2-7"
     name=""
     fill="#0071bc"
     space_id="1"
     d="m 656.45922,1211.138 c -9.50193,-6.3204 -20.8965,-8.559 -32.07852,-6.3083 -11.18501,2.2513 -20.82626,8.7238 -27.14306,18.2282 -6.32042,9.5019 -8.55897,20.8966 -6.30769,32.0816 2.25127,11.185 8.72378,20.8263 18.2275,27.1402 9.50554,6.3228 20.89711,8.5619 32.08212,6.3107 11.18203,-2.2507 20.82627,-8.7239 27.13947,-18.2306 6.32401,-9.4996 8.56257,-20.8942 6.31128,-32.0792 -2.25125,-11.1851 -8.72378,-20.8264 -18.2311,-27.1426 z m -56.55497,42.1952 c -1.76898,-8.7889 -0.009,-17.7431 4.95529,-25.2075 4.96566,-7.4644 12.54161,-12.5533 21.32746,-14.3217 7.2752,-1.4643 14.63956,-0.4751 21.20952,2.7065 l -36.79106,55.3336 c -5.47444,-4.8215 -9.23689,-11.2357 -10.70121,-18.5109 z m 60.8541,11.9648 c -4.96206,7.4668 -12.53862,12.5526 -21.32449,14.321 -7.27517,1.4643 -14.64253,0.4758 -21.2065,-2.7071 l 36.78627,-55.3264 c 5.47382,4.8185 9.23688,11.2357 10.70059,18.508 1.77136,8.7853 0.009,17.7371 -4.95587,25.2045 z"
     style="stroke-width:2.26497"
     inkscape:transform-center-x="5.4308598"
     inkscape:transform-center-y="-144.38378" /><path
     id="path24-9-2-02"
     name=""
     fill="#0071bc"
     space_id="1"
     d="m 499.07432,1208.6398 c -9.50193,-6.3204 -20.8965,-8.5589 -32.07852,-6.3083 -11.18501,2.2513 -20.82626,8.7239 -27.14306,18.2282 -6.32042,9.502 -8.55897,20.8966 -6.30769,32.0816 2.25127,11.1851 8.72378,20.8264 18.2275,27.1402 9.50554,6.3228 20.89711,8.562 32.08212,6.3107 11.18203,-2.2507 20.82627,-8.7238 27.13947,-18.2306 6.32401,-9.4995 8.56257,-20.8942 6.31128,-32.0792 -2.25125,-11.185 -8.72378,-20.8263 -18.2311,-27.1426 z m -56.55497,42.1952 c -1.76898,-8.7889 -0.009,-17.7431 4.95529,-25.2075 4.96566,-7.4644 12.54161,-12.5532 21.32746,-14.3216 7.2752,-1.4643 14.63956,-0.4752 21.20952,2.7065 l -36.79106,55.3336 c -5.47444,-4.8215 -9.23689,-11.2358 -10.70121,-18.511 z m 60.8541,11.9648 c -4.96206,7.4668 -12.53862,12.5527 -21.32449,14.321 -7.27517,1.4644 -14.64253,0.4758 -21.2065,-2.707 l 36.78627,-55.3264 c 5.47382,4.8185 9.23688,11.2357 10.70059,18.5079 1.77136,8.7853 0.009,17.7371 -4.95587,25.2045 z"
     style="stroke-width:2.26497"
     inkscape:transform-center-x="5.4308598"
     inkscape:transform-center-y="-144.38378" /><path
     id="path24-9-2-80"
     name=""
     fill="#0071bc"
     space_id="1"
     d="m 349.18394,1213.6362 c -9.50193,-6.3204 -20.8965,-8.559 -32.07852,-6.3083 -11.18501,2.2513 -20.82626,8.7238 -27.14306,18.2282 -6.32042,9.5019 -8.55897,20.8965 -6.30769,32.0816 2.25127,11.185 8.72378,20.8263 18.2275,27.1402 9.50554,6.3228 20.89711,8.5619 32.08212,6.3107 11.18203,-2.2507 20.82627,-8.7239 27.13947,-18.2306 6.32401,-9.4996 8.56257,-20.8942 6.31128,-32.0792 -2.25125,-11.1851 -8.72378,-20.8264 -18.2311,-27.1426 z m -56.55497,42.1952 c -1.76898,-8.7889 -0.009,-17.7431 4.95529,-25.2075 4.96566,-7.4644 12.54161,-12.5533 21.32746,-14.3217 7.2752,-1.4643 14.63956,-0.4751 21.20952,2.7065 l -36.79106,55.3336 c -5.47444,-4.8215 -9.23689,-11.2357 -10.70121,-18.5109 z m 60.8541,11.9648 c -4.96206,7.4668 -12.53862,12.5526 -21.32449,14.321 -7.27517,1.4643 -14.64253,0.4758 -21.2065,-2.7071 l 36.78627,-55.3264 c 5.47382,4.8185 9.23688,11.2357 10.70059,18.508 1.77136,8.7853 0.009,17.7371 -4.95587,25.2045 z"
     style="stroke-width:2.26497"
     inkscape:transform-center-x="5.4308598"
     inkscape:transform-center-y="-144.38378" /><path
     id="path24-9-2-8"
     name=""
     fill="#0071bc"
     space_id="1"
     d="m 963.73449,721.49612 c -9.50193,-6.32042 -20.8965,-8.55897 -32.07852,-6.30831 -11.18501,2.25127 -20.82626,8.72382 -27.14306,18.22818 -6.32042,9.50197 -8.55897,20.89658 -6.30769,32.08162 2.25127,11.18504 8.72378,20.82633 18.2275,27.14017 9.50554,6.32282 20.89711,8.56197 32.08212,6.3107 11.18203,-2.25067 20.82627,-8.72382 27.13947,-18.23057 6.32401,-9.49957 8.56257,-20.89419 6.31128,-32.07922 -2.25125,-11.18505 -8.72378,-20.82633 -18.2311,-27.14257 z m -56.55497,42.19518 c -1.76898,-8.78889 -0.009,-17.74309 4.95529,-25.2075 4.96566,-7.46442 12.54161,-12.55326 21.32746,-14.32164 7.2752,-1.46431 14.63956,-0.47514 21.20952,2.70648 l -36.79106,55.3336 c -5.47444,-4.82149 -9.23689,-11.23572 -10.70121,-18.51094 z m 60.8541,11.96479 c -4.96206,7.46681 -12.53862,12.55265 -21.32449,14.32103 -7.27517,1.46432 -14.64253,0.47576 -21.2065,-2.70707 l 36.78627,-55.32642 c 5.47382,4.81851 9.23688,11.23573 10.70059,18.50795 1.77136,8.7853 0.009,17.7371 -4.95587,25.20451 z"
     style="stroke-width:2.26497"
     inkscape:transform-center-x="5.4308598"
     inkscape:transform-center-y="-144.38378" /><path
     id="path24-9-2-0"
     name=""
     fill="#0071bc"
     space_id="1"
     d="m 808.84777,711.50343 c -9.50193,-6.32042 -20.8965,-8.55897 -32.07852,-6.30831 -11.18501,2.25127 -20.82626,8.72382 -27.14306,18.22818 -6.32042,9.50197 -8.55897,20.89658 -6.30769,32.08162 2.25127,11.18504 8.72378,20.82633 18.2275,27.14017 9.50554,6.32282 20.89711,8.56197 32.08212,6.3107 11.18203,-2.25067 20.82627,-8.72382 27.13947,-18.23057 6.32401,-9.49957 8.56257,-20.89419 6.31128,-32.07922 -2.25125,-11.18505 -8.72378,-20.82633 -18.2311,-27.14257 z m -56.55497,42.19518 c -1.76898,-8.78889 -0.009,-17.74309 4.95529,-25.2075 4.96566,-7.46442 12.54161,-12.55326 21.32746,-14.32164 7.2752,-1.46431 14.63956,-0.47514 21.20952,2.70648 l -36.79106,55.3336 c -5.47444,-4.82149 -9.23689,-11.23572 -10.70121,-18.51094 z m 60.8541,11.96479 c -4.96206,7.46681 -12.53862,12.55265 -21.32449,14.32103 -7.27517,1.46432 -14.64253,0.47576 -21.2065,-2.70707 l 36.78627,-55.32642 c 5.47382,4.81851 9.23688,11.23573 10.70059,18.50795 1.77136,8.7853 0.009,17.7371 -4.95587,25.20451 z"
     style="stroke-width:2.26497"
     inkscape:transform-center-x="5.4308598"
     inkscape:transform-center-y="-144.38378" /><path
     id="path24-9-2-61"
     name=""
     fill="#0071bc"
     space_id="1"
     d="m 646.46653,704.00891 c -9.50193,-6.32042 -20.8965,-8.55897 -32.07852,-6.30831 -11.18501,2.25127 -20.82626,8.72382 -27.14306,18.22818 -6.32042,9.50197 -8.55897,20.89658 -6.30769,32.08162 2.25127,11.18504 8.72378,20.82633 18.2275,27.14017 9.50554,6.32282 20.89711,8.56197 32.08212,6.3107 11.18203,-2.25067 20.82627,-8.72382 27.13947,-18.23057 6.32401,-9.49957 8.56257,-20.89419 6.31128,-32.07922 -2.25125,-11.18505 -8.72378,-20.82633 -18.2311,-27.14257 z m -56.55497,42.19518 c -1.76898,-8.78889 -0.009,-17.74309 4.95529,-25.2075 4.96566,-7.46442 12.54161,-12.55326 21.32746,-14.32164 7.2752,-1.46431 14.63956,-0.47514 21.20952,2.70648 l -36.79106,55.3336 c -5.47444,-4.82149 -9.23689,-11.23572 -10.70121,-18.51094 z m 60.8541,11.96479 c -4.96206,7.46681 -12.53862,12.55265 -21.32449,14.32103 -7.27517,1.46432 -14.64253,0.47576 -21.2065,-2.70707 l 36.78627,-55.32642 c 5.47382,4.81851 9.23688,11.23573 10.70059,18.50795 1.77136,8.7853 0.009,17.7371 -4.95587,25.20451 z"
     style="stroke-width:2.26497"
     inkscape:transform-center-x="5.4308598"
     inkscape:transform-center-y="-144.38378" /><path
     id="path24-9-2-6"
     name=""
     fill="#0071bc"
     space_id="1"
     d="m 494.07797,699.01256 c -9.50193,-6.32042 -20.8965,-8.55897 -32.07852,-6.30831 -11.18501,2.25127 -20.82626,8.72382 -27.14306,18.22818 -6.32042,9.50197 -8.55897,20.89658 -6.30769,32.08162 2.25127,11.18504 8.72378,20.82633 18.2275,27.14017 9.50554,6.32282 20.89711,8.56197 32.08212,6.3107 11.18203,-2.25067 20.82627,-8.72382 27.13947,-18.23057 6.32401,-9.49957 8.56257,-20.89419 6.31128,-32.07922 -2.25125,-11.18505 -8.72378,-20.82633 -18.2311,-27.14257 z M 437.523,741.20774 c -1.76898,-8.78889 -0.009,-17.74309 4.95529,-25.2075 4.96566,-7.46442 12.54161,-12.55326 21.32746,-14.32164 7.2752,-1.46431 14.63956,-0.47514 21.20952,2.70648 l -36.79106,55.3336 c -5.47444,-4.82149 -9.23689,-11.23572 -10.70121,-18.51094 z m 60.8541,11.96479 c -4.96206,7.46681 -12.53862,12.55265 -21.32449,14.32103 -7.27517,1.46432 -14.64253,0.47576 -21.2065,-2.70707 l 36.78627,-55.32642 c 5.47382,4.81851 9.23688,11.23573 10.70059,18.50795 1.77136,8.7853 0.009,17.7371 -4.95587,25.20451 z"
     style="stroke-width:2.26497"
     inkscape:transform-center-x="5.4308598"
     inkscape:transform-center-y="-144.38378" /><path
     id="path24-9-2"
     name=""
     fill="#0071bc"
     space_id="1"
     d="m 343.6753,706.64532 c -9.50193,-6.32042 -20.8965,-8.55897 -32.07852,-6.30831 -11.18501,2.25127 -20.82626,8.72382 -27.14306,18.22818 -6.32042,9.50197 -8.55897,20.89658 -6.30769,32.08162 2.25127,11.18504 8.72378,20.82633 18.2275,27.14017 9.50554,6.32282 20.89711,8.56197 32.08212,6.3107 11.18203,-2.25067 20.82627,-8.72382 27.13947,-18.23057 6.32401,-9.49957 8.56257,-20.89419 6.31128,-32.07922 -2.25125,-11.18505 -8.72378,-20.82633 -18.2311,-27.14257 z m -56.55497,42.19518 c -1.76898,-8.78889 -0.009,-17.74309 4.95529,-25.2075 4.96566,-7.46442 12.54161,-12.55326 21.32746,-14.32164 7.2752,-1.46431 14.63956,-0.47514 21.20952,2.70648 l -36.79106,55.3336 c -5.47444,-4.82149 -9.23689,-11.23572 -10.70121,-18.51094 z m 60.8541,11.96479 c -4.96206,7.46681 -12.53862,12.55265 -21.32449,14.32103 -7.27517,1.46432 -14.64253,0.47576 -21.2065,-2.70707 l 36.78627,-55.32642 c 5.47382,4.81851 9.23688,11.23573 10.70059,18.50795 1.77136,8.7853 0.009,17.7371 -4.95587,25.20451 z"
     style="stroke-width:2.26497"
     inkscape:transform-center-x="5.4308598"
     inkscape:transform-center-y="-144.38378" /></g>



	<g
   id="g36"
   transform="translate(4.9963461)"><path
     id="path24-43"
     name=""
     fill="#0071bc"
     space_id="1"
     d="m 965.89778,1173.7843 c -2.83645,-1.2882 -5.95894,-2.7177 -8.65265,-2.1238 -3.56055,0.8516 -6.85522,2.2293 -9.99868,3.8036 -2.9099,1.4945 -5.27914,3.7124 -7.34651,6.1679 -3.95771,4.8132 -7.55474,9.9704 -10.42316,15.6628 -0.52026,1.0297 -0.67268,2.2869 -1.3026,3.247 -1.85774,2.986 -3.82767,5.8845 -5.69931,8.8629 -1.55428,0.3694 -2.38768,1.7478 -3.1983,2.9635 -0.56885,1.0278 -1.27426,2.1135 -0.99597,3.5445 -3.76554,5.8132 -7.50987,11.6402 -11.28507,17.4451 -1.03713,-1.4164 -1.86648,-2.9869 -3.05243,-4.2991 -0.96644,0.1396 -1.15418,1.4095 -1.17172,2.3426 -0.0319,1.751 1.51131,3.3244 2.30197,4.9657 -3.38867,5.3003 -6.82746,10.5607 -10.23393,15.847 -0.37514,0.6262 -0.95049,1.0626 -1.4774,1.5442 -1.22127,1.0935 -2.05658,2.5478 -3.02378,3.8747 -3.14947,4.3186 -6.02559,8.8702 -8.55856,13.6708 -1.11368,2.1121 -1.25679,4.8456 -0.59381,7.5869 0.8961,4.4233 2.07603,8.8695 3.5579,13.2946 0.5406,1.5955 1.64534,3.0765 2.92383,4.3046 3.27817,3.2409 6.79849,6.2062 10.31465,9.1437 5.15936,4.245 10.39149,8.408 15.83604,12.1693 1.81083,1.243 3.773,2.5367 5.76762,2.6693 4.46408,0.2862 8.82456,0.1208 13.0857,-0.2959 1.55312,-0.1213 3.01102,-0.5404 4.22074,-1.3067 1.41614,-0.855 2.34826,-2.2378 3.34627,-3.5208 3.43698,-4.3919 6.44979,-9.1511 9.31792,-14.0056 0.76057,-1.175 0.94005,-2.7317 1.76265,-3.8572 3.46792,-5.1619 6.98544,-10.2838 10.43848,-15.4577 0.92662,0.3053 1.85052,0.6551 2.77406,0.9362 1.42638,0.4374 2.81296,0.057 3.5625,-0.9059 0.21763,-0.2607 0.51924,-0.6376 0.20859,-1.0785 -1.50152,-0.7538 -3.06162,-1.2121 -4.58684,-1.838 3.87967,-5.7394 7.71856,-11.5088 11.63425,-17.2165 0.93523,-0.081 1.55414,-0.7029 2.09727,-1.3244 0.88045,-1.0757 1.67938,-2.2632 2.10056,-3.6758 0.19284,-0.5737 -0.0533,-1.3643 0.37668,-1.803 1.87565,-2.7438 3.71324,-5.5217 5.59619,-8.2596 0.66167,-0.9684 1.69987,-1.5486 2.45114,-2.4229 3.15797,-3.7691 5.95592,-7.8698 8.37764,-12.2492 2.19469,-3.7891 4.26249,-7.7872 4.90319,-12.5033 0.3898,-3.2226 0.5644,-6.5326 0.4544,-9.9154 -0.061,-1.3771 -0.091,-2.7757 -0.5683,-4.2026 -0.6333,-1.926 -1.90148,-3.7033 -3.134,-5.4212 -3.37181,-4.5325 -7.4291,-8.5826 -11.65769,-12.3223 -6.34076,-5.495 -13.16826,-10.5218 -20.44952,-14.0414 z m -80.30677,116.9898 c -1.84222,-4.7624 -2.87181,-9.5735 -3.79287,-14.3379 -0.41272,-1.6856 0.34466,-3.0972 1.22502,-4.1324 0.46046,-0.439 1.16304,0.2685 1.23344,0.8673 1.61764,6.5701 2.58934,13.1268 2.79878,19.5076 -0.55471,-0.5814 -1.17023,-1.1685 -1.46437,-1.9046 z m 51.8298,25.6886 c -0.66755,1.0853 -1.54015,2.2416 -3.00448,2.3316 -3.57542,0.3871 -7.17838,0.746 -10.92493,0.5777 -1.56735,-0.1087 -3.25231,0.087 -4.79204,-1.1653 5.6149,-1.6869 11.57492,-2.7149 17.77787,-2.9765 0.66749,-0.1215 1.32086,0.6892 0.9435,1.2326 z m -11.21344,-103.3416 c 2.46246,0.6503 4.92417,1.1999 7.38719,1.8507 -3.04256,5.7264 -6.48866,11.2452 -11.15721,15.5816 -3.36038,2.9111 -6.85719,5.6964 -10.64508,8.091 -0.97368,-0.2564 -1.9398,-0.6742 -2.91306,-0.9892 5.67548,-8.2645 11.48897,-16.4113 17.32816,-24.5341 z m 27.05767,70.8239 c -0.77862,2.9002 -4.30686,3.8522 -7.46746,2.3364 -13.81541,-6.8856 -26.78462,-17.0717 -37.28819,-29.2445 -1.27692,-1.5293 -2.76565,-3.03 -3.45174,-4.8526 -1.01745,-2.4728 -0.59927,-5.1309 1.14304,-6.3769 4.71875,-3.42 9.28134,-7.0345 14.10561,-10.3223 0.52923,-0.4175 1.44305,-0.1167 2.02611,0.4977 11.0475,10.0064 22.63948,19.3366 34.61866,27.9316 0.72874,0.4853 1.07426,1.4187 0.82242,2.0571 -1.50489,5.9912 -2.99084,11.9927 -4.50847,17.9735 z m 21.98862,-31.2425 c -5.21671,8.6252 -10.46183,17.2309 -15.85078,25.7264 -0.56804,-0.9289 -1.22251,-1.8188 -1.74037,-2.7662 0.90819,-4.7186 2.24132,-9.25 3.72451,-13.6761 2.31199,-6.2381 6.01526,-11.5495 10.0205,-16.4989 1.31183,2.3952 2.53511,4.8199 3.84614,7.2148 z m 6.07726,-16.0414 c 0.61673,2.3459 0.63917,4.7609 -0.38208,6.5489 -1.69628,2.8792 -3.42747,5.7306 -5.14844,8.5903 -1.2313,-2.3561 -2.48664,-4.7094 -3.73183,-7.0609 2.46875,-2.8736 5.05503,-5.639 7.79854,-8.2408 0.32003,-0.3242 1.16287,-0.6724 1.4638,0.1625 z m -42.57215,-33.3377 c -1.40501,3.6821 -2.99863,7.2486 -4.72127,10.7243 -2.40536,-0.5946 -4.81503,-1.1992 -7.2197,-1.7773 1.93859,-2.684 3.86688,-5.3763 5.82997,-8.0403 1.22854,-1.6206 3.31544,-2.3333 5.52454,-2.3986 0.811,0.062 0.76804,1.0558 0.58676,1.4919 z m 50.91932,14.812 c -4.20213,4.0772 -8.37694,8.1817 -12.57874,12.2589 -0.40328,0.5597 -1.40748,0.4289 -1.99379,-0.2717 -5.37971,-5.345 -11.03325,-10.4121 -16.99703,-14.998 -4.03473,-3.1155 -8.21242,-5.9857 -12.43381,-8.7438 -0.77188,-0.4078 -1.08962,-1.4062 -0.76048,-1.9792 2.24313,-5.6576 4.47885,-11.3152 6.72078,-16.9711 0,0 18.70996,5.0406 33.93924,24.8491 1.49396,1.877 2.86706,3.8385 4.10382,5.8557 z"
     style="stroke-width:0.742267" /><path
     id="path24-16"
     name=""
     fill="#0071bc"
     space_id="1"
     d="m 806.70666,1178.3901 c -2.86559,-1.222 -6.02053,-2.5786 -8.69964,-1.9223 -3.53981,0.934 -6.80159,2.3878 -9.90774,4.0347 -2.87433,1.5617 -5.19143,3.834 -7.20122,6.3368 -3.84497,4.9038 -7.32119,10.1432 -10.05665,15.9006 -0.49621,1.0416 -0.61939,2.302 -1.22685,3.2764 -1.78799,3.0284 -3.68999,5.9718 -5.49196,8.9928 -1.5453,0.4055 -2.34656,1.8029 -3.12864,3.0371 -0.54482,1.0407 -1.22484,2.1424 -0.91338,3.5666 -3.62954,5.8991 -7.23755,11.8114 -10.87694,17.7025 -1.06974,-1.3921 -1.93543,-2.9427 -3.15153,-4.2271 -0.96284,0.162 -1.12104,1.4358 -1.11691,2.3692 0.009,1.7512 1.589,3.2879 2.41666,4.9109 -3.26468,5.3775 -6.58041,10.7164 -9.86319,16.0803 -0.36051,0.6348 -0.92558,1.0844 -1.44116,1.5782 -1.19553,1.1215 -1.99685,2.5948 -2.93298,3.9437 -3.04834,4.3906 -5.81799,9.0079 -8.2388,13.8659 -1.06433,2.1374 -1.14394,4.8735 -0.41756,7.5987 0.99865,4.4013 2.28149,8.8189 3.86573,13.2083 0.57741,1.5827 1.71634,3.0375 3.023,4.2356 3.35254,3.164 6.94069,6.0467 10.52419,8.9017 5.25655,4.1241 10.58393,8.1645 16.11435,11.7984 1.83921,1.2006 3.83089,2.4484 5.82796,2.5346 4.46961,0.1824 8.82508,-0.084 13.07539,-0.5996 1.54989,-0.1574 2.99765,-0.6103 4.18926,-1.4045 1.3959,-0.8876 2.29558,-2.2916 3.26352,-3.5974 3.33417,-4.4707 6.23565,-9.2985 8.99019,-14.2182 0.73307,-1.1924 0.87645,-2.7529 1.67269,-3.8972 3.34713,-5.241 6.74476,-10.4433 10.07673,-15.696 0.93346,0.2838 1.86523,0.612 2.79506,0.8716 1.43614,0.4042 2.81352,-0.01 3.5404,-0.9883 0.21162,-0.2657 0.50439,-0.6496 0.18362,-1.0831 -1.51871,-0.7187 -3.08895,-1.1406 -4.62829,-1.731 3.74536,-5.8279 7.44924,-11.6849 11.23134,-17.4821 0.93301,-0.1023 1.5374,-0.7387 2.06594,-1.3727 0.85515,-1.0958 1.62639,-2.3015 2.01464,-3.7236 0.17938,-0.5779 -0.085,-1.3626 0.33472,-1.8112 1.81143,-2.7866 3.58401,-5.6064 5.40288,-8.3873 0.63901,-0.9835 1.66345,-1.5877 2.39421,-2.4792 3.06951,-3.8413 5.77158,-8.006 8.09096,-12.4404 2.10611,-3.8391 4.08055,-7.8841 4.6115,-12.6138 0.31491,-3.2308 0.41262,-6.544 0.22407,-9.9232 -0.0926,-1.3754 -0.15538,-2.7729 -0.66577,-4.1883 -0.67784,-1.9108 -1.98694,-3.6582 -3.25901,-5.3469 -3.47616,-4.4531 -7.62641,-8.4079 -11.94069,-12.0483 -6.46665,-5.3463 -13.40904,-10.2132 -20.77007,-13.5628 z m -77.56861,118.8231 c -1.9522,-4.7184 -3.09334,-9.5043 -4.1247,-14.2461 -0.45175,-1.6755 0.27257,-3.1043 1.12874,-4.1597 0.45006,-0.4495 1.1689,0.2413 1.25326,0.8384 1.76976,6.5308 2.89346,13.0632 3.25099,19.4374 -0.56806,-0.5683 -1.19703,-1.1411 -1.50829,-1.87 z m 52.41242,24.4781 c -0.64216,1.1004 -1.48768,2.2767 -2.94952,2.4007 -3.56546,0.47 -7.15911,0.9124 -10.90856,0.8312 -1.56946,-0.072 -3.24942,0.1621 -4.81782,-1.0537 5.57422,-1.8168 11.50876,-2.9829 17.70397,-3.3885 0.66449,-0.137 1.33651,0.6583 0.97186,1.2103 z m -13.61008,-103.0535 c 2.4768,0.593 4.9507,1.0853 7.42817,1.6788 -2.90877,5.7955 -6.22579,11.3928 -10.79248,15.8365 -3.29178,2.9882 -6.72298,5.854 -10.45424,8.3359 -0.97947,-0.2336 -1.95492,-0.629 -2.93523,-0.9213 5.48203,-8.3939 11.10479,-16.6736 16.75378,-24.9299 z m 28.69496,70.1767 c -0.71107,2.9174 -4.21624,3.951 -7.41128,2.5091 -13.97149,-6.5631 -27.17381,-16.4451 -37.95714,-28.3707 -1.31208,-1.4994 -2.83525,-2.9651 -3.56347,-4.7712 -1.0746,-2.4486 -0.71836,-5.1156 0.99464,-6.4017 4.63797,-3.5287 9.11549,-7.2481 13.86212,-10.6471 0.51939,-0.4298 1.43996,-0.1502 2.03703,0.4506 11.27697,9.7471 23.08248,18.8055 35.25801,27.1201 0.73981,0.4682 1.10691,1.3933 0.86997,2.0375 -1.36536,6.0245 -2.71156,12.0588 -4.0899,18.0732 z m 21.25721,-31.7447 c -5.01511,8.7439 -10.05889,17.4691 -15.2492,26.0875 -0.58937,-0.9155 -1.26432,-1.79 -1.80405,-2.7251 0.7983,-4.7385 2.02594,-9.2996 3.40594,-13.7589 2.16651,-6.2901 5.74536,-11.686 9.63467,-16.7271 1.3671,2.3641 2.64635,4.7597 4.01264,7.1236 z m 5.70314,-16.1783 c 0.67103,2.3309 0.74954,4.7448 -0.22991,6.556 -1.62897,2.9179 -3.29348,5.8087 -4.94758,8.7075 -1.28577,-2.3267 -2.59534,-4.6503 -3.89478,-6.9723 2.40134,-2.9301 4.92271,-5.7548 7.60507,-8.4197 0.31241,-0.3314 1.14686,-0.6991 1.46715,0.1282 z m -43.33481,-32.3401 c -1.31913,3.7136 -2.82949,7.3162 -4.47098,10.831 -2.41851,-0.5386 -4.84156,-1.0871 -7.2591,-1.6092 1.87582,-2.7282 3.74109,-5.4646 5.64169,-8.1735 1.19067,-1.6486 3.26046,-2.4097 5.46745,-2.5263 0.81226,0.043 0.79225,1.0378 0.62125,1.4779 z m 51.24954,13.6255 c -4.10632,4.1737 -8.1847,8.3741 -12.29068,12.5477 -0.39017,0.569 -1.39715,0.4615 -1.99956,-0.2253 -5.50245,-5.2187 -11.27205,-10.1532 -17.34071,-14.5993 -4.10599,-3.0211 -8.3492,-5.7933 -12.63358,-8.4527 -0.78106,-0.3898 -1.1219,-1.3805 -0.80616,-1.961 2.11115,-5.7082 4.21481,-11.4162 6.32488,-17.1226 0,0 18.82197,4.6048 34.50712,24.0543 1.53706,1.8418 2.95541,3.7709 4.23868,5.7588 z"

		style="stroke-width:0.742267" /><path
     id="path24-4"
     name=""
     fill="#0071bc"
     space_id="1"
     d="m 653.75383,1179.1751 c -2.82902,-1.3045 -5.94337,-2.7518 -8.64034,-2.1734 -3.56537,0.8311 -6.86788,2.19 -10.0204,3.7462 -2.91832,1.4778 -5.30023,3.6822 -7.38164,6.1257 -3.98532,4.7905 -7.61174,9.927 -10.51273,15.6029 -0.52615,1.0267 -0.68578,2.283 -1.32119,3.2394 -1.87491,2.9755 -3.86133,5.8626 -5.75,8.8301 -1.55637,0.3605 -2.39775,1.7342 -3.21523,2.9452 -0.57472,1.0245 -1.28635,2.1061 -1.01626,3.5387 -3.79879,5.7916 -7.57644,11.5969 -11.38484,17.3802 -1.029,-1.4224 -1.84943,-2.9976 -3.02784,-4.3165 -0.96713,0.1341 -1.16215,1.4028 -1.18504,2.3358 -0.0419,1.7508 1.49317,3.3325 2.27349,4.9789 -3.41898,5.2807 -6.88786,10.5213 -10.32457,15.7881 -0.37873,0.624 -0.95656,1.057 -1.48622,1.5356 -1.22751,1.0865 -2.07114,2.5359 -3.04594,3.8573 -3.17416,4.3005 -6.07631,8.8356 -8.63674,13.6216 -1.12577,2.1057 -1.28454,4.8382 -0.63736,7.5834 0.87082,4.4282 2.02525,8.8812 3.48175,13.3147 0.53135,1.5986 1.62768,3.0858 2.89912,4.3212 3.25954,3.2597 6.76272,6.2452 10.26208,9.2027 5.13495,4.2744 10.34314,8.4675 15.76606,12.2598 1.80367,1.2535 3.7584,2.5584 5.75213,2.7024 4.46246,0.3117 8.82382,0.1714 13.08727,-0.2209 1.55379,-0.1125 3.01406,-0.5232 4.22815,-1.2825 1.42103,-0.8469 2.36097,-2.2243 3.3663,-3.5015 3.46219,-4.3723 6.50221,-9.1141 9.39803,-13.952 0.76729,-1.1707 0.95577,-2.7263 1.78481,-3.8471 3.49745,-5.1419 7.04426,-10.2437 10.52687,-15.3977 0.92487,0.3107 1.84675,0.6656 2.76866,0.9522 1.42385,0.4455 2.81258,0.073 3.56754,-0.8855 0.21922,-0.2595 0.52297,-0.6347 0.21486,-1.0774 -1.49727,-0.7623 -3.05463,-1.2295 -4.57624,-1.8642 3.9125,-5.7171 7.78439,-11.4644 11.73272,-17.1496 0.93558,-0.075 1.55814,-0.6939 2.10482,-1.3124 0.88651,-1.0705 1.69232,-2.2534 2.12159,-3.6637 0.19604,-0.5725 -0.0455,-1.3645 0.387,-1.8007 1.89134,-2.733 3.74482,-5.5003 5.64342,-8.2274 0.66722,-0.9646 1.70873,-1.5389 2.46499,-2.4088 3.17942,-3.7509 6.00091,-7.8356 8.44768,-12.201 2.21637,-3.7764 4.30709,-7.7627 4.97473,-12.4751 0.40831,-3.2202 0.60189,-6.5293 0.51126,-9.9126 -0.0527,-1.3774 -0.0751,-2.7761 -0.54425,-4.2057 -0.62224,-1.9296 -1.88021,-3.7142 -3.10286,-5.4391 -3.34579,-4.5517 -7.37981,-8.6251 -11.5869,-12.3889 -6.30918,-5.5312 -13.10776,-10.5971 -20.36873,-14.1584 z m -80.97588,116.5277 c -1.81482,-4.7729 -2.81691,-9.5898 -3.71057,-14.3594 -0.40306,-1.6879 0.36232,-3.0952 1.24868,-4.1253 0.46288,-0.4364 1.1614,0.2752 1.22845,0.8744 1.57998,6.5792 2.51409,13.1414 2.68696,19.5232 -0.55137,-0.5845 -1.16352,-1.1752 -1.45352,-1.9129 z m 51.68184,25.9851 c -0.67376,1.0814 -1.55297,2.2327 -3.01779,2.3144 -3.57758,0.3666 -7.18253,0.7048 -10.92807,0.5151 -1.56667,-0.1181 -3.25274,0.068 -4.78527,-1.1927 5.62448,-1.6548 11.59028,-2.6486 17.79463,-2.8746 0.66817,-0.1177 1.3169,0.6967 0.93643,1.2378 z m -10.62111,-103.4042 c 2.45859,0.6645 4.91721,1.2281 7.37647,1.8931 -3.07532,5.7089 -6.55299,11.2078 -11.24641,15.5173 -3.37691,2.8918 -6.88962,5.6571 -10.69118,8.0299 -0.97229,-0.2619 -1.93589,-0.6853 -2.90733,-1.0058 5.72274,-8.2319 11.5828,-16.3452 17.46845,-24.4345 z m 26.65141,70.9779 c -0.79523,2.8956 -4.32886,3.8274 -7.48082,2.2936 -13.77564,-6.9648 -26.68636,-17.2249 -37.11991,-29.4577 -1.26814,-1.5367 -2.74825,-3.0459 -3.42388,-4.8723 -1.00326,-2.4787 -0.56996,-5.1343 1.17955,-6.3702 4.73818,-3.3929 9.32151,-6.9813 14.16453,-10.2414 0.53161,-0.4146 1.44371,-0.1085 2.02314,0.5094 10.99006,10.0694 22.5284,19.4658 34.45813,28.1294 0.72594,0.4895 1.0661,1.4249 0.81062,2.0619 -1.53919,5.9823 -3.05951,11.9752 -4.61138,17.9473 z m 22.16727,-31.116 c -5.26614,8.5951 -10.56039,17.1706 -15.99801,25.6351 -0.56262,-0.9321 -1.21198,-1.8258 -1.7244,-2.7761 0.93511,-4.7133 2.29428,-9.2371 3.80281,-13.6545 2.34769,-6.2249 6.08125,-11.5148 10.11487,-16.4413 1.29807,2.4028 2.50744,4.8344 3.80473,7.2368 z m 6.16908,-16.0064 c 0.60327,2.3494 0.61187,4.7646 -0.4196,6.5466 -1.71275,2.8695 -3.46025,5.7109 -5.19758,8.5607 -1.21786,-2.3631 -2.45962,-4.7236 -3.6913,-7.0822 2.48517,-2.8593 5.08725,-5.6099 7.84562,-8.1959 0.32189,-0.3223 1.16662,-0.6657 1.46276,0.1709 z m -42.38043,-33.581 c -1.42609,3.6739 -3.04011,7.2312 -4.78264,10.697 -2.40191,-0.6084 -4.80808,-1.2267 -7.2095,-1.8185 1.95404,-2.673 3.89772,-5.3541 5.87595,-8.0068 1.2379,-1.6136 3.32885,-2.3144 5.5383,-2.367 0.81061,0.067 0.76187,1.0602 0.57819,1.4952 z m 50.83361,15.1034 c -4.22541,4.0531 -8.42368,8.1336 -12.64878,12.1867 -0.40647,0.5574 -1.40991,0.4208 -1.99219,-0.2831 -5.34908,-5.3757 -10.97341,-10.4752 -16.91081,-15.0952 -4.01682,-3.1386 -8.17799,-6.0326 -12.3836,-8.8149 -0.76944,-0.4122 -1.08146,-1.4123 -0.74905,-1.9835 2.27552,-5.6447 4.54353,-11.2893 6.81792,-16.9323 0,0 18.68077,5.1477 33.7963,25.0432 1.48309,1.8855 2.84502,3.8549 4.0702,5.879 z"
     />
		<path
     id="path24-0"
     name=""
     fill="#0071bc"
     space_id="1"
     d="m 508.04724,1173.6549 c -2.8472,-1.2642 -5.98181,-2.667 -8.6703,-2.0503 -3.55327,0.8818 -6.83612,2.2874 -9.9661,3.8884 -2.8971,1.5192 -5.24742,3.7571 -7.29386,6.23 -3.91669,4.8466 -7.46979,10.0343 -10.28967,15.7508 -0.51159,1.0341 -0.65333,2.2925 -1.27506,3.2579 -1.83231,3.0018 -3.77757,5.9169 -5.62384,8.911 -1.551,0.3825 -2.37275,1.768 -3.17302,2.9907 -0.56009,1.0325 -1.25627,2.1241 -0.96583,3.5528 -3.71603,5.8449 -7.41074,11.7035 -11.1365,17.5403 -1.04903,-1.4077 -1.89178,-2.971 -3.08883,-4.273 -0.96522,0.1477 -1.14217,1.4192 -1.15179,2.3525 -0.017,1.7511 1.5395,3.3113 2.34407,4.9459 -3.34353,5.3288 -6.73744,10.6182 -10.09897,15.9334 -0.36972,0.6292 -0.94144,1.0705 -1.46423,1.5567 -1.21195,1.1037 -2.03487,2.565 -2.99077,3.9001 -3.11267,4.3452 -5.95004,8.9211 -8.44215,13.743 -1.0957,2.1216 -1.21549,4.8561 -0.52934,7.5917 0.93372,4.4155 2.15127,8.8516 3.67068,13.2639 0.55413,1.5908 1.6714,3.0624 2.96029,4.2796 3.30557,3.213 6.85095,6.1483 10.39193,9.0557 5.19522,4.2011 10.46251,8.3195 15.93892,12.0344 1.82122,1.2277 3.79431,2.5047 5.78998,2.6202 4.46636,0.2483 8.82528,0.046 13.08281,-0.407 1.55194,-0.1345 3.00623,-0.566 4.2094,-1.3425 1.40882,-0.867 2.32918,-2.2576 3.31624,-3.549 3.39956,-4.421 6.37184,-9.2055 9.19865,-14.0843 0.75055,-1.1814 0.9168,-2.7396 1.72982,-3.872 3.42396,-5.1911 6.89784,-10.3428 10.30691,-15.5459 0.92909,0.2975 1.85593,0.6394 2.78192,0.9128 1.42995,0.4252 2.81324,0.033 3.55457,-0.9363 0.21542,-0.2624 0.51381,-0.642 0.19944,-1.0802 -1.50788,-0.741 -3.07182,-1.1859 -4.6023,-1.7989 3.83089,-5.7722 7.62055,-11.574 11.48762,-17.3148 0.93452,-0.089 1.54821,-0.7161 2.08595,-1.3421 0.87128,-1.0832 1.6601,-2.2773 2.06927,-3.6935 0.18795,-0.5753 -0.0648,-1.3639 0.36144,-1.8062 1.85218,-2.7596 3.66621,-5.553 5.52575,-8.3068 0.65341,-0.9738 1.68666,-1.563 2.43047,-2.4436 3.12584,-3.7957 5.88896,-7.9201 8.2733,-12.3199 2.16244,-3.8076 4.19625,-7.8231 4.7968,-12.5444 0.36247,-3.226 0.50891,-6.5373 0.37022,-9.9189 -0.0723,-1.3766 -0.11452,-2.7749 -0.60402,-4.1977 -0.6496,-1.9205 -1.93274,-3.6871 -3.17989,-5.3944 -3.41019,-4.5037 -7.50174,-8.5192 -11.76184,-12.2228 -6.3872,-5.441 -13.25723,-10.4096 -20.56812,-13.8673 z m -79.3103,117.6676 c -1.88259,-4.7466 -2.95301,-9.5488 -3.91441,-14.3053 -0.42703,-1.682 0.31825,-3.0999 1.18979,-4.1426 0.45671,-0.4428 1.16528,0.2587 1.24077,0.8569 1.67337,6.5561 2.70073,13.1043 2.96444,19.483 -0.55972,-0.5766 -1.18011,-1.1585 -1.48059,-1.892 z m 52.0461,25.2475 c -0.6583,1.0908 -1.52105,2.2545 -2.98456,2.357 -3.57201,0.4175 -7.17179,0.8069 -10.91955,0.6705 -1.56847,-0.093 -3.25145,0.1141 -4.80185,-1.1246 5.60047,-1.7345 11.55145,-2.8131 17.75205,-3.1274 0.66635,-0.1272 1.32667,0.6779 0.95383,1.2245 z m -12.0907,-103.2427 c 2.46789,0.6293 4.93419,1.158 7.40273,1.7879 -2.99391,5.7521 -6.39301,11.2999 -11.02456,15.6758 -3.33554,2.9395 -6.80857,5.7544 -10.57599,8.1811 -0.97583,-0.2481 -1.94544,-0.6578 -2.92135,-0.9644 5.60518,-8.3124 11.34926,-16.5083 17.11917,-24.6804 z m 27.65819,70.5915 c -0.75396,2.9067 -4.27398,3.8887 -7.44734,2.3998 -13.8733,-6.7681 -26.92864,-16.8436 -37.53521,-28.9268 -1.28987,-1.5184 -2.7912,-3.0064 -3.49283,-4.823 -1.03842,-2.4641 -0.64284,-5.1258 1.08883,-6.3864 4.68953,-3.46 9.22135,-7.1132 14.01744,-10.4418 0.52566,-0.422 1.44201,-0.129 2.03027,0.4805 11.13207,9.9123 22.80288,19.1436 34.85463,27.6366 0.73292,0.479 1.08636,1.4094 0.83986,2.05 -1.45396,6.0037 -2.88879,12.0176 -4.35567,18.0111 z m 21.72258,-31.4281 c -5.14335,8.6691 -10.3152,17.3192 -15.6318,25.8601 -0.57591,-0.924 -1.23791,-1.8083 -1.76371,-2.7514 0.86799,-4.7261 2.16259,-9.2686 3.60814,-13.7071 2.25892,-6.2576 5.91694,-11.6001 9.88,-16.5835 1.33214,2.384 2.57596,4.7982 3.90737,7.1819 z m 5.94071,-16.0924 c 0.63672,2.3405 0.67958,4.7553 -0.32635,6.5519 -1.67186,2.8935 -3.37877,5.7595 -5.07539,8.6337 -1.25127,-2.3455 -2.52647,-4.6881 -3.79167,-7.0289 2.44426,-2.8944 5.00705,-5.6818 7.72827,-8.3067 0.31727,-0.3269 1.15713,-0.6823 1.46514,0.15 z m -42.85375,-32.9748 c -1.37369,3.6937 -2.93695,7.2736 -4.63002,10.7638 -2.41032,-0.5741 -4.82504,-1.1582 -7.23453,-1.7158 1.91573,-2.7004 3.82117,-5.409 5.76147,-8.0896 1.21474,-1.6309 3.2955,-2.3613 5.50397,-2.4455 0.81166,0.053 0.77698,1.0493 0.59942,1.487 z m 51.04328,14.3788 c -4.16734,4.1128 -8.30715,8.2526 -12.47417,12.3653 -0.39851,0.5632 -1.40369,0.4408 -1.99602,-0.2546 -5.42491,-5.2992 -11.12129,-10.3181 -17.12379,-14.8532 -4.06097,-3.0812 -8.26296,-5.9157 -12.50763,-8.6379 -0.77531,-0.4012 -1.10152,-1.3968 -0.77726,-1.9727 2.195,-5.6764 4.38259,-11.3527 6.5765,-17.0276 0,0 18.75208,4.8816 34.14896,24.5601 1.50985,1.8642 2.89956,3.8139 4.15349,5.8205 z"

			style="stroke-width:0.742267" /><path
     id="path24-1"
     name=""
     fill="#0071bc"
     space_id="1"
     d="m 352.38677,1170.7939 c -2.86197,-1.2306 -6.01277,-2.5965 -8.6939,-1.9482 -3.54257,0.9236 -6.80865,2.3677 -9.91959,4.0052 -2.87903,1.5532 -5.20286,3.8187 -7.22009,6.3155 -3.85941,4.8924 -7.35125,10.1214 -10.10378,15.8707 -0.49931,1.0401 -0.62624,2.3001 -1.23658,3.2728 -1.79688,3.023 -3.7077,5.9608 -5.51864,8.9764 -1.54648,0.4009 -2.35179,1.7959 -3.13762,3.0278 -0.54791,1.0391 -1.23119,2.1387 -0.92398,3.5638 -3.64703,5.8884 -7.27258,11.79 -10.92943,17.6702 -1.06561,-1.3952 -1.92659,-2.9485 -3.13888,-4.2364 -0.96341,0.1591 -1.12539,1.4325 -1.12403,2.3659 0.004,1.7512 1.57924,3.2925 2.40207,4.918 -3.28063,5.3678 -6.61217,10.6968 -9.91087,16.0511 -0.36239,0.6335 -0.92877,1.0815 -1.44582,1.5737 -1.19887,1.118 -2.00455,2.5889 -2.94469,3.9351 -3.06135,4.3815 -5.8447,8.9905 -8.27992,13.8414 -1.07068,2.1342 -1.15839,4.87 -0.44003,7.5974 0.9855,4.4041 2.25524,8.8256 3.82642,13.2197 0.57282,1.5843 1.70732,3.0426 3.01042,4.2446 3.34314,3.1738 6.9228,6.0672 10.49772,8.9329 5.24429,4.1396 10.55965,8.1958 16.07928,11.8461 1.83563,1.2061 3.8236,2.4598 5.82048,2.5518 4.46897,0.1958 8.82521,-0.058 13.07704,-0.5607 1.55033,-0.1528 2.99944,-0.6013 4.19339,-1.3919 1.39854,-0.8836 2.30248,-2.285 3.27428,-3.5879 3.34733,-4.4607 6.26313,-9.2799 9.03235,-14.1915 0.73662,-1.1902 0.88454,-2.7502 1.68416,-3.8921 3.36268,-5.2311 6.77573,-10.4232 10.12327,-15.666 0.93262,0.2865 1.86342,0.6175 2.79247,0.8799 1.43494,0.4085 2.81353,10e-5 3.54342,-0.9779 0.21231,-0.265 0.50621,-0.648 0.1867,-1.0825 -1.51648,-0.7233 -3.08554,-1.1498 -4.62313,-1.7447 3.76263,-5.8168 7.4839,-11.6628 11.28318,-17.4487 0.93342,-0.099 1.53958,-0.7342 2.07001,-1.3666 0.85848,-1.0933 1.6332,-2.2966 2.02568,-3.7175 0.18119,-0.5775 -0.081,-1.363 0.34009,-1.8102 1.81969,-2.7813 3.60064,-5.5959 5.42776,-8.3714 0.64192,-0.9815 1.66816,-1.5826 2.40156,-2.472 3.08098,-3.8322 5.7953,-7.9888 8.12783,-12.4164 2.11751,-3.8326 4.10394,-7.8718 4.64892,-12.5999 0.32451,-3.2299 0.43204,-6.5427 0.25354,-9.9226 -0.0885,-1.3756 -0.14718,-2.7733 -0.65334,-4.1903 -0.67216,-1.9127 -1.97607,-3.664 -3.24313,-5.3565 -3.46292,-4.4633 -7.60141,-8.4304 -11.90487,-12.0837 -6.45076,-5.3654 -13.37866,-10.253 -20.72972,-13.6244 z m -77.92086,118.5923 c -1.9383,-4.7242 -3.06512,-9.5135 -4.08249,-14.2582 -0.44677,-1.6769 0.28186,-3.1036 1.14108,-4.1564 0.45148,-0.4482 1.16823,0.2449 1.25075,0.8422 1.75038,6.5359 2.85468,13.0717 3.1933,19.4469 -0.56637,-0.57 -1.19365,-1.1446 -1.50264,-1.8745 z m 52.33945,24.6335 c -0.64544,1.0986 -1.49444,2.2723 -2.95665,2.392 -3.56684,0.4595 -7.16179,0.8912 -10.91099,0.7989 -1.56922,-0.077 -3.24989,0.1522 -4.81465,-1.0681 5.57958,-1.8003 11.51756,-2.9487 17.71394,-3.3359 0.6649,-0.1351 1.33455,0.6623 0.96827,1.2132 z M 313.5012,1210.9264 c 2.47512,0.6002 4.94746,1.0998 7.42315,1.7007 -2.92595,5.7868 -6.25957,11.3743 -10.83933,15.8044 -3.30073,2.9785 -6.74043,5.8341 -10.47903,8.3049 -0.97868,-0.2365 -1.95305,-0.6348 -2.9325,-0.93 5.50694,-8.3777 11.15423,-16.6405 16.82771,-24.88 z m 28.48655,70.2615 c -0.71974,2.9152 -4.22797,3.9386 -7.41861,2.487 -13.95203,-6.6044 -27.12489,-16.5257 -37.87285,-28.4832 -1.30762,-1.5031 -2.82644,-2.9734 -3.5493,-4.7817 -1.06733,-2.4518 -0.70308,-5.1178 1.01364,-6.3988 4.64851,-3.5149 9.13697,-7.221 13.89365,-10.6059 0.52067,-0.4281 1.4404,-0.1459 2.03579,0.4567 11.24789,9.7805 23.02646,18.874 35.17727,27.2247 0.73841,0.4703 1.10276,1.3966 0.8639,2.04 -1.38324,6.0205 -2.74732,12.0507 -4.14351,18.0611 z m 21.35133,-31.6815 c -5.04095,8.729 -10.11069,17.4392 -15.32647,26.042 -0.58673,-0.9171 -1.2591,-1.7936 -1.79604,-2.7303 0.81243,-4.7361 2.05352,-9.2935 3.44676,-13.7487 2.18517,-6.2837 5.78011,-11.669 9.68428,-16.6985 1.36007,2.3682 2.6322,4.7676 3.99147,7.1355 z m 5.75113,-16.1613 c 0.66411,2.3329 0.73546,4.7471 -0.24936,6.5553 -1.63762,2.9131 -3.31071,5.7989 -4.97341,8.6928 -1.27877,-2.3306 -2.58151,-4.658 -3.87407,-6.9839 2.41004,-2.9229 4.93979,-5.7402 7.63003,-8.397 0.3134,-0.3306 1.14902,-0.6958 1.4668,0.1328 z m -43.23863,-32.4686 c -1.33014,3.7098 -2.8512,7.3078 -4.50309,10.8177 -2.41691,-0.5457 -4.83833,-1.1014 -7.25422,-1.6307 1.88383,-2.7227 3.7572,-5.4534 5.66593,-8.1568 1.19548,-1.645 3.2675,-2.3999 5.47483,-2.5099 0.81209,0.045 0.78927,1.04 0.61685,1.4797 z m 51.20887,13.7776 c -4.11868,4.1615 -8.20951,8.3497 -12.32787,12.5112 -0.39186,0.5678 -1.3985,0.4573 -1.99888,-0.2312 -5.48686,-5.235 -11.24187,-10.1866 -17.2973,-14.6507 -4.09701,-3.0331 -8.33197,-5.8181 -12.60836,-8.4902 -0.77998,-0.3921 -1.11787,-1.3838 -0.80041,-1.9634 2.12808,-5.7019 4.24876,-11.4035 6.37567,-17.1037 0,0 18.80822,4.6606 34.43557,24.1566 1.53167,1.8463 2.94421,3.7797 4.22157,5.7714 z"

			style="stroke-width:0.742267" /><path
     id="path24-8"
     name=""
     fill="#0071bc"
     space_id="1"
     d="m 979.75731,783.75079 c 2.32178,-2.07704 4.88808,-4.35913 5.42968,-7.06375 0.655,-3.60196 0.7214,-7.17244 0.5469,-10.68378 -0.1956,-3.26537 -1.2711,-6.32736 -2.6856,-9.20876 -2.81087,-5.56143 -6.082,-10.93131 -10.13641,-15.84985 -0.73284,-0.89105 -1.82213,-1.53705 -2.44704,-2.50035 -1.98462,-2.90333 -3.84387,-5.87401 -5.81581,-8.7869 0.28806,-1.57136 -0.63782,-2.88954 -1.42395,-4.12117 -0.71152,-0.93475 -1.42097,-2.01775 -2.84285,-2.33954 -3.80362,-5.7884 -7.62832,-11.5629 -11.42048,-17.35676 1.71426,-0.37859 3.48574,-0.50506 5.16454,-1.06187 0.26154,-0.94078 -0.82505,-1.62414 -1.67208,-2.01615 -1.5897,-0.73458 -3.65146,0.0445 -5.47229,0.10639 -3.48594,-5.23678 -6.91515,-10.50336 -10.38123,-15.75089 -0.42194,-0.59556 -0.58956,-1.298 -0.81813,-1.97428 -0.50881,-1.55835 -1.50333,-2.90874 -2.32812,-4.32854 -2.68385,-4.6224 -5.69111,-9.08851 -9.06443,-13.34079 -1.48446,-1.87021 -3.92864,-3.10236 -6.70479,-3.60004 -4.40941,-0.96171 -8.95423,-1.67305 -13.60129,-2.09948 -1.67814,-0.14802 -3.47865,0.26654 -5.11773,0.94191 -4.28699,1.69473 -8.41921,3.72208 -12.52427,5.75693 -5.9638,3.01199 -11.88192,6.12356 -17.51788,9.59153 -1.86723,1.15657 -3.8418,2.43125 -4.76666,4.20342 -2.06036,3.97056 -3.66568,8.02811 -5.00099,12.09607 -0.51462,1.47038 -0.71836,2.97355 -0.5044,4.38947 0.21206,1.6406 1.10212,3.05076 1.87432,4.48106 2.63515,4.91512 5.77727,9.58992 9.06493,14.1707 0.76907,1.1695 2.12153,1.96091 2.82022,3.16725 3.32737,5.25361 6.59822,10.53647 9.94256,15.78133 -0.65275,0.72506 -1.34509,1.42977 -1.97451,2.1618 -0.97495,1.12924 -1.18546,2.55156 -0.60599,3.62552 0.15089,0.30426 0.37438,0.73211 0.90306,0.62546 1.29485,-1.07066 2.34274,-2.31393 3.5301,-3.45771 3.69003,5.86313 7.42404,11.70097 11.07057,17.58428 -0.30289,0.88846 0.0172,1.70565 0.36726,2.45309 0.62983,1.23917 1.39477,2.44882 2.51805,3.40344 0.44734,0.40753 1.27017,0.50082 1.4984,1.07111 1.7557,2.82206 3.55791,5.62311 5.30525,8.44949 0.61969,0.99567 0.73255,2.17965 1.23004,3.21949 2.17747,4.40874 4.80353,8.62172 7.83617,12.6025 2.58382,3.53519 5.41006,7.03846 9.46845,9.5248 2.79248,1.65507 5.75165,3.14838 8.89207,4.41051 1.28481,0.49928 2.57715,1.03499 4.07543,1.17285 2.0179,0.19631 4.15551,-0.24834 6.22435,-0.68435 5.5068,-1.26012 10.84831,-3.34193 15.97457,-5.70559 7.58382,-3.58969 14.93523,-7.81356 21.08999,-13.05983 z M 905.03406,663.11817 c 5.101,0.23255 9.91924,1.22839 14.65097,2.30487 1.70899,0.30131 2.69588,1.56313 3.28868,2.78598 0.21629,0.59825 -0.71433,0.95625 -1.29075,0.77949 -6.66503,-1.16632 -13.05757,-2.91838 -18.98201,-5.29726 0.75556,-0.27354 1.54096,-0.6003 2.33311,-0.57309 z m -44.3921,37.08874 c -0.72438,-1.04818 -1.43118,-2.3127 -0.92362,-3.68921 1.08607,-3.4284 2.20916,-6.87061 3.87248,-10.23185 0.73099,-1.39074 1.23096,-3.01161 2.9971,-3.91657 -0.71807,5.81876 -2.17828,11.68783 -4.43779,17.47056 -0.15766,0.65989 -1.16288,0.93131 -1.5082,0.36696 z m 99.10192,31.36951 c -1.58724,1.99174 -3.08199,4.02351 -4.66995,6.01562 -4.01541,-5.09172 -7.67822,-10.46913 -9.76632,-16.48908 -1.31063,-4.24835 -2.45117,-8.57096 -3.11684,-13.00255 0.62688,-0.78794 1.39855,-1.50378 2.07891,-2.2677 5.27768,8.52404 10.39206,17.12694 15.4742,25.74371 z m -75.72291,-3.7677 c -2.34069,-1.88099 -1.79066,-5.4938 0.86999,-7.77596 11.86791,-9.87061 26.4156,-17.6373 41.78839,-22.34674 1.91417,-0.55263 3.88744,-1.31058 5.83196,-1.20431 2.67321,0.0648 4.93761,1.51855 5.37603,3.61519 1.22922,5.69666 2.69929,11.32885 3.76495,17.06881 0.16897,0.6526 -0.4745,1.36778 -1.2718,1.65385 -13.6091,6.08015 -26.81857,12.93105 -39.51129,20.43245 -0.7377,0.47154 -1.73121,0.41173 -2.2141,-0.0759 -4.87721,-3.79099 -9.77146,-7.56877 -14.63408,-11.36732 z m 19.73657,32.71183 c -5.7926,-8.24948 -11.55602,-16.51707 -17.16055,-24.87188 1.07899,-0.14565 2.15715,-0.38615 3.2329,-0.47843 3.95289,2.73213 7.56322,5.77789 11.01668,8.91845 4.7781,4.62924 8.14743,10.15837 11.06392,15.81823 -2.72078,0.23566 -5.4328,0.37849 -8.15295,0.61363 z m 12.23376,12.02476 c -2.39554,-0.38057 -4.61497,-1.33298 -5.83998,-2.98796 -1.95192,-2.71253 -3.86421,-5.44577 -5.78824,-8.17294 2.65242,-0.17784 5.31204,-0.37866 7.96598,-0.57099 1.63548,3.41718 3.12462,6.89842 4.40069,10.45759 0.16775,0.42351 0.14689,1.33515 -0.73844,1.27426 z m 47.66342,-25.53403 c -2.80396,-2.76929 -5.42625,-5.66469 -7.91341,-8.64157 1.51321,-1.96203 3.03735,-3.92393 4.53522,-5.89194 1.67556,2.85562 3.36284,5.70517 5.01029,8.5751 0.9883,1.77735 0.79993,3.97455 -0.0303,6.02276 -0.38369,0.71717 -1.27577,0.27753 -1.60186,-0.0643 z m -34.07034,40.63725 c -2.03881,-5.48861 -4.11361,-10.96324 -6.15256,-16.45155 -0.34984,-0.59457 0.17446,-1.46093 1.05184,-1.71537 7.0594,-2.77054 13.97474,-5.90359 20.57463,-9.51453 4.47696,-2.43763 8.7869,-5.1051 13.01199,-7.85761 0.68416,-0.54219 1.72594,-0.43075 2.11783,0.10131 4.27451,4.33232 8.55196,8.65778 12.82536,12.98836 0,0 -12.15102,15.09381 -36.41629,21.05239 -2.31976,0.61113 -4.66826,1.07769 -7.01276,1.39701 z"

			style="stroke-width:0.742267" /><path
     id="path24-5"
     name=""
     fill="#0071bc"
     space_id="1"
     d="m 832.36511,786.24896 c 2.32178,-2.07704 4.88808,-4.35913 5.42972,-7.06375 0.655,-3.60196 0.72135,-7.17244 0.54688,-10.68378 -0.19558,-3.26537 -1.27108,-6.32736 -2.68559,-9.20876 -2.8109,-5.56143 -6.08203,-10.93131 -10.13644,-15.84985 -0.73284,-0.89105 -1.82213,-1.53705 -2.44704,-2.50035 -1.98462,-2.90333 -3.84387,-5.87401 -5.81581,-8.7869 0.28806,-1.57136 -0.63782,-2.88954 -1.42395,-4.12117 -0.71152,-0.93475 -1.42097,-2.01775 -2.84285,-2.33954 -3.80362,-5.7884 -7.62832,-11.5629 -11.42048,-17.35676 1.71426,-0.37859 3.48574,-0.50506 5.16454,-1.06187 0.26154,-0.94078 -0.82505,-1.62414 -1.67208,-2.01615 -1.5897,-0.73458 -3.65146,0.0445 -5.47229,0.10639 -3.48594,-5.23678 -6.91515,-10.50336 -10.38123,-15.75089 -0.42194,-0.59556 -0.58956,-1.298 -0.81813,-1.97428 -0.50881,-1.55835 -1.50333,-2.90874 -2.32812,-4.32854 -2.68385,-4.6224 -5.69111,-9.08851 -9.06443,-13.34079 -1.48446,-1.87021 -3.92864,-3.10236 -6.70479,-3.60004 -4.40941,-0.96171 -8.95423,-1.67305 -13.60129,-2.09948 -1.67814,-0.14802 -3.47865,0.26654 -5.11773,0.94191 -4.28699,1.69473 -8.41921,3.72208 -12.52427,5.75693 -5.9638,3.01199 -11.88192,6.12356 -17.51788,9.59153 -1.86723,1.15657 -3.8418,2.43125 -4.76666,4.20342 -2.06036,3.97056 -3.66568,8.02811 -5.00099,12.09607 -0.51462,1.47038 -0.71836,2.97355 -0.5044,4.38947 0.21206,1.6406 1.10212,3.05076 1.87432,4.48106 2.63515,4.91512 5.77727,9.58992 9.06493,14.1707 0.76907,1.1695 2.12153,1.96091 2.82022,3.16725 3.32737,5.25361 6.59822,10.53647 9.94256,15.78133 -0.65275,0.72506 -1.34509,1.42977 -1.97451,2.1618 -0.97495,1.12924 -1.18546,2.55156 -0.60599,3.62552 0.15089,0.30426 0.37438,0.73211 0.90306,0.62546 1.29485,-1.07066 2.34274,-2.31393 3.5301,-3.45771 3.69003,5.86313 7.42404,11.70097 11.07057,17.58428 -0.30289,0.88846 0.0172,1.70565 0.36726,2.45309 0.62983,1.23917 1.39477,2.44882 2.51805,3.40344 0.44734,0.40753 1.27017,0.50082 1.4984,1.07111 1.7557,2.82206 3.55791,5.62311 5.30525,8.44949 0.61969,0.99567 0.73255,2.17965 1.23004,3.21949 2.17747,4.40874 4.80353,8.62172 7.83617,12.6025 2.58382,3.53519 5.41006,7.03846 9.46845,9.5248 2.79248,1.65507 5.75165,3.14838 8.89207,4.41051 1.28481,0.49928 2.57715,1.03499 4.07543,1.17285 2.0179,0.19631 4.15551,-0.24834 6.22435,-0.68435 5.5068,-1.26012 10.84831,-3.34193 15.97457,-5.70559 7.58382,-3.58969 14.93523,-7.81356 21.08999,-13.05983 z M 757.64186,665.61634 c 5.101,0.23255 9.91924,1.22839 14.65097,2.30487 1.70899,0.30131 2.69588,1.56313 3.28868,2.78598 0.21629,0.59825 -0.71433,0.95625 -1.29075,0.77949 -6.66503,-1.16632 -13.05757,-2.91838 -18.98201,-5.29726 0.75556,-0.27354 1.54096,-0.6003 2.33311,-0.57309 z m -44.3921,37.08874 c -0.72438,-1.04818 -1.43118,-2.3127 -0.92362,-3.68921 1.08607,-3.4284 2.20916,-6.87061 3.87248,-10.23185 0.73099,-1.39074 1.23096,-3.01161 2.9971,-3.91657 -0.71807,5.81876 -2.17828,11.68783 -4.43779,17.47056 -0.15766,0.65989 -1.16288,0.93131 -1.5082,0.36696 z m 99.10192,31.36951 c -1.58724,1.99174 -3.08199,4.02351 -4.66995,6.01562 -4.01541,-5.09172 -7.67822,-10.46913 -9.76632,-16.48908 -1.31063,-4.24835 -2.45117,-8.57096 -3.11684,-13.00255 0.62688,-0.78794 1.39855,-1.50378 2.07891,-2.2677 5.27768,8.52404 10.39206,17.12694 15.4742,25.74371 z m -75.72291,-3.7677 c -2.34069,-1.88099 -1.79066,-5.4938 0.86999,-7.77596 11.86791,-9.87061 26.4156,-17.6373 41.78839,-22.34674 1.91417,-0.55263 3.88744,-1.31058 5.83196,-1.20431 2.67321,0.0648 4.93761,1.51855 5.37603,3.61519 1.22922,5.69666 2.69929,11.32885 3.76495,17.06881 0.16897,0.6526 -0.4745,1.36778 -1.2718,1.65385 -13.6091,6.08015 -26.81857,12.93105 -39.51129,20.43245 -0.7377,0.47154 -1.73121,0.41173 -2.2141,-0.0759 -4.87721,-3.79099 -9.77146,-7.56877 -14.63408,-11.36732 z m 19.73657,32.71183 c -5.7926,-8.24948 -11.55602,-16.51707 -17.16055,-24.87188 1.07899,-0.14565 2.15715,-0.38615 3.2329,-0.47843 3.95289,2.73213 7.56322,5.77789 11.01668,8.91845 4.7781,4.62924 8.14743,10.15837 11.06392,15.81823 -2.72078,0.23566 -5.4328,0.37849 -8.15295,0.61363 z m 12.23376,12.02476 c -2.39554,-0.38057 -4.61497,-1.33298 -5.83998,-2.98796 -1.95192,-2.71253 -3.86421,-5.44577 -5.78824,-8.17294 2.65242,-0.17784 5.31204,-0.37866 7.96598,-0.57099 1.63548,3.41718 3.12462,6.89842 4.40069,10.45759 0.16775,0.42351 0.14689,1.33515 -0.73844,1.27426 z m 47.66342,-25.53403 c -2.80396,-2.76929 -5.42625,-5.66469 -7.91341,-8.64157 1.51321,-1.96203 3.03735,-3.92393 4.53522,-5.89194 1.67556,2.85562 3.36284,5.70517 5.01029,8.5751 0.9883,1.77735 0.79993,3.97455 -0.0303,6.02276 -0.38369,0.71717 -1.27577,0.27753 -1.60186,-0.0643 z m -34.07034,40.63725 c -2.03881,-5.48861 -4.11361,-10.96324 -6.15256,-16.45155 -0.34984,-0.59457 0.17446,-1.46093 1.05184,-1.71537 7.0594,-2.77054 13.97474,-5.90359 20.57463,-9.51453 4.47696,-2.43763 8.7869,-5.1051 13.01199,-7.85761 0.68416,-0.54219 1.72594,-0.43075 2.11783,0.10131 4.27451,4.33232 8.55196,8.65778 12.82536,12.98836 0,0 -12.15102,15.09381 -36.41629,21.05239 -2.31976,0.61113 -4.66826,1.07769 -7.01276,1.39701 z"

			style="stroke-width:0.742267" /><path
     id="path24-90"
     name=""
     fill="#0071bc"
     space_id="1"
     d="m 682.47474,783.75078 c 2.32178,-2.07704 4.88808,-4.35913 5.42972,-7.06375 0.655,-3.60196 0.72135,-7.17244 0.54688,-10.68378 -0.19558,-3.26537 -1.27108,-6.32736 -2.68559,-9.20876 -2.8109,-5.56143 -6.08203,-10.93131 -10.13644,-15.84985 -0.73284,-0.89105 -1.82213,-1.53705 -2.44704,-2.50035 -1.98462,-2.90333 -3.84387,-5.87401 -5.81581,-8.7869 0.28806,-1.57136 -0.63782,-2.88954 -1.42395,-4.12117 -0.71152,-0.93475 -1.42097,-2.01775 -2.84285,-2.33954 -3.80362,-5.7884 -7.62832,-11.5629 -11.42048,-17.35676 1.71426,-0.37859 3.48574,-0.50506 5.16454,-1.06187 0.26154,-0.94078 -0.82505,-1.62414 -1.67208,-2.01615 -1.5897,-0.73458 -3.65146,0.0445 -5.47229,0.10639 -3.48594,-5.23678 -6.91515,-10.50336 -10.38123,-15.75089 -0.42194,-0.59556 -0.58956,-1.298 -0.81813,-1.97428 -0.50881,-1.55835 -1.50333,-2.90874 -2.32812,-4.32854 -2.68385,-4.6224 -5.69111,-9.08851 -9.06443,-13.34079 -1.48446,-1.87021 -3.92864,-3.10236 -6.70479,-3.60004 -4.40941,-0.96171 -8.95423,-1.67305 -13.60129,-2.09948 -1.67814,-0.14802 -3.47865,0.26654 -5.11773,0.94191 -4.28699,1.69473 -8.41921,3.72208 -12.52427,5.75693 -5.9638,3.01199 -11.88192,6.12356 -17.51788,9.59153 -1.86723,1.15657 -3.8418,2.43125 -4.76666,4.20342 -2.06036,3.97056 -3.66568,8.02811 -5.00099,12.09607 -0.51462,1.47038 -0.71836,2.97355 -0.5044,4.38947 0.21206,1.6406 1.10212,3.05076 1.87432,4.48106 2.63515,4.91512 5.77727,9.58992 9.06493,14.1707 0.76907,1.1695 2.12153,1.96091 2.82022,3.16725 3.32737,5.25361 6.59822,10.53647 9.94256,15.78133 -0.65275,0.72506 -1.34509,1.42977 -1.97451,2.1618 -0.97495,1.12924 -1.18546,2.55156 -0.60599,3.62552 0.15089,0.30426 0.37438,0.73211 0.90306,0.62546 1.29485,-1.07066 2.34274,-2.31393 3.5301,-3.45771 3.69003,5.86313 7.42404,11.70097 11.07057,17.58428 -0.30289,0.88846 0.0172,1.70565 0.36726,2.45309 0.62983,1.23917 1.39477,2.44882 2.51805,3.40344 0.44734,0.40753 1.27017,0.50082 1.4984,1.07111 1.7557,2.82206 3.55791,5.62311 5.30525,8.44949 0.61969,0.99567 0.73255,2.17965 1.23004,3.21949 2.17747,4.40874 4.80353,8.62172 7.83617,12.6025 2.58382,3.53519 5.41006,7.03846 9.46845,9.5248 2.79248,1.65507 5.75165,3.14838 8.89207,4.41051 1.28481,0.49928 2.57715,1.03499 4.07543,1.17285 2.0179,0.19631 4.15551,-0.24834 6.22435,-0.68435 5.5068,-1.26012 10.84831,-3.34193 15.97457,-5.70559 7.58382,-3.58969 14.93523,-7.81356 21.08999,-13.05983 z M 607.75149,663.11816 c 5.101,0.23255 9.91924,1.22839 14.65097,2.30487 1.70899,0.30131 2.69588,1.56313 3.28868,2.78598 0.21629,0.59825 -0.71433,0.95625 -1.29075,0.77949 -6.66503,-1.16632 -13.05757,-2.91838 -18.98201,-5.29726 0.75556,-0.27354 1.54096,-0.6003 2.33311,-0.57309 z m -44.3921,37.08874 c -0.72438,-1.04818 -1.43118,-2.3127 -0.92362,-3.68921 1.08607,-3.4284 2.20916,-6.87061 3.87248,-10.23185 0.73099,-1.39074 1.23096,-3.01161 2.9971,-3.91657 -0.71807,5.81876 -2.17828,11.68783 -4.43779,17.47056 -0.15766,0.65989 -1.16288,0.93131 -1.5082,0.36696 z m 99.10192,31.36951 c -1.58724,1.99174 -3.08199,4.02351 -4.66995,6.01562 -4.01541,-5.09172 -7.67822,-10.46913 -9.76632,-16.48908 -1.31063,-4.24835 -2.45117,-8.57096 -3.11684,-13.00255 0.62688,-0.78794 1.39855,-1.50378 2.07891,-2.2677 5.27768,8.52404 10.39206,17.12694 15.4742,25.74371 z m -75.72291,-3.7677 c -2.34069,-1.88099 -1.79066,-5.4938 0.86999,-7.77596 11.86791,-9.87061 26.4156,-17.6373 41.78839,-22.34674 1.91417,-0.55263 3.88744,-1.31058 5.83196,-1.20431 2.67321,0.0648 4.93761,1.51855 5.37603,3.61519 1.22922,5.69666 2.69929,11.32885 3.76495,17.06881 0.16897,0.6526 -0.4745,1.36778 -1.2718,1.65385 -13.6091,6.08015 -26.81857,12.93105 -39.51129,20.43245 -0.7377,0.47154 -1.73121,0.41173 -2.2141,-0.0759 -4.87721,-3.79099 -9.77146,-7.56877 -14.63408,-11.36732 z m 19.73657,32.71183 c -5.7926,-8.24948 -11.55602,-16.51707 -17.16055,-24.87188 1.07899,-0.14565 2.15715,-0.38615 3.2329,-0.47843 3.95289,2.73213 7.56322,5.77789 11.01668,8.91845 4.7781,4.62924 8.14743,10.15837 11.06392,15.81823 -2.72078,0.23566 -5.4328,0.37849 -8.15295,0.61363 z m 12.23376,12.02476 c -2.39554,-0.38057 -4.61497,-1.33298 -5.83998,-2.98796 -1.95192,-2.71253 -3.86421,-5.44577 -5.78824,-8.17294 2.65242,-0.17784 5.31204,-0.37866 7.96598,-0.57099 1.63548,3.41718 3.12462,6.89842 4.40069,10.45759 0.16775,0.42351 0.14689,1.33515 -0.73844,1.27426 z m 47.66342,-25.53403 c -2.80396,-2.76929 -5.42625,-5.66469 -7.91341,-8.64157 1.51321,-1.96203 3.03735,-3.92393 4.53522,-5.89194 1.67556,2.85562 3.36284,5.70517 5.01029,8.5751 0.9883,1.77735 0.79993,3.97455 -0.0303,6.02276 -0.38369,0.71717 -1.27577,0.27753 -1.60186,-0.0643 z m -34.07034,40.63725 c -2.03881,-5.48861 -4.11361,-10.96324 -6.15256,-16.45155 -0.34984,-0.59457 0.17446,-1.46093 1.05184,-1.71537 7.0594,-2.77054 13.97474,-5.90359 20.57463,-9.51453 4.47696,-2.43763 8.7869,-5.1051 13.01199,-7.85761 0.68416,-0.54219 1.72594,-0.43075 2.11783,0.10131 4.27451,4.33232 8.55196,8.65778 12.82536,12.98836 0,0 -12.15102,15.09381 -36.41629,21.05239 -2.31976,0.61113 -4.66826,1.07769 -7.01276,1.39701 z"

			style="stroke-width:0.742267" /><path
     id="path24-9-7"
     name=""
     fill="#0071bc"
     space_id="1"
     d="m 531.78495,796.37488 c 2.32178,-2.07704 4.88808,-4.35913 5.42972,-7.06375 0.655,-3.60196 0.72135,-7.17244 0.54688,-10.68378 -0.19558,-3.26537 -1.27108,-6.32736 -2.68559,-9.20876 -2.8109,-5.56143 -6.08203,-10.93131 -10.13644,-15.84985 -0.73284,-0.89105 -1.82213,-1.53705 -2.44704,-2.50035 -1.98462,-2.90333 -3.84387,-5.87401 -5.81581,-8.7869 0.28806,-1.57136 -0.63782,-2.88954 -1.42395,-4.12117 -0.71152,-0.93475 -1.42097,-2.01775 -2.84285,-2.33954 -3.80362,-5.7884 -7.62832,-11.5629 -11.42048,-17.35676 1.71426,-0.37859 3.48574,-0.50506 5.16454,-1.06187 0.26154,-0.94078 -0.82505,-1.62414 -1.67208,-2.01615 -1.5897,-0.73458 -3.65146,0.0445 -5.47229,0.10639 -3.48594,-5.23678 -6.91515,-10.50336 -10.38123,-15.75089 -0.42194,-0.59556 -0.58956,-1.298 -0.81813,-1.97428 -0.50881,-1.55835 -1.50333,-2.90874 -2.32812,-4.32854 -2.68385,-4.6224 -5.69111,-9.08851 -9.06443,-13.34079 -1.48446,-1.87021 -3.92864,-3.10236 -6.70479,-3.60004 -4.40941,-0.96171 -8.95423,-1.67305 -13.60129,-2.09948 -1.67814,-0.14802 -3.47865,0.26654 -5.11773,0.94191 -4.28699,1.69473 -8.41921,3.72208 -12.52427,5.75693 -5.9638,3.01199 -11.88192,6.12356 -17.51788,9.59153 -1.86723,1.15657 -3.8418,2.43125 -4.76666,4.20342 -2.06036,3.97056 -3.66568,8.02811 -5.00099,12.09607 -0.51462,1.47038 -0.71836,2.97355 -0.5044,4.38947 0.21206,1.6406 1.10212,3.05076 1.87432,4.48106 2.63515,4.91512 5.77727,9.58992 9.06493,14.1707 0.76907,1.1695 2.12153,1.96091 2.82022,3.16725 3.32737,5.25361 6.59822,10.53647 9.94256,15.78133 -0.65275,0.72506 -1.34509,1.42977 -1.97451,2.1618 -0.97495,1.12924 -1.18546,2.55156 -0.60599,3.62552 0.15089,0.30426 0.37438,0.73211 0.90306,0.62546 1.29485,-1.07066 2.34274,-2.31393 3.5301,-3.45771 3.69003,5.86313 7.42404,11.70097 11.07057,17.58428 -0.30289,0.88846 0.0172,1.70565 0.36726,2.45309 0.62983,1.23917 1.39477,2.44882 2.51805,3.40344 0.44734,0.40753 1.27017,0.50082 1.4984,1.07111 1.7557,2.82206 3.55791,5.62311 5.30525,8.44949 0.61969,0.99567 0.73255,2.17965 1.23004,3.21949 2.17747,4.40874 4.80353,8.62172 7.83617,12.6025 2.58382,3.53519 5.41006,7.03846 9.46845,9.5248 2.79248,1.65507 5.75165,3.14838 8.89207,4.41051 1.28481,0.49928 2.57715,1.03499 4.07543,1.17285 2.0179,0.19631 4.15551,-0.24834 6.22435,-0.68435 5.5068,-1.26012 10.84831,-3.34193 15.97457,-5.70559 7.58382,-3.58969 14.93523,-7.81356 21.08999,-13.05983 z M 457.0617,675.74226 c 5.101,0.23255 9.91924,1.22839 14.65097,2.30487 1.70899,0.30131 2.69588,1.56313 3.28868,2.78598 0.21629,0.59825 -0.71433,0.95625 -1.29075,0.77949 -6.66503,-1.16632 -13.05757,-2.91838 -18.98201,-5.29726 0.75556,-0.27354 1.54096,-0.6003 2.33311,-0.57309 z M 412.6696,712.831 c -0.72438,-1.04818 -1.43118,-2.3127 -0.92362,-3.68921 1.08607,-3.4284 2.20916,-6.87061 3.87248,-10.23185 0.73099,-1.39074 1.23096,-3.01161 2.9971,-3.91657 -0.71807,5.81876 -2.17828,11.68783 -4.43779,17.47056 -0.15766,0.65989 -1.16288,0.93131 -1.5082,0.36696 z m 99.10192,31.36951 c -1.58724,1.99174 -3.08199,4.02351 -4.66995,6.01562 -4.01541,-5.09172 -7.67822,-10.46913 -9.76632,-16.48908 -1.31063,-4.24835 -2.45117,-8.57096 -3.11684,-13.00255 0.62688,-0.78794 1.39855,-1.50378 2.07891,-2.2677 5.27768,8.52404 10.39206,17.12694 15.4742,25.74371 z m -75.72291,-3.7677 c -2.34069,-1.88099 -1.79066,-5.4938 0.86999,-7.77596 11.86791,-9.87061 26.4156,-17.6373 41.78839,-22.34674 1.91417,-0.55263 3.88744,-1.31058 5.83196,-1.20431 2.67321,0.0648 4.93761,1.51855 5.37603,3.61519 1.22922,5.69666 2.69929,11.32885 3.76495,17.06881 0.16897,0.6526 -0.4745,1.36778 -1.2718,1.65385 -13.6091,6.08015 -26.81857,12.93105 -39.51129,20.43245 -0.7377,0.47154 -1.73121,0.41173 -2.2141,-0.0759 -4.87721,-3.79099 -9.77146,-7.56877 -14.63408,-11.36732 z m 19.73657,32.71183 c -5.7926,-8.24948 -11.55602,-16.51707 -17.16055,-24.87188 1.07899,-0.14565 2.15715,-0.38615 3.2329,-0.47843 3.95289,2.73213 7.56322,5.77789 11.01668,8.91845 4.7781,4.62924 8.14743,10.15837 11.06392,15.81823 -2.72078,0.23566 -5.4328,0.37849 -8.15295,0.61363 z m 12.23376,12.02476 c -2.39554,-0.38057 -4.61497,-1.33298 -5.83998,-2.98796 -1.95192,-2.71253 -3.86421,-5.44577 -5.78824,-8.17294 2.65242,-0.17784 5.31204,-0.37866 7.96598,-0.57099 1.63548,3.41718 3.12462,6.89842 4.40069,10.45759 0.16775,0.42351 0.14689,1.33515 -0.73844,1.27426 z m 47.66342,-25.53403 c -2.80396,-2.76929 -5.42625,-5.66469 -7.91341,-8.64157 1.51321,-1.96203 3.03735,-3.92393 4.53522,-5.89194 1.67556,2.85562 3.36284,5.70517 5.01029,8.5751 0.9883,1.77735 0.79993,3.97455 -0.0303,6.02276 -0.38369,0.71717 -1.27577,0.27753 -1.60186,-0.0643 z m -34.07034,40.63725 c -2.03881,-5.48861 -4.11361,-10.96324 -6.15256,-16.45155 -0.34984,-0.59457 0.17446,-1.46093 1.05184,-1.71537 7.0594,-2.77054 13.97474,-5.90359 20.57463,-9.51453 4.47696,-2.43763 8.7869,-5.1051 13.01199,-7.85761 0.68416,-0.54219 1.72594,-0.43075 2.11783,0.10131 4.27451,4.33232 8.55196,8.65778 12.82536,12.98836 0,0 -12.15102,15.09381 -36.41629,21.05239 -2.31976,0.61113 -4.66826,1.07769 -7.01276,1.39701 z"

			style="stroke-width:0.742267" /><path
     id="path24-9"
     name=""
     fill="#0071bc"
     space_id="1"
     d="m 382.69398,796.24164 c 2.32178,-2.07704 4.88808,-4.35913 5.42972,-7.06375 0.655,-3.60196 0.72135,-7.17244 0.54688,-10.68378 -0.19558,-3.26537 -1.27108,-6.32736 -2.68559,-9.20876 -2.8109,-5.56143 -6.08203,-10.93131 -10.13644,-15.84985 -0.73284,-0.89105 -1.82213,-1.53705 -2.44704,-2.50035 -1.98462,-2.90333 -3.84387,-5.87401 -5.81581,-8.7869 0.28806,-1.57136 -0.63782,-2.88954 -1.42395,-4.12117 -0.71152,-0.93475 -1.42097,-2.01775 -2.84285,-2.33954 -3.80362,-5.7884 -7.62832,-11.5629 -11.42048,-17.35676 1.71426,-0.37859 3.48574,-0.50506 5.16454,-1.06187 0.26154,-0.94078 -0.82505,-1.62414 -1.67208,-2.01615 -1.5897,-0.73458 -3.65146,0.0445 -5.47229,0.10639 -3.48594,-5.23678 -6.91515,-10.50336 -10.38123,-15.75089 -0.42194,-0.59556 -0.58956,-1.298 -0.81813,-1.97428 -0.50881,-1.55835 -1.50333,-2.90874 -2.32812,-4.32854 -2.68385,-4.6224 -5.69111,-9.08851 -9.06443,-13.34079 -1.48446,-1.87021 -3.92864,-3.10236 -6.70479,-3.60004 -4.40941,-0.96171 -8.95423,-1.67305 -13.60129,-2.09948 -1.67814,-0.14802 -3.47865,0.26654 -5.11773,0.94191 -4.28699,1.69473 -8.41921,3.72208 -12.52427,5.75693 -5.9638,3.01199 -11.88192,6.12356 -17.51788,9.59153 -1.86723,1.15657 -3.8418,2.43125 -4.76666,4.20342 -2.06036,3.97056 -3.66568,8.02811 -5.00099,12.09607 -0.51462,1.47038 -0.71836,2.97355 -0.5044,4.38947 0.21206,1.6406 1.10212,3.05076 1.87432,4.48106 2.63515,4.91512 5.77727,9.58992 9.06493,14.1707 0.76907,1.1695 2.12153,1.96091 2.82022,3.16725 3.32737,5.25361 6.59822,10.53647 9.94256,15.78133 -0.65275,0.72506 -1.34509,1.42977 -1.97451,2.1618 -0.97495,1.12924 -1.18546,2.55156 -0.60599,3.62552 0.15089,0.30426 0.37438,0.73211 0.90306,0.62546 1.29485,-1.07066 2.34274,-2.31393 3.5301,-3.45771 3.69003,5.86313 7.42404,11.70097 11.07057,17.58428 -0.30289,0.88846 0.0172,1.70565 0.36726,2.45309 0.62983,1.23917 1.39477,2.44882 2.51805,3.40344 0.44734,0.40753 1.27017,0.50082 1.4984,1.07111 1.7557,2.82206 3.55791,5.62311 5.30525,8.44949 0.61969,0.99567 0.73255,2.17965 1.23004,3.21949 2.17747,4.40874 4.80353,8.62172 7.83617,12.6025 2.58382,3.53519 5.41006,7.03846 9.46845,9.5248 2.79248,1.65507 5.75165,3.14838 8.89207,4.41051 1.28481,0.49928 2.57715,1.03499 4.07543,1.17285 2.0179,0.19631 4.15551,-0.24834 6.22435,-0.68435 5.5068,-1.26012 10.84831,-3.34193 15.97457,-5.70559 7.58382,-3.58969 14.93523,-7.81356 21.08999,-13.05983 z M 307.97073,675.60902 c 5.101,0.23255 9.91924,1.22839 14.65097,2.30487 1.70899,0.30131 2.69588,1.56313 3.28868,2.78598 0.21629,0.59825 -0.71433,0.95625 -1.29075,0.77949 -6.66503,-1.16632 -13.05757,-2.91838 -18.98201,-5.29726 0.75556,-0.27354 1.54096,-0.6003 2.33311,-0.57309 z m -44.3921,37.08874 c -0.72438,-1.04818 -1.43118,-2.3127 -0.92362,-3.68921 1.08607,-3.4284 2.20916,-6.87061 3.87248,-10.23185 0.73099,-1.39074 1.23096,-3.01161 2.9971,-3.91657 -0.71807,5.81876 -2.17828,11.68783 -4.43779,17.47056 -0.15766,0.65989 -1.16288,0.93131 -1.5082,0.36696 z m 99.10192,31.36951 c -1.58724,1.99174 -3.08199,4.02351 -4.66995,6.01562 -4.01541,-5.09172 -7.67822,-10.46913 -9.76632,-16.48908 -1.31063,-4.24835 -2.45117,-8.57096 -3.11684,-13.00255 0.62688,-0.78794 1.39855,-1.50378 2.07891,-2.2677 5.27768,8.52404 10.39206,17.12694 15.4742,25.74371 z m -75.72291,-3.7677 c -2.34069,-1.88099 -1.79066,-5.4938 0.86999,-7.77596 11.86791,-9.87061 26.4156,-17.6373 41.78839,-22.34674 1.91417,-0.55263 3.88744,-1.31058 5.83196,-1.20431 2.67321,0.0648 4.93761,1.51855 5.37603,3.61519 1.22922,5.69666 2.69929,11.32885 3.76495,17.06881 0.16897,0.6526 -0.4745,1.36778 -1.2718,1.65385 -13.6091,6.08015 -26.81857,12.93105 -39.51129,20.43245 -0.7377,0.47154 -1.73121,0.41173 -2.2141,-0.0759 -4.87721,-3.79099 -9.77146,-7.56877 -14.63408,-11.36732 z m 19.73657,32.71183 c -5.7926,-8.24948 -11.55602,-16.51707 -17.16055,-24.87188 1.07899,-0.14565 2.15715,-0.38615 3.2329,-0.47843 3.95289,2.73213 7.56322,5.77789 11.01668,8.91845 4.7781,4.62924 8.14743,10.15837 11.06392,15.81823 -2.72078,0.23566 -5.4328,0.37849 -8.15295,0.61363 z m 12.23376,12.02476 c -2.39554,-0.38057 -4.61497,-1.33298 -5.83998,-2.98796 -1.95192,-2.71253 -3.86421,-5.44577 -5.78824,-8.17294 2.65242,-0.17784 5.31204,-0.37866 7.96598,-0.57099 1.63548,3.41718 3.12462,6.89842 4.40069,10.45759 0.16775,0.42351 0.14689,1.33515 -0.73844,1.27426 z m 47.66342,-25.53403 c -2.80396,-2.76929 -5.42625,-5.66469 -7.91341,-8.64157 1.51321,-1.96203 3.03735,-3.92393 4.53522,-5.89194 1.67556,2.85562 3.36284,5.70517 5.01029,8.5751 0.9883,1.77735 0.79993,3.97455 -0.0303,6.02276 -0.38369,0.71717 -1.27577,0.27753 -1.60186,-0.0643 z m -34.07034,40.63725 c -2.03881,-5.48861 -4.11361,-10.96324 -6.15256,-16.45155 -0.34984,-0.59457 0.17446,-1.46093 1.05184,-1.71537 7.0594,-2.77054 13.97474,-5.90359 20.57463,-9.51453 4.47696,-2.43763 8.7869,-5.1051 13.01199,-7.85761 0.68416,-0.54219 1.72594,-0.43075 2.11783,0.10131 4.27451,4.33232 8.55196,8.65778 12.82536,12.98836 0,0 -12.15102,15.09381 -36.41629,21.05239 -2.31976,0.61113 -4.66826,1.07769 -7.01276,1.39701 z"

			style="stroke-width:0.742267" /></g>
</svg>
