<?xml version="1.0" encoding="UTF-8" standalone="no"?>
<svg
   version="1.1"
   id="Layer_1"
   x="0px"
   y="0px"
   width="600px"
   height="600px"
   viewBox="0 0 2051 1080"
   style="enable-background:new 0 0 2051 1080;"
   xml:space="preserve"
   sodipodi:docname="GALLERIAWAY.svg"
   inkscape:version="1.1 (c68e22c387, 2021-05-23)"
   xmlns:inkscape="http://www.inkscape.org/namespaces/inkscape"
   xmlns:sodipodi="http://sodipodi.sourceforge.net/DTD/sodipodi-0.dtd"
   xmlns="http://www.w3.org/2000/svg"
   xmlns:svg="http://www.w3.org/2000/svg"><defs
   id="defs120" /><sodipodi:namedview
   id="namedview118"
   pagecolor="#ffffff"
   bordercolor="#666666"
   borderopacity="1.0"
   inkscape:pageshadow="2"
   inkscape:pageopacity="0.0"
   inkscape:pagecheckerboard="0"
   showgrid="false"
   showguides="false"
   inkscape:guide-bbox="true"
   inkscape:zoom="2.6733333"
   inkscape:cx="306.3591"
   inkscape:cy="454.30175"
   inkscape:window-width="1920"
   inkscape:window-height="991"
   inkscape:window-x="-9"
   inkscape:window-y="-9"
   inkscape:window-maximized="1"
   inkscape:current-layer="g23"><sodipodi:guide
     position="957.757,493.26091"
     orientation="0,-1"
     id="guide1197" /><sodipodi:guide
     position="1137.123,102.29564"
     orientation="0,-1"
     id="guide1199" /><sodipodi:guide
     position="1856.6409,269.32668"
     orientation="1,0"
     id="guide1281" /></sodipodi:namedview>
<g
   id="g23">
	
	
<path
   id="ns-1"
   name=""
   fill="#353434"
   d="m 1843.3311,637.95827 0.6029,731.45393 h -145.92 -10.18 v 10.184 9.745 l -121.0739,2.208 -18.524,-18.793 -3.012,-3.053 -4.284,0.017 -68.492,0.3101 -3.658,0.014 -2.8131,2.3479 -6.5089,5.424 -31.641,0.623 -14.104,-13.145 v -11.074 -10.051 l -10.046,-0.1278 -31.726,-0.409 -13.699,-13.699 5.027,-351.79294 0.055,-3.76898 -2.41,-2.89499 -13.838,-16.60401 V 834.80224 l 3.623,-4.642 6.094,-7.79599 -7.62,-6.31099 -4.358,-3.614 1.751,-159.395 14.407,-14.18899 482.348,-0.89803 m 10.1709,-10.2 -496.6989,0.92401 -20.361,20.05502 -1.85,168.446 8.097,6.712 -5.78,7.40199 v 127.26099 l 16.1919,19.43699 -5.0889,356.09696 19.667,19.666 35.864,0.463 v 15.5 l 20.361,18.975 39.3359,-0.772 9.256,-7.712 68.485,-0.308 21.5951,21.904 135.438,-2.465 v -19.746 h 156.105 z"
   style="stroke-width:0.999999" /><path
   id="path3162"
   name=""
   fill="#353434"
   d="m 1481.5921,989.54726 c 0,9.48397 -4.1911,14.22894 -12.574,14.22894 -3.82,0 -6.788,-1.141 -8.8951,-3.42 -2.1039,-2.27797 -3.177,-5.56397 -3.2169,-9.85794 l 5.3349,-1.258 c 0.04,3.107 0.6241,5.41197 1.7491,6.91397 1.122,1.503 2.789,2.255 4.9979,2.255 1.5531,0 2.8141,-0.2909 3.787,-0.874 0.969,-0.581 1.689,-1.538 2.1611,-2.866 0.47,-1.328 0.704,-3.13897 0.704,-5.42897 v -31.18499 h 5.951 v 31.49199 z"
   style="stroke-width:0.999999" /><path
   id="path3164"
   name=""
   fill="#353434"
   d="m 1509.8571,962.37826 c -3.125,0 -5.7811,0.764 -7.969,2.28502 -2.188,1.52198 -3.842,3.62398 -4.9651,6.30098 -1.1269,2.68001 -1.6879,5.75501 -1.6879,9.22902 0,3.783 0.561,7.06498 1.6879,9.84398 1.1231,2.78 2.7691,4.91697 4.9371,6.40997 2.1639,1.492 4.769,2.237 7.815,2.237 3.4749,0 6.3439,-0.966 8.602,-2.896 2.26,-1.933 3.8289,-4.73697 4.7059,-8.41897 l 5.7981,1.382 c -0.6951,3.107 -1.9161,5.79097 -3.665,8.04897 -1.75,2.259 -3.927,3.98397 -6.532,5.18197 -2.6041,1.195 -5.502,1.795 -8.693,1.795 -4.332,0 -8.0591,-0.941 -11.172,-2.822 -3.1231,-1.88097 -5.506,-4.58297 -7.1621,-8.10894 -1.657,-3.528 -2.484,-7.73099 -2.484,-12.619 0,-4.661 0.8811,-8.72499 2.65,-12.18899 1.771,-3.46301 4.2341,-6.11899 7.3911,-7.972 3.156,-1.84901 6.76,-2.77401 10.813,-2.77401 4.678,0 8.568,1.11903 11.666,3.35701 3.096,2.236 5.236,5.49501 6.4219,9.76601 l -5.8259,1.381 c -0.944,-3.168 -2.432,-5.52901 -4.476,-7.085 -2.043,-1.555 -4.66,-2.33302 -7.856,-2.33302 z"
   style="stroke-width:0.999999" /><path
   id="path3166"
   name=""
   fill="#353434"
   d="m 1568.0001,971.24026 c 0,2.984 -0.66,5.52003 -1.979,7.60401 -1.319,2.08399 -3.212,3.65899 -5.6861,4.72199 -2.4739,1.06299 -5.4299,1.594 -8.8649,1.594 h -9.474 v 17.84794 h -5.9471 v -44.95293 h 15.5771 c 5.269,0 9.32,1.12001 12.1409,3.35701 2.823,2.24 4.2331,5.51599 4.2331,9.82798 z m -6.1621,0.18596 c 0,-2.76202 -0.85,-4.78803 -2.5489,-6.08802 -1.693,-1.29801 -4.3201,-1.94698 -7.877,-1.94698 h -9.4151 v 16.43497 h 9.504 c 3.476,0 6.0671,-0.69399 7.7761,-2.08498 1.705,-1.39201 2.5609,-3.496 2.5609,-6.31499 z"
   style="stroke-width:0.999999" /><path
   id="path3168"
   name=""
   fill="#353434"
   d="m 1602.68,963.39026 h -22.2949 v 13.73702 h 20.609 v 5.33598 h -20.609 v 15.20997 h 23.3669 v 5.33397 h -29.3139 v -44.95292 h 28.2419 z"
   style="stroke-width:0.999999" /><path
   id="path3170"
   name=""
   fill="#353434"
   d="m 1640.638,993.13426 h 0.1269 v -35.07899 h 5.643 v 44.95293 h -6.103 l -22.5979,-35.10994 h -0.1251 v 35.10994 h -5.646 v -44.95293 h 6.133 z"
   style="stroke-width:0.999999" /><path
   id="path3172"
   name=""
   fill="#353434"
   d="m 1684.9161,993.13426 h 0.1268 v -35.07899 h 5.642 v 44.95293 h -6.103 l -22.5999,-35.10994 h -0.121 v 35.10994 h -5.645 v -44.95293 h 6.133 z"
   style="stroke-width:0.999999" /><path
   id="path3174"
   name=""
   fill="#353434"
   d="m 1728.7341,963.39026 h -22.288 v 13.73702 h 20.6049 v 5.33598 h -20.6049 v 15.20997 h 23.3649 v 5.33397 h -29.3139 v -44.95292 h 28.237 z"
   style="stroke-width:0.999999" /><path
   id="path3176"
   name=""
   fill="#353434"
   d="m 1748.1151,971.42628 c 0.8179,1.28598 1.6739,2.72199 2.5639,4.30598 0.8891,1.58703 1.4121,2.52102 1.5781,2.80699 l 0.3669,0.67403 c 0.5691,-1.14401 1.186,-2.26201 1.839,-3.35502 0.6511,-1.09397 1.583,-2.60201 2.7891,-4.524 l 8.3709,-13.27697 h 6.933 l -17.297,25.911 v 19.04191 h -5.9469 v -19.04191 l -16.7101,-25.911 h 7.1121 z"
   style="stroke-width:0.999999" /><path
   id="path3182"
   name=""
   fill="#353434"
   d="m 1154.1901,1507.2612 h 11.512 V 522.30227 h -11.512 z"
   style="stroke-width:0.999999" /><path
   id="path3186"
   name=""
   fill="#353434"
   d="m 1301.306,1507.2612 h 11.5121 V 522.30227 h -11.5121 z"
   style="stroke-width:0.999999" /><path
   id="6-4"
   name="6"
   type="space"
   d="m 317.08227,1385.2692 142.556,-240.487 h -137.002 l -141.381,240.487 z"
   style="stroke:none;stroke-width:0.999999" /><path
   id="path3192"
   name=""
   fill="#353434"
   d="m 1084.0031,1157.3162 c 1.594,-2.75 0.654,-6.271 -2.096,-7.865 -2.738,-1.591 -6.268,-0.654 -7.867,2.095 l -138.6067,234.471 H 890.47961 876.08267 794.999 l 136.49543,-228.667 c 1.61097,-2.74 0.69897,-6.271 -2.045,-7.88 -2.729,-1.609 -6.26797,-0.696 -7.87897,2.044 l -139.9524,234.503 h -1.47297 -81.83584 -14.415 -41.84098 l 136.23182,-229.648 c 1.598,-2.745 0.668,-6.272 -2.076,-7.872 -2.73797,-1.597 -6.26997,-0.673 -7.87297,2.078 l -139.60785,235.441 h -26.575 -14.343 -81.749 -14.36 -2.991 l 135.879,-232.574 c 1.572,-2.763 0.605,-6.277 -2.154,-7.851 -2.768,-1.572 -6.281,-0.611 -7.852,2.153 l -139.159,238.271 h -68.465 -14.364 -57.223 l 135.419,-230.64 c 1.582,-2.76 0.631,-6.276 -2.129,-7.858 -2.752,-1.576 -6.277,-0.629 -7.854,2.132 l -138.73,236.366 h -140.272 l 135.834,-231.601 c 1.576,-2.762 0.621,-6.279 -2.141,-7.857 -2.744,-1.582 -6.266,-0.625 -7.852,2.135 l -139.134,237.323 h -37.375 v 11.518 h 254.322 14.363 84.732 14.361 81.802 14.343 81.57596 14.419 81.75889 14.45294 81.59264 14.39594 246.15046 v -11.518 H 948.75334 Z"
   style="stroke-width:0.999999" /><path
   id="path3196"
   name=""
   fill="#353434"
   d="m 1201.378,1382.9422 c 0,5.666 1.3801,10.53 4.1371,14.591 2.758,4.061 6.648,7.149 11.672,9.264 5.024,2.116 10.86,3.174 17.509,3.174 7.0639,0 13.117,-1.114 18.16,-3.344 5.043,-2.229 8.905,-5.496 11.587,-9.802 2.683,-4.307 4.023,-9.52 4.023,-15.639 0,-3.929 -0.717,-7.98 -2.1531,-12.154 -1.4349,-4.174 -3.1909,-7.583 -5.2699,-10.228 h -17.055 v 23.062 h -9.9161 v -33.714 h 31.6741 c 3.777,4.345 6.742,9.415 8.896,15.214 2.154,5.799 3.23,11.7 3.23,17.707 0,8.462 -1.709,15.714 -5.128,21.758 -3.419,6.044 -8.367,10.644 -14.846,13.797 -6.479,3.154 -14.251,4.731 -23.316,4.731 -8.499,0 -15.95,-1.615 -22.354,-4.845 -6.402,-3.229 -11.379,-7.781 -14.93,-13.655 -3.551,-5.873 -5.326,-12.569 -5.326,-20.087 0,-8.688 2.077,-15.874 6.232,-21.56 4.156,-5.685 10.162,-9.623 18.0189,-11.814 l 2.5501,10.766 c -5.666,1.587 -9.981,4.335 -12.947,8.245 -2.965,3.909 -4.4481,8.754 -4.4481,14.533 z"
   style="stroke-width:0.999999" /><path
   id="path3198"
   name=""
   fill="#353434"
   d="m 1276.4551,1263.2732 v 12.238 l -25.2711,9.746 v 34.62 l 25.2711,9.293 v 11.502 l -83.066,-31.787 v -11.843 z m -57.455,44.876 23.458,8.612 v -28.161 l -23.571,9.066 c -2.493,0.944 -5.005,1.813 -7.536,2.606 -2.53,0.793 -5.628,1.681 -9.293,2.663 v 0.227 c 5.175,1.097 10.8229,2.759 16.942,4.987 z"
   style="stroke-width:0.999999" /><path
   id="path3200"
   name=""
   fill="#353434"
   d="m 1266.5961,1243.2152 v -40.967 h 9.859 v 51.959 h -83.066 v -10.992 z"
   style="stroke-width:0.999999" /><path
   id="path3202"
   name=""
   fill="#353434"
   d="m 1266.5961,1178.6772 v -40.967 h 9.859 v 51.959 h -83.066 v -10.992 z"
   style="stroke-width:0.999999" /><path
   id="path3204"
   name=""
   fill="#353434"
   d="m 1203.248,1072.9462 v 41.193 h 25.3851 v -38.077 h 9.858 v 38.077 h 28.104 v -43.177 h 9.8589 v 54.169 h -83.0659 v -52.186 h 9.8599 z"
   style="stroke-width:0.999999" /><path
   id="path3206"
   name=""
   fill="#353434"
   d="m 1216.4501,996.79323 c 5.704,0 10.426,1.549 14.1649,4.64597 3.7401,3.099 6.4031,7.649 7.9891,13.656 l 0.3408,0.057 c 0.491,-1.322 1.274,-2.54 2.352,-3.655 1.076,-1.113 2.71,-2.352 4.9,-3.711 2.191,-1.36 5.308,-3.06 9.35,-5.1 l 20.908,-10.53894 v 12.29594 l -17.962,8.726 c -4.684,2.229 -8.263,4.288 -10.737,6.176 -2.474,1.89 -4.307,4.08 -5.496,6.573 -1.19,2.493 -1.785,5.609 -1.785,9.349 v 9.576 h 35.98 v 10.992 h -83.066 v -30.653 c 0,-9.481 1.975,-16.583 5.921,-21.306 3.948,-4.72197 9.661,-7.08297 17.14,-7.08297 z m 0.3401,11.38797 c -4.608,0 -8.018,1.436 -10.228,4.307 -2.21,2.871 -3.314,7.177 -3.314,12.919 v 19.435 h 27.367 v -19.095 c 0,-5.704 -1.142,-10.058 -3.428,-13.061 -2.285,-3.003 -5.751,-4.505 -10.397,-4.505 z"
   style="stroke-width:0.999999" /><path
   id="path3208"
   name=""
   fill="#353434"
   d="m 1276.4551,969.70826 v 11.04901 h -83.066 v -11.04901 z"
   style="stroke-width:0.999999" /><path
   id="path3210"
   name=""
   fill="#353434"
   d="m 1276.4551,883.24228 v 12.239 l -25.2711,9.74601 v 34.61999 l 25.2711,9.29198 v 11.503 l -83.066,-31.78698 v -11.84302 z m -57.455,44.87598 23.458,8.613 v -28.16098 l -23.571,9.06501 c -2.493,0.945 -5.005,1.81298 -7.536,2.606 -2.53,0.79398 -5.628,1.68199 -9.293,2.66298 v 0.22698 c 5.175,1.09698 10.8229,2.75798 16.942,4.98697 z"
   style="stroke-width:0.999999" /><path
   id="path3212"
   name=""
   fill="#353434"
   d="m 1247.5571,825.84429 c 5.629,-1.32201 10.917,-2.30403 15.865,-2.94602 -1.8131,-0.2639 -4.099,-0.68801 -6.8561,-1.27501 -2.7569,-0.58498 -5.3629,-1.19799 -7.8189,-1.84098 l -55.358,-14.61901 v -13.14599 l 52.072,-13.48501 c 5.8929,-1.54899 11.881,-2.73799 17.9619,-3.57001 -2.72,-0.41498 -8.5559,-1.66097 -17.5089,-3.73897 l -52.525,-12.239 v -11.04901 l 83.066,21.47499 v 11.05 l -65.218,16.82801 c -2.795,0.71799 -5.023,1.24701 -6.6871,1.587 2.7581,0.49101 5.6481,1.13301 8.6701,1.92599 l 63.2339,16.77202 v 11.04898 l -83.0659,21.07802 v -11.219 z"
   style="stroke-width:0.999999" /><path
   id="path3214"
   name=""
   fill="#353434"
   d="m 1276.4551,672.91329 v 12.239 l -25.2711,9.74597 v 34.62003 l 25.2711,9.29199 v 11.50299 l -83.066,-31.78701 v -11.84298 z m -57.455,44.87598 23.458,8.613 v -28.16098 l -23.571,9.06498 c -2.493,0.94499 -5.005,1.81301 -7.536,2.606 -2.53,0.79401 -5.628,1.68202 -9.293,2.66302 v 0.22697 c 5.175,1.09701 10.8229,2.75802 16.942,4.98701 z"
   style="stroke-width:0.999999" /><path
   id="path3216"
   name=""
   fill="#353434"
   d="m 1218.0941,653.36527 c 2.38,-1.511 5.033,-3.08901 7.961,-4.731 2.928,-1.64398 4.6549,-2.61499 5.185,-2.91799 l 1.246,-0.68101 c -2.115,-1.05698 -4.183,-2.18899 -6.204,-3.39898 -2.021,-1.20801 -4.807,-2.92702 -8.357,-5.15601 l -24.535,-15.46898 v -12.80604 l 47.88,31.95804 h 35.187 v 10.99199 h -35.187 l -47.88,30.88098 v -13.14599 z"
   style="stroke-width:0.999999" /><path
   id="10-8"
   name="10 "
   type="space"
   d="m 932.6604,1385.2692 142.7237,-240.487 H 933.9604 l -142.84437,240.487 z"
   style="stroke:none;stroke-width:0.999999" /><path
   id="9-6"
   name="9 "
   type="space"
   d="m 777.76109,1385.2692 142.71737,-240.487 H 779.30609 l -141.55382,240.487 z"
   style="stroke:none;stroke-width:0.999999" /><path
   id="8-3"
   name="8"
   type="space"
   d="m 624.49127,1385.2692 141.37388,-240.487 H 627.92227 l -142.793,240.487 z"
   style="stroke:none;stroke-width:0.999999" /><path
   id="7-8"
   name="7"
   type="space"
   d="m 471.85127,1385.2692 142.612,-240.487 h -141.323 l -142.745,240.487 z"
   style="stroke:none;stroke-width:0.999999" /><g
   id="g8095"
   transform="matrix(3.4183333,0,0,3.4183333,-1217.3374,-65.509374)"><path
     id="path8085"
     name=""
     fill="#0071bc"
     space_id="na_5"
     d="m 636.26094,377.34488 c -2.7797,-1.84897 -6.11307,-2.50384 -9.38426,-1.84543 -3.27206,0.65859 -6.09252,2.55207 -7.94043,5.33248 -1.84898,2.7797 -2.50385,6.11309 -1.84526,9.38516 0.65859,3.27207 2.55206,6.09254 5.33228,7.93959 2.78075,1.84968 6.11324,2.50472 9.38531,1.84613 3.27119,-0.65841 6.09252,-2.55206 7.93939,-5.33317 1.85002,-2.77901 2.50489,-6.11239 1.8463,-9.38446 -0.65858,-3.27208 -2.55206,-6.09254 -5.33333,-7.9403 z m -16.5446,12.34379 c -0.5175,-2.5711 -0.003,-5.19057 1.44962,-7.37421 1.45265,-2.18364 3.66892,-3.67233 6.23914,-4.18965 2.12829,-0.42837 4.28266,-0.139 6.20463,0.79175 l -10.76286,16.18731 c -1.60149,-1.41048 -2.70216,-3.2869 -3.13053,-5.4152 z m 17.80227,3.50018 c -1.4516,2.18435 -3.66805,3.67216 -6.23827,4.18948 -2.12828,0.42837 -4.28353,0.13918 -6.20376,-0.79193 l 10.76147,-16.1852 c 1.60131,1.40961 2.70216,3.2869 3.13035,5.41432 0.51819,2.57005 0.003,5.18882 -1.44979,7.37333 z"
     style="stroke-width:0.29254" /><path
     id="path8087"
     name=""
     fill="#0071bc"
     space_id="na_4"
     d="m 593.6512,377.42832 c -2.77969,-1.84898 -6.11306,-2.50384 -9.38425,-1.84543 -3.27207,0.65858 -6.09252,2.55206 -7.94044,5.33247 -1.84898,2.77971 -2.50384,6.11309 -1.84525,9.38517 0.65858,3.27207 2.55205,6.09253 5.33227,7.93959 2.78076,1.84968 6.11325,2.50472 9.38531,1.84613 3.2712,-0.65841 6.09253,-2.55207 7.93939,-5.33317 1.85003,-2.77901 2.5049,-6.1124 1.84631,-9.38447 -0.65859,-3.27207 -2.55206,-6.09254 -5.33334,-7.94029 z m -16.5446,12.34379 c -0.5175,-2.57111 -0.003,-5.19057 1.44962,-7.37421 1.45266,-2.18364 3.66893,-3.67233 6.23914,-4.18966 2.12829,-0.42837 4.28266,-0.13899 6.20464,0.79176 l -10.76286,16.1873 c -1.6015,-1.41048 -2.70217,-3.2869 -3.13054,-5.41519 z m 17.80227,3.50018 c -1.4516,2.18434 -3.66805,3.67215 -6.23827,4.18948 -2.12828,0.42837 -4.28353,0.13918 -6.20375,-0.79193 l 10.76146,-16.1852 c 1.60131,1.4096 2.70216,3.2869 3.13035,5.41432 0.5182,2.57005 0.003,5.18881 -1.44979,7.37333 z"
     style="stroke-width:0.29254" /><path
     id="path8089"
     name=""
     fill="#0071bc"
     space_id="na_3"
     d="m 547.09324,377.03078 c -2.7797,-1.84898 -6.11307,-2.50384 -9.38426,-1.84543 -3.27206,0.65858 -6.09252,2.55207 -7.94043,5.33247 -1.84898,2.77971 -2.50385,6.11309 -1.84526,9.38517 0.65859,3.27207 2.55206,6.09254 5.33228,7.93959 2.78075,1.84968 6.11325,2.50472 9.38531,1.84613 3.27119,-0.65841 6.09252,-2.55207 7.93939,-5.33317 1.85002,-2.77901 2.50489,-6.11239 1.8463,-9.38447 -0.65858,-3.27207 -2.55206,-6.09253 -5.33333,-7.94029 z m -16.5446,12.34379 c -0.5175,-2.57111 -0.003,-5.19057 1.44962,-7.37421 1.45265,-2.18364 3.66893,-3.67233 6.23914,-4.18965 2.12829,-0.42837 4.28266,-0.139 6.20464,0.79175 l -10.76287,16.1873 c -1.60149,-1.41048 -2.70216,-3.2869 -3.13053,-5.41519 z m 17.80227,3.50018 c -1.4516,2.18434 -3.66805,3.67216 -6.23827,4.18948 -2.12828,0.42837 -4.28353,0.13918 -6.20376,-0.79193 l 10.76147,-16.1852 c 1.60131,1.40961 2.70216,3.2869 3.13035,5.41432 0.51819,2.57005 0.003,5.18881 -1.44979,7.37333 z"
     style="stroke-width:0.29254" /><path
     id="path8091"
     name=""
     fill="#0071bc"
     space_id="na_2"
     d="m 502.65121,377.42832 c -2.7797,-1.84898 -6.11307,-2.50384 -9.38426,-1.84544 -3.27206,0.65859 -6.09252,2.55207 -7.94044,5.33248 -1.84897,2.77971 -2.50384,6.11309 -1.84525,9.38516 0.65859,3.27208 2.55206,6.09254 5.33228,7.93959 2.78075,1.84968 6.11324,2.50473 9.38531,1.84614 3.27119,-0.65841 6.09252,-2.55207 7.93938,-5.33318 1.85003,-2.779 2.5049,-6.11239 1.84631,-9.38446 -0.65858,-3.27208 -2.55206,-6.09254 -5.33333,-7.94029 z m -16.54461,12.34379 c -0.51749,-2.57111 -0.003,-5.19057 1.44963,-7.37421 1.45265,-2.18365 3.66892,-3.67234 6.23914,-4.18966 2.12828,-0.42837 4.28266,-0.139 6.20463,0.79176 l -10.76286,16.1873 c -1.60149,-1.41048 -2.70216,-3.2869 -3.13054,-5.41519 z m 17.80228,3.50018 c -1.45161,2.18434 -3.66805,3.67215 -6.23827,4.18947 -2.12828,0.42838 -4.28353,0.13918 -6.20376,-0.79192 l 10.76146,-16.18521 c 1.60132,1.40961 2.70216,3.28691 3.13036,5.41432 0.51819,2.57006 0.003,5.18882 -1.44979,7.37334 z"
     style="stroke-width:0.29254" /><path
     id="path8093"
     name=""
     fill="#0071bc"
     space_id="na_1"
     d="m 457.65121,377.42833 c -2.7797,-1.84898 -6.11307,-2.50385 -9.38426,-1.84544 -3.27206,0.65859 -6.09252,2.55207 -7.94044,5.33248 -1.84897,2.77971 -2.50384,6.11309 -1.84525,9.38516 0.65859,3.27208 2.55206,6.09254 5.33228,7.93959 2.78075,1.84968 6.11324,2.50472 9.38531,1.84614 3.27119,-0.65841 6.09252,-2.55207 7.93938,-5.33318 1.85003,-2.779 2.5049,-6.11239 1.84631,-9.38446 -0.65858,-3.27208 -2.55206,-6.09254 -5.33333,-7.94029 z m -16.54461,12.34378 c -0.51749,-2.5711 -0.003,-5.19056 1.44963,-7.3742 1.45265,-2.18365 3.66892,-3.67234 6.23914,-4.18966 2.12828,-0.42837 4.28266,-0.139 6.20463,0.79176 l -10.76286,16.1873 c -1.6015,-1.41048 -2.70216,-3.2869 -3.13054,-5.4152 z m 17.80228,3.50019 c -1.45161,2.18434 -3.66805,3.67215 -6.23827,4.18947 -2.12828,0.42838 -4.28353,0.13918 -6.20376,-0.79192 l 10.76146,-16.18521 c 1.60132,1.40961 2.70216,3.28691 3.13036,5.41432 0.51819,2.57006 0.003,5.18882 -1.44979,7.37334 z"
     style="stroke-width:0.29254" /></g><path
   id="path3671-0-7"
   name=""
   fill="#353434"
   d="m 1081.9235,853.38184 c 1.594,2.59475 0.654,5.91689 -2.0961,7.42089 -2.7381,1.50119 -6.2678,0.61708 -7.8669,-1.97669 L 933.3538,637.59473 h -44.95389 -14.39694 -81.08354 l 136.4952,215.75504 c 1.611,2.58532 0.699,5.91693 -2.0449,7.43505 -2.72877,1.51815 -6.26777,0.65669 -7.87887,-1.92859 L 779.53839,637.59473 h -1.4729 -81.83578 -14.41511 -41.84113 l 136.23212,216.68066 c 1.5977,2.59 0.6679,5.91782 -2.07627,7.42749 -2.7378,1.50683 -6.2699,0.63499 -7.87277,-1.96065 L 626.64847,637.59568 h -26.5748 -14.3429 -81.7491 -14.3601 -2.9911 l 135.8791,219.44141 c 1.5721,2.60699 0.6051,5.92261 -2.1539,7.4077 -2.7681,1.48322 -6.2812,0.5765 -7.8522,-2.03141 l -139.159,-224.81674 h -68.4648 -14.3642 -57.2229 l 135.419,217.6166 c 1.582,2.60416 0.6311,5.92165 -2.1289,7.4143 -2.7521,1.48704 -6.2771,0.59349 -7.854,-2.01159 l -138.73,-223.01931 h -140.2719 l 135.8339,218.52331 c 1.5759,2.60607 0.6208,5.92449 -2.1412,7.41338 -2.7439,1.49268 -6.2658,0.58973 -7.8519,-2.01443 L 166.43347,637.59664 h -37.375 v -10.86763 h 254.322 14.3631 84.7319 14.3612 81.802 14.343 81.57581 14.41921 81.75883 14.45274 81.59284 14.39584 246.15056 v 10.86763 H 946.67364 Z"
   style="stroke-width:0.971357" /><path
   id="6-9-0-6"
   name="6"
   type="space"
   d="m 315.00247,638.30047 142.5561,226.90764 h -137.002 L 179.17567,638.30047 Z"
   style="fill:#000000;stroke-width:0.971357" /><path
   id="7-2-3-4"
   name="7"
   type="space"
   d="m 469.77167,638.30047 142.6118,226.90764 H 471.06067 L 328.31557,638.30047 Z"
   style="fill:#000000;stroke:none;stroke-width:0.971357" /><path
   id="8-3-7-6"
   name="8"
   type="space"
   d="M 622.41147,638.30047 763.78545,865.20811 H 625.84247 l -142.793,-226.90764 z"
   style="fill:#000000;stroke:none;stroke-width:0.971357" /><path
   id="10-5-7-3"
   name="10 "
   type="space"
   d="M 930.58053,638.30047 1073.3046,865.20811 H 931.8805 L 789.03623,638.30047 Z"
   style="fill:#000000;stroke:none;stroke-width:0.971357" /><path
   id="9-7-7-8"
   name="9 "
   type="space"
   d="M 775.68149,638.30047 918.39866,865.20811 H 777.22629 L 635.67257,638.30047 Z"
   style="fill:#000000;stroke:none;stroke-width:0.971357" /><g
   id="g8083"
   transform="matrix(3.4183333,0,0,3.4183333,-1238.1589,-570.49188)"><path
     id="path3745-2"
     name=""
     fill="#0071bc"
     space_id="na_3"
     d="m 550.41407,375.24102 c -2.7797,-1.84898 -6.11307,-2.50384 -9.38426,-1.84543 -3.27206,0.65858 -6.09252,2.55207 -7.94043,5.33247 -1.84898,2.77971 -2.50385,6.11309 -1.84526,9.38517 0.65859,3.27207 2.55206,6.09254 5.33228,7.93959 2.78075,1.84968 6.11325,2.50472 9.38531,1.84613 3.27119,-0.65841 6.09252,-2.55207 7.93939,-5.33317 1.85002,-2.77901 2.50489,-6.11239 1.8463,-9.38447 -0.65858,-3.27207 -2.55206,-6.09253 -5.33333,-7.94029 z m -16.5446,12.34379 c -0.5175,-2.57111 -0.003,-5.19057 1.44962,-7.37421 1.45265,-2.18364 3.66893,-3.67233 6.23914,-4.18965 2.12829,-0.42837 4.28266,-0.139 6.20464,0.79175 L 537,393 c -1.60149,-1.41048 -2.70216,-3.2869 -3.13053,-5.41519 z m 17.80227,3.50018 c -1.4516,2.18434 -3.66805,3.67216 -6.23827,4.18948 -2.12828,0.42837 -4.28353,0.13918 -6.20376,-0.79193 l 10.76147,-16.1852 c 1.60131,1.40961 2.70216,3.2869 3.13035,5.41432 0.51819,2.57005 0.003,5.18881 -1.44979,7.37333 z"
     style="stroke-width:0.29254" /><path
     id="path3741-5"
     name=""
     fill="#0071bc"
     space_id="na_5"
     d="m 640.26094,375.34488 c -2.7797,-1.84897 -6.11307,-2.50384 -9.38426,-1.84543 -3.27206,0.65859 -6.09252,2.55207 -7.94043,5.33248 -1.84898,2.7797 -2.50385,6.11309 -1.84526,9.38516 0.65859,3.27207 2.55206,6.09254 5.33228,7.93959 2.78075,1.84968 6.11324,2.50472 9.38531,1.84613 3.27119,-0.65841 6.09252,-2.55206 7.93939,-5.33317 1.85002,-2.77901 2.50489,-6.11239 1.8463,-9.38446 -0.65858,-3.27208 -2.55206,-6.09254 -5.33333,-7.9403 z m -16.5446,12.34379 c -0.5175,-2.5711 -0.003,-5.19057 1.44962,-7.37421 1.45265,-2.18364 3.66892,-3.67233 6.23914,-4.18965 2.12829,-0.42837 4.28266,-0.139 6.20463,0.79175 l -10.76286,16.18731 c -1.60149,-1.41048 -2.70216,-3.2869 -3.13053,-5.4152 z m 17.80227,3.50018 c -1.4516,2.18435 -3.66805,3.67216 -6.23827,4.18948 -2.12828,0.42837 -4.28353,0.13918 -6.20376,-0.79193 l 10.76147,-16.1852 c 1.60131,1.40961 2.70216,3.2869 3.13035,5.41432 0.51819,2.57005 0.003,5.18882 -1.44979,7.37333 z"
     style="stroke-width:0.29254" /><path
     id="path3743-1"
     name=""
     fill="#0071bc"
     space_id="na_4"
     d="m 595.6512,375.42832 c -2.77969,-1.84898 -6.11306,-2.50384 -9.38425,-1.84543 -3.27207,0.65858 -6.09252,2.55206 -7.94044,5.33247 -1.84898,2.77971 -2.50384,6.11309 -1.84525,9.38517 0.65858,3.27207 2.55205,6.09253 5.33227,7.93959 2.78076,1.84968 6.11325,2.50472 9.38531,1.84613 3.2712,-0.65841 6.09253,-2.55207 7.93939,-5.33317 1.85003,-2.77901 2.5049,-6.1124 1.84631,-9.38447 -0.65859,-3.27207 -2.55206,-6.09254 -5.33334,-7.94029 z m -16.5446,12.34379 c -0.5175,-2.57111 -0.003,-5.19057 1.44962,-7.37421 1.45266,-2.18364 3.66893,-3.67233 6.23914,-4.18966 2.12829,-0.42837 4.28266,-0.13899 6.20464,0.79176 l -10.76286,16.1873 c -1.6015,-1.41048 -2.70217,-3.2869 -3.13054,-5.41519 z m 17.80227,3.50018 c -1.4516,2.18434 -3.66805,3.67215 -6.23827,4.18948 -2.12828,0.42837 -4.28353,0.13918 -6.20375,-0.79193 l 10.76146,-16.1852 c 1.60131,1.4096 2.70216,3.2869 3.13035,5.41432 0.5182,2.57005 0.003,5.18881 -1.44979,7.37333 z"
     style="stroke-width:0.29254" /><path
     id="path3747-6"
     name=""
     fill="#0071bc"
     space_id="na_2"
     d="m 504.65121,375.42832 c -2.7797,-1.84898 -6.11307,-2.50384 -9.38426,-1.84544 -3.27206,0.65859 -6.09252,2.55207 -7.94044,5.33248 -1.84897,2.77971 -2.50384,6.11309 -1.84525,9.38516 0.65859,3.27208 2.55206,6.09254 5.33228,7.93959 2.78075,1.84968 6.11324,2.50473 9.38531,1.84614 3.27119,-0.65841 6.09252,-2.55207 7.93938,-5.33318 1.85003,-2.779 2.5049,-6.11239 1.84631,-9.38446 -0.65858,-3.27208 -2.55206,-6.09254 -5.33333,-7.94029 z m -16.54461,12.34379 c -0.51749,-2.57111 -0.003,-5.19057 1.44963,-7.37421 1.45265,-2.18365 3.66892,-3.67234 6.23914,-4.18966 2.12828,-0.42837 4.28266,-0.139 6.20463,0.79176 l -10.76286,16.1873 c -1.60149,-1.41048 -2.70216,-3.2869 -3.13054,-5.41519 z m 17.80228,3.50018 c -1.45161,2.18434 -3.66805,3.67215 -6.23827,4.18947 -2.12828,0.42838 -4.28353,0.13918 -6.20376,-0.79192 l 10.76146,-16.18521 c 1.60132,1.40961 2.70216,3.28691 3.13036,5.41432 0.51819,2.57006 0.003,5.18882 -1.44979,7.37334 z"
     style="stroke-width:0.29254" /><path
     id="path3749-9"
     name=""
     fill="#0071bc"
     space_id="na_1"
     d="m 460.74233,375.15603 c -2.7797,-1.84898 -6.11307,-2.50385 -9.38426,-1.84544 -3.27206,0.65859 -6.09252,2.55207 -7.94044,5.33248 -1.84897,2.77971 -2.50384,6.11309 -1.84525,9.38516 0.65859,3.27208 2.55206,6.09254 5.33228,7.93959 2.78075,1.84968 6.11324,2.50472 9.38531,1.84614 3.27119,-0.65841 6.09252,-2.55207 7.93938,-5.33318 1.85003,-2.779 2.5049,-6.11239 1.84631,-9.38446 -0.65858,-3.27208 -2.55206,-6.09254 -5.33333,-7.94029 z m -16.54461,12.34378 c -0.51749,-2.5711 -0.003,-5.19056 1.44963,-7.3742 1.45265,-2.18365 3.66892,-3.67234 6.23914,-4.18966 2.12828,-0.42837 4.28266,-0.139 6.20463,0.79176 l -10.76286,16.1873 c -1.6015,-1.41048 -2.70216,-3.2869 -3.13054,-5.4152 z M 462,391 c -1.45161,2.18434 -3.66805,3.67215 -6.23827,4.18947 -2.12828,0.42838 -4.28353,0.13918 -6.20376,-0.79192 l 10.76146,-16.18521 c 1.60132,1.40961 2.70216,3.28691 3.13036,5.41432 0.51819,2.57006 0.003,5.18882 -1.44979,7.37334 z"
     style="stroke-width:0.29254" /></g><path
   id="path3717"
   name=""
   fill="#0071bc"
   space_id="5"
   d="m 987.34666,804.72733 c 2.3218,-2.07705 4.8881,-4.35913 5.4297,-7.06375 0.65497,-3.60196 0.72137,-7.17245 0.54687,-10.68379 -0.19557,-3.26537 -1.27107,-6.32737 -2.68557,-9.20875 -2.8109,-5.56143 -6.08197,-10.93132 -10.13637,-15.84986 -0.7329,-0.89105 -1.82217,-1.53705 -2.44707,-2.50034 -1.9846,-2.90332 -3.8439,-5.87403 -5.81577,-8.78689 0.2882,-1.57137 -0.6378,-2.88955 -1.4239,-4.12118 -0.7116,-0.93474 -1.421,-2.01777 -2.8429,-2.33954 -3.80357,-5.7884 -7.62827,-11.56292 -11.42044,-17.35676 1.7143,-0.37858 3.48577,-0.50506 5.16457,-1.06187 0.2615,-0.94079 -0.8251,-1.62415 -1.6721,-2.01617 -1.58967,-0.73456 -3.65147,0.0444 -5.47227,0.10631 -3.48587,-5.23678 -6.91507,-10.50334 -10.38114,-15.75089 -0.422,-0.59554 -0.5896,-1.29797 -0.8181,-1.97426 -0.5089,-1.55835 -1.5034,-2.90873 -2.3282,-4.32853 -2.68377,-4.62241 -5.69107,-9.08853 -9.06437,-13.3408 -1.48447,-1.8702 -3.92867,-3.10238 -6.70477,-3.60005 -4.40937,-0.96171 -8.95414,-1.67304 -13.60124,-2.09947 -1.67807,-0.14802 -3.47857,0.26663 -5.11767,0.94192 -4.28697,1.69471 -8.41917,3.72209 -12.52424,5.75692 -5.96377,3.01199 -11.88184,6.12357 -17.51781,9.59153 -1.8672,1.15656 -3.8418,2.43126 -4.7666,4.20342 -2.06037,3.97057 -3.66567,8.0281 -5.00097,12.09605 -0.5146,1.4704 -0.7184,2.97357 -0.5044,4.38948 0.2119,1.6406 1.1021,3.05076 1.8743,4.48106 2.63517,4.91512 5.77727,9.58993 9.06484,14.1707 0.7691,1.16952 2.1216,1.96093 2.8202,3.16726 3.3274,5.2536 6.59827,10.53646 9.94257,15.78132 -0.6527,0.72506 -1.3451,1.42978 -1.9745,2.16182 -0.9749,1.12921 -1.1855,2.55154 -0.606,3.62552 0.1507,0.30423 0.3744,0.7321 0.9031,0.62545 1.2948,-1.07066 2.3427,-2.31394 3.53007,-3.45771 3.69,5.86312 7.42397,11.70095 11.07047,17.58428 -0.3028,0.88846 0.017,1.70564 0.3673,2.4531 0.6298,1.23914 1.39477,2.44882 2.51807,3.40343 0.4473,0.40753 1.2701,0.50082 1.4983,1.0711 1.7557,2.82207 3.558,5.62312 5.30527,8.4495 0.6197,0.99566 0.7326,2.17963 1.23,3.21949 2.1775,4.40873 4.80357,8.62172 7.83617,12.60251 2.5838,3.53517 5.41007,7.03845 9.46847,9.52477 2.79237,1.65509 5.75157,3.14839 8.89194,4.41054 1.2848,0.49925 2.5772,1.03497 4.0755,1.17283 2.01777,0.19621 4.15547,-0.24851 6.22427,-0.68435 5.50677,-1.2601 10.84824,-3.34193 15.97451,-5.70557 7.58377,-3.5897 14.93514,-7.81356 21.08991,-13.05985 z M 912.62369,684.09472 c 5.101,0.23245 9.91927,1.22838 14.65094,2.30485 1.709,0.30115 2.6959,1.56313 3.2887,2.78597 0.2164,0.59828 -0.7143,0.95628 -1.2907,0.77952 -6.66507,-1.16633 -13.05754,-2.9184 -18.98201,-5.29729 0.7556,-0.27346 1.54097,-0.60029 2.33307,-0.57308 z m -44.39179,37.08871 c -0.7244,-1.04816 -1.4312,-2.31267 -0.9237,-3.6892 1.0861,-3.42838 2.2092,-6.87061 3.87247,-10.23185 0.731,-1.39072 1.231,-3.01159 2.9971,-3.91656 -0.7181,5.81876 -2.1783,11.68783 -4.43777,17.47055 -0.1576,0.65988 -1.1629,0.93133 -1.5082,0.36696 z m 99.10145,31.36954 c -1.58727,1.99172 -3.08197,4.02348 -4.66997,6.01561 -4.01537,-5.09174 -7.67817,-10.46912 -9.76627,-16.48908 -1.31067,-4.24837 -2.45117,-8.57096 -3.11677,-13.00255 0.6268,-0.78793 1.3985,-1.5038 2.0789,-2.26769 5.27757,8.52402 10.39194,17.12691 15.47411,25.74371 z m -75.72257,-3.76772 c -2.34067,-1.88098 -1.79067,-5.49378 0.87,-7.77596 11.86784,-9.87061 26.41538,-17.6373 41.78812,-22.34674 1.9142,-0.55264 3.8875,-1.31059 5.83197,-1.20431 2.6732,0.065 4.9376,1.51856 5.37597,3.61519 1.2293,5.69666 2.6993,11.32884 3.765,17.0688 0.1688,0.65263 -0.4745,1.36778 -1.2718,1.65386 -13.60904,6.08015 -26.81848,12.93104 -39.51112,20.43247 -0.7377,0.47153 -1.7312,0.4117 -2.2141,-0.0759 -4.87717,-3.791 -9.77144,-7.56877 -14.63404,-11.36732 z m 19.73641,32.71184 c -5.79257,-8.2495 -11.55594,-16.51708 -17.16041,-24.8719 1.079,-0.14562 2.1571,-0.38613 3.2329,-0.47843 3.95287,2.73214 7.56314,5.77791 11.01654,8.91847 4.77817,4.62924 8.14747,10.15836 11.06394,15.81823 -2.72077,0.23553 -5.43277,0.37848 -8.15297,0.61363 z m 12.23377,12.02474 c -2.3956,-0.38056 -4.615,-1.33298 -5.83997,-2.98793 -1.9519,-2.71255 -3.8642,-5.44578 -5.7883,-8.17296 2.6525,-0.17776 5.3121,-0.37865 7.96597,-0.571 1.6355,3.4172 3.1247,6.89843 4.4007,10.4576 0.1679,0.4235 0.147,1.33517 -0.7384,1.27425 z m 47.66319,-25.53403 c -2.804,-2.76929 -5.4262,-5.66469 -7.91337,-8.64155 1.5132,-1.96205 3.03727,-3.92393 4.53517,-5.89194 1.6756,2.85561 3.3628,5.70517 5.01027,8.5751 0.9883,1.77736 0.7999,3.97453 -0.031,6.02276 -0.38367,0.71716 -1.27577,0.27757 -1.60177,-0.0643 z M 937.174,808.62505 c -2.0388,-5.48861 -4.1137,-10.96321 -6.15257,-16.45155 -0.3498,-0.59455 0.1743,-1.46093 1.05177,-1.71535 7.05937,-2.77056 13.97474,-5.9036 20.57461,-9.51452 4.4769,-2.43765 8.78687,-5.10511 13.01197,-7.85762 0.68407,-0.54219 1.72587,-0.43075 2.11777,0.10118 4.2745,4.33233 8.55187,8.65778 12.82524,12.98837 0,0 -12.15094,15.09378 -36.41602,21.05238 -2.3198,0.61113 -4.6683,1.0777 -7.01277,1.39701 z"
   style="stroke-width:0.999999" />




    <path
   id="path3709"
   name=""
   fill="#0071bc"
   space_id="1"
   d="m 373.04147,805.12081 c 2.3834,-2.00601 5.0173,-4.20967 5.6403,-6.89676 0.7634,-3.58056 0.9374,-7.14746 0.8689,-10.66239 -0.097,-3.26978 -1.0797,-6.36286 -2.4066,-9.2856 -2.6419,-5.6437 -5.7496,-11.10979 -9.6538,-16.14838 -0.7056,-0.91272 -1.7749,-1.5913 -2.3705,-2.57301 -1.8962,-2.96188 -3.665,-5.98724 -5.5481,-8.95829 0.3353,-1.56197 -0.5504,-2.9075 -1.299,-4.16226 -0.6831,-0.9558 -1.3595,-2.05972 -2.7711,-2.42422 -3.6272,-5.90055 -7.276,-11.78774 -10.8917,-17.69336 1.7249,-0.32679 3.4994,-0.3997 5.1942,-0.90558 0.2895,-0.93249 -0.7757,-1.64829 -1.6105,-2.06567 -1.5669,-0.78208 -3.6511,-0.0656 -5.473,-0.0588 -3.3264,-5.33961 -6.5952,-10.70725 -9.9014,-16.05687 -0.4038,-0.60802 -0.5502,-1.31521 -0.7582,-1.99809 -0.4617,-1.57298 -1.415,-2.95272 -2.1965,-4.39676 -2.5433,-4.70123 -5.4145,-9.25606 -8.658,-13.60815 -1.4273,-1.91413 -3.8333,-3.21942 -6.5932,-3.8006 -4.3783,-1.09428 -8.8996,-1.94243 -13.5317,-2.50875 -1.6729,-0.1986 -3.4851,0.16169 -5.1438,0.78707 -4.3362,1.56471 -8.5277,3.4665 -12.6922,5.37656 -6.0519,2.83076 -12.0613,5.76239 -17.7992,9.05876 -1.9013,1.09981 -3.9134,2.31431 -4.8913,4.05776 -2.1792,3.90661 -3.9062,7.91392 -5.3636,11.93976 -0.5586,1.45423 -0.8077,2.9505 -0.6364,4.37229 0.1624,1.6462 1.0097,3.08255 1.7384,4.53555 2.4856,4.99237 5.4854,9.75975 8.6334,14.43763 0.7334,1.19222 2.0614,2.024 2.7234,3.25087 3.1673,5.35161 6.2774,10.73073 9.462,16.07403 -0.6743,0.70507 -1.3876,1.38856 -2.0388,2.10129 -1.0086,1.0993 -1.2618,2.51469 -0.7151,3.60559 0.1419,0.30867 0.3522,0.74304 0.8838,0.65252 1.3265,-1.03121 2.4114,-2.24225 3.6327,-3.34973 3.5116,5.9718 7.0678,11.91956 10.5352,17.91026 -0.3292,0.87913 -0.034,1.70534 0.2933,2.46298 0.5921,1.2576 1.3203,2.48981 2.4143,3.47784 0.4347,0.42097 1.2544,0.53883 1.4653,1.11582 1.6698,2.87372 3.3867,5.72789 5.0481,8.60568 0.5893,1.01395 0.6664,2.20073 1.1323,3.25515 2.0435,4.47241 4.5413,8.76265 7.4525,12.83307 2.476,3.61154 5.1953,7.1985 9.1768,9.8061 2.7414,1.7385 5.6541,3.3204 8.7551,4.67666 1.2696,0.53647 2.5447,1.11226 4.0382,1.29524 2.011,0.25706 4.161,-0.12306 6.2421,-0.49631 5.5423,-1.09345 10.9442,-3.01326 16.1394,-5.22123 7.6887,-3.3593 15.1641,-7.3595 21.4743,-12.41774 z M 301.99067,682.2893 c 5.0918,0.38463 9.8777,1.52703 14.5748,2.7457 1.6992,0.35233 2.6475,1.64374 3.2032,2.88395 0.1983,0.60446 -0.7429,0.9342 -1.3137,0.74014 -6.6268,-1.36675 -12.9636,-3.31083 -18.8136,-5.86737 0.7635,-0.25022 1.5584,-0.55353 2.3493,-0.50242 z m -45.4905,35.73293 c -0.6925,-1.0696 -1.3608,-2.35482 -0.812,-3.71535 1.1889,-3.39414 2.4153,-6.80098 4.1796,-10.11037 0.7726,-1.36809 1.3211,-2.97317 3.1138,-3.82444 -0.8932,5.79446 -2.5298,11.61687 -4.9627,17.32877 -0.1774,0.65481 -1.1905,0.89581 -1.5186,0.32132 z m 98.1106,34.3443 c -1.6466,1.94298 -3.2019,3.92873 -4.8492,5.87205 -3.8601,-5.2105 -7.359,-10.69593 -9.2645,-16.77619 -1.1819,-4.28591 -2.1916,-8.64097 -2.7233,-13.09058 0.6504,-0.76868 1.4433,-1.46096 2.1464,-2.20397 5.0181,8.67936 9.8708,17.43258 14.6906,26.19869 z m -75.5748,-6.0498 c -2.2829,-1.95074 -1.6241,-5.54532 1.1042,-7.74618 12.1602,-9.50816 26.9355,-16.83256 42.4434,-21.07615 1.9299,-0.49466 3.9252,-1.19272 5.8656,-1.02792 2.67,0.14664 4.8896,1.66681 5.2645,3.77575 1.0569,5.73111 2.3564,11.4051 3.2484,17.17456 0.1491,0.65742 -0.5145,1.35325 -1.3211,1.61475 -13.7862,5.66695 -27.1964,12.11629 -40.1096,19.23144 -0.7515,0.44907 -1.7428,0.35927 -2.211,-0.14015 -4.7606,-3.93634 -9.5387,-7.86011 -14.2845,-11.80354 z m 18.741,33.29221 c -5.5412,-8.42042 -11.0526,-16.85806 -16.4026,-25.37812 1.0829,-0.1128 2.1678,-0.32098 3.2458,-0.3807 3.8687,2.85011 7.3856,6.00335 10.7428,9.24663 4.6362,4.77127 7.8373,10.39956 10.5818,16.14475 -2.7267,0.15348 -5.4418,0.21433 -8.1678,0.36744 z m 11.8655,12.38831 c -2.383,-0.45238 -4.5726,-1.47173 -5.7472,-3.16281 -1.8693,-2.77012 -3.6982,-5.55978 -5.5391,-8.34374 2.6566,-0.0978 5.321,-0.21843 7.9796,-0.33056 1.5317,3.46496 2.9151,6.98954 4.0832,10.58556 0.1552,0.42818 0.1066,1.33899 -0.7765,1.25145 z m 48.4119,-24.08479 c -2.7192,-2.8526 -5.253,-5.82583 -7.6492,-8.87635 1.5717,-1.9155 3.1543,-3.83052 4.7109,-5.75247 1.5886,2.90486 3.1892,5.80402 4.7493,8.72235 0.9343,1.80628 0.6797,3.99685 -0.2122,6.01907 -0.4054,0.70527 -1.2836,0.23894 -1.5994,-0.11075 z m -35.2806,39.59107 c -1.8723,-5.54758 -3.7811,-11.08227 -5.6535,-16.62958 -0.3319,-0.60484 0.2181,-1.45504 1.1031,-1.68284 7.1397,-2.5564 14.1465,-5.47945 20.8522,-8.88969 4.5485,-2.30146 8.9369,-4.83772 13.2431,-7.46157 0.7002,-0.52133 1.7382,-0.37851 2.1139,0.1634 4.1419,4.45928 8.287,8.9118 12.4278,13.36927 0,0 -12.6008,14.72044 -37.0347,19.94444 -2.3372,0.54091 -4.6986,0.93642 -7.0517,1.18486 z"

        style="stroke-width:0.999999" />

    <path
   id="path3713"
   name=""
   fill="#0071bc"
   space_id="3"
   d="m 680.28209,801.98022 c 2.32177,-2.07705 4.88808,-4.35916 5.42972,-7.06378 0.65502,-3.60193 0.72137,-7.17242 0.5469,-10.68376 -0.19553,-3.26536 -1.27111,-6.32737 -2.68562,-9.20875 -2.81089,-5.56146 -6.08203,-10.93132 -10.13641,-15.84986 -0.73286,-0.89105 -1.82215,-1.53705 -2.44705,-2.50037 -1.98462,-2.90333 -3.84388,-5.874 -5.81582,-8.78689 0.28817,-1.57134 -0.63783,-2.88952 -1.42394,-4.12118 -0.71153,-0.93474 -1.42097,-2.01774 -2.84286,-2.33951 -3.80361,-5.7884 -7.62834,-11.56292 -11.42044,-17.35679 1.7142,-0.37858 3.4857,-0.50506 5.1645,-1.06184 0.2615,-0.94079 -0.825,-1.62415 -1.6721,-2.01617 -1.5897,-0.73456 -3.6514,0.0444 -5.4723,0.10631 -3.4859,-5.23678 -6.9151,-10.50334 -10.3812,-15.75089 -0.4219,-0.59554 -0.5896,-1.29801 -0.8181,-1.97426 -0.5088,-1.55835 -1.5034,-2.90876 -2.3281,-4.32856 -2.6839,-4.62238 -5.6912,-9.0885 -9.0645,-13.34077 -1.4844,-1.87024 -3.9286,-3.10237 -6.7048,-3.60005 -4.4094,-0.96171 -8.9542,-1.67303 -13.6013,-2.09947 -1.6781,-0.14802 -3.4786,0.26663 -5.1177,0.94189 -4.287,1.69474 -8.4192,3.72208 -12.5242,5.75695 -5.9638,3.01199 -11.882,6.12357 -17.5179,9.59153 -1.8673,1.15656 -3.8418,2.43122 -4.7667,4.20343 -2.0603,3.97053 -3.6657,8.02809 -5.001,12.09604 -0.5146,1.4704 -0.7184,2.97354 -0.5044,4.38948 0.212,1.6406 1.1021,3.05076 1.8743,4.48106 2.6352,4.91512 5.7773,9.58993 9.065,14.1707 0.769,1.16948 2.1215,1.9609 2.8202,3.16726 3.3273,5.2536 6.5982,10.53646 9.9425,15.78132 -0.6527,0.72506 -1.345,1.42978 -1.9745,2.16178 -0.9749,1.12925 -1.1854,2.55158 -0.606,3.62552 0.1508,0.30423 0.3744,0.73214 0.9031,0.62549 1.2949,-1.07066 2.3427,-2.31394 3.5301,-3.45771 3.69,5.86312 7.424,11.70095 11.0706,17.58428 -0.3029,0.88846 0.017,1.70564 0.3672,2.45306 0.6299,1.23918 1.3948,2.44883 2.5181,3.40347 0.4473,0.40753 1.2701,0.50082 1.4984,1.0711 1.7557,2.82207 3.5579,5.62312 5.3052,8.4495 0.6197,0.99566 0.7326,2.17963 1.2301,3.21949 2.1774,4.40873 4.8035,8.62172 7.8361,12.60247 2.5839,3.53521 5.4101,7.03849 9.4685,9.52481 2.7925,1.65509 5.7516,3.14839 8.8921,4.41051 1.2848,0.49928 2.5771,1.035 4.0754,1.17286 2.0179,0.19621 4.1555,-0.24851 6.2243,-0.68435 5.5068,-1.26013 10.8484,-3.34193 15.9746,-5.70561 7.58385,-3.58969 14.93525,-7.81356 21.08999,-13.05981 z M 605.55887,681.34758 c 5.101,0.23245 9.9192,1.22841 14.6509,2.30488 1.709,0.30115 2.6959,1.56314 3.2887,2.78598 0.2164,0.59824 -0.7143,0.95624 -1.2907,0.77948 -6.665,-1.1663 -13.0576,-2.91837 -18.982,-5.29726 0.7555,-0.27346 1.5409,-0.60029 2.3331,-0.57308 z m -44.3921,37.08875 c -0.7244,-1.04817 -1.4312,-2.31271 -0.9237,-3.68921 1.0861,-3.42841 2.2092,-6.87061 3.8725,-10.23185 0.731,-1.39075 1.231,-3.01162 2.9971,-3.91656 -0.718,5.81876 -2.1782,11.68783 -4.4378,17.47055 -0.1575,0.65988 -1.1628,0.9313 -1.5082,0.36696 z m 99.1019,31.36949 c -1.58723,1.99176 -3.082,4.02352 -4.67,6.01562 -4.0154,-5.09171 -7.6782,-10.46912 -9.7663,-16.48905 -1.3106,-4.24837 -2.4512,-8.57099 -3.1168,-13.00255 0.6269,-0.78796 1.3985,-1.50379 2.0789,-2.26772 5.2777,8.52405 10.3921,17.12694 15.4742,25.7437 z m -75.7229,-3.76768 c -2.3407,-1.88101 -1.7907,-5.49381 0.87,-7.77596 11.8679,-9.87061 26.4156,-17.6373 41.7884,-22.34674 1.9141,-0.55264 3.8874,-1.31059 5.8319,-1.20431 2.6732,0.065 4.9376,1.51856 5.3761,3.61519 1.2292,5.69666 2.6992,11.32884 3.7649,17.0688 0.1689,0.6526 -0.4745,1.36778 -1.2718,1.65386 -13.6091,6.08015 -26.8186,12.93104 -39.5113,20.43244 -0.7377,0.47156 -1.7312,0.41174 -2.2141,-0.0759 -4.8772,-3.79097 -9.7714,-7.56877 -14.634,-11.36733 z m 19.7366,32.71184 c -5.7927,-8.2495 -11.5561,-16.51708 -17.1606,-24.8719 1.079,-0.14562 2.1571,-0.38613 3.2329,-0.47843 3.9529,2.73214 7.5632,5.77791 11.0167,8.91847 4.7781,4.62921 8.1474,10.15836 11.0639,15.8182 -2.7208,0.23552 -5.4328,0.37851 -8.1529,0.61366 z m 12.2337,12.02474 c -2.3955,-0.38056 -4.615,-1.33298 -5.84,-2.98797 -1.9519,-2.71251 -3.8642,-5.44574 -5.7882,-8.17292 2.6524,-0.17776 5.312,-0.37865 7.966,-0.571 1.6355,3.41717 3.1246,6.89843 4.4007,10.4576 0.1678,0.4235 0.1469,1.33514 -0.7385,1.27425 z m 47.66345,-25.53403 c -2.80399,-2.76929 -5.42626,-5.66469 -7.91345,-8.64158 1.51324,-1.96202 3.03737,-3.9239 4.53525,-5.89194 1.67556,2.85564 3.36282,5.7052 5.01028,8.57513 0.98831,1.77733 0.79993,3.97453 -0.0308,6.02276 -0.38371,0.71717 -1.27579,0.27757 -1.60187,-0.0643 z m -34.07035,40.63725 c -2.0388,-5.48861 -4.1136,-10.96324 -6.1526,-16.45155 -0.3498,-0.59455 0.1744,-1.46093 1.0519,-1.71535 7.0594,-2.77056 13.9747,-5.9036 20.5746,-9.51456 4.477,-2.43761 8.7869,-5.10507 13.01199,-7.85758 0.68418,-0.54222 1.72595,-0.43078 2.11783,0.10118 4.27452,4.33229 8.55195,8.65778 12.82538,12.98833 0,0 -12.15105,15.09382 -36.4163,21.05242 -2.3198,0.61113 -4.6683,1.07767 -7.0128,1.39701 z"
   style="stroke-width:0.999999" /><path
   id="path3715"
   name=""
   fill="#0071bc"
   space_id="4"
   d="m 837.56642,802.98001 c 2.3218,-2.07701 4.888,-4.35912 5.42967,-7.06374 0.655,-3.60197 0.7213,-7.17242 0.5469,-10.68376 -0.1956,-3.2654 -1.27107,-6.32737 -2.68557,-9.20879 -2.8109,-5.56142 -6.08207,-10.93128 -10.13647,-15.84982 -0.7328,-0.89106 -1.82207,-1.53705 -2.44697,-2.50037 -1.9846,-2.90333 -3.8439,-5.874 -5.8158,-8.7869 0.2881,-1.57134 -0.63787,-2.88955 -1.42397,-4.12117 -0.7115,-0.93475 -1.4209,-2.01774 -2.8428,-2.33954 -3.80357,-5.78841 -7.62827,-11.56289 -11.42044,-17.35676 1.7142,-0.37858 3.48567,-0.50506 5.16457,-1.06187 0.2614,-0.94076 -0.8251,-1.62412 -1.6721,-2.01614 -1.5897,-0.7346 -3.65147,0.0444 -5.47227,0.10631 -3.48597,-5.23678 -6.91517,-10.50337 -10.38114,-15.75089 -0.422,-0.59554 -0.5896,-1.29801 -0.8182,-1.97429 -0.5088,-1.55835 -1.5033,-2.90873 -2.3281,-4.32854 -2.6839,-4.6224 -5.69107,-9.08849 -9.06437,-13.34079 -1.48447,-1.87021 -3.92867,-3.10235 -6.70477,-3.60002 -4.40937,-0.96172 -8.95414,-1.67307 -13.60124,-2.09947 -1.67817,-0.14802 -3.47867,0.26663 -5.11777,0.94188 -4.28687,1.69475 -8.41907,3.72209 -12.52414,5.75696 -5.96377,3.01196 -11.88191,6.12353 -17.51786,9.5915 -1.86723,1.15659 -3.84179,2.43125 -4.76666,4.20342 -2.06036,3.97056 -3.66568,8.02813 -5.00098,12.09608 -0.51463,1.4704 -0.71837,2.97354 -0.50441,4.38948 0.21193,1.6406 1.1021,3.05076 1.8743,4.48106 2.63516,4.91512 5.77729,9.58989 9.06494,14.1707 0.76906,1.16948 2.12153,1.96089 2.82023,3.16722 3.32737,5.25364 6.59817,10.5365 9.94257,15.78135 -0.6528,0.72507 -1.3451,1.42976 -1.9745,2.16179 -0.975,1.12925 -1.1855,2.55158 -0.606,3.62552 0.1507,0.30423 0.3744,0.73211 0.903,0.62549 1.2949,-1.07069 2.34277,-2.31394 3.53007,-3.45772 3.6901,5.86313 7.42407,11.70096 11.07057,17.58425 -0.3029,0.88846 0.017,1.70568 0.3673,2.4531 0.62977,1.23918 1.39467,2.44883 2.51797,3.40343 0.4473,0.40753 1.2702,0.50082 1.4984,1.07114 1.7557,2.82204 3.55787,5.62309 5.30527,8.44947 0.6196,0.99569 0.7325,2.17966 1.23,3.21949 2.1775,4.40876 4.80347,8.62172 7.83617,12.6025 2.58377,3.53521 5.40997,7.03849 9.46834,9.52481 2.7925,1.65506 5.7517,3.14839 8.89207,4.41051 1.2848,0.49928 2.5771,1.035 4.0754,1.17286 2.01787,0.19621 4.15547,-0.24851 6.22437,-0.68435 5.50677,-1.26013 10.84824,-3.34193 15.97451,-5.70561 7.58377,-3.58969 14.93514,-7.81356 21.08981,-13.05981 z m -74.72297,-120.6326 c 5.10097,0.23245 9.91917,1.22838 14.65094,2.30488 1.709,0.30115 2.6959,1.56313 3.2887,2.78597 0.2164,0.59825 -0.7143,0.95625 -1.2908,0.77949 -6.66497,-1.1663 -13.05754,-2.91837 -18.98191,-5.29726 0.75557,-0.27346 1.54097,-0.60029 2.33307,-0.57308 z m -44.39197,37.08874 c -0.72438,-1.04819 -1.43119,-2.3127 -0.9236,-3.6892 1.08604,-3.42842 2.20913,-6.87061 3.87246,-10.23186 0.73101,-1.39074 1.23097,-3.01162 2.99709,-3.91659 -0.71806,5.81879 -2.17827,11.68783 -4.43779,17.47059 -0.15758,0.65988 -1.16288,0.93129 -1.5082,0.36696 z m 99.10153,31.3695 c -1.5872,1.99176 -3.08197,4.02352 -4.66987,6.01562 -4.0154,-5.09171 -7.67817,-10.46913 -9.76627,-16.48908 -1.3107,-4.24834 -2.45117,-8.57096 -3.11687,-13.00256 0.6269,-0.78792 1.3986,-1.50376 2.07887,-2.26769 5.2777,8.52406 10.39207,17.12695 15.47414,25.74371 z m -75.72257,-3.76769 c -2.34067,-1.881 -1.79067,-5.4938 0.87,-7.77595 11.86784,-9.87061 26.41548,-17.6373 41.78822,-22.34674 1.9142,-0.55264 3.88737,-1.31059 5.83197,-1.20431 2.6732,0.065 4.93757,1.51852 5.37597,3.61519 1.2292,5.69665 2.6993,11.32884 3.7649,17.0688 0.1689,0.65259 -0.4745,1.36778 -1.2718,1.65386 -13.60904,6.08015 -26.81838,12.93104 -39.51102,20.43244 -0.7378,0.47152 -1.7313,0.41173 -2.2142,-0.0759 -4.87717,-3.791 -9.77134,-7.56877 -14.63394,-11.36733 z m 19.73651,32.71181 c -5.79257,-8.24946 -11.55594,-16.51704 -17.16051,-24.87186 1.079,-0.14562 2.1572,-0.38617 3.23297,-0.47843 3.9528,2.73214 7.56317,5.77787 11.01657,8.91843 4.77807,4.62925 8.14747,10.1584 11.06384,15.81824 -2.72067,0.23552 -5.43267,0.37851 -8.15287,0.61362 z m 12.23377,12.02478 c -2.3956,-0.38057 -4.615,-1.33298 -5.84,-2.98797 -1.95187,-2.71251 -3.86417,-5.44578 -5.78827,-8.17293 2.6525,-0.17775 5.3121,-0.37868 7.96597,-0.57099 1.6355,3.41717 3.1246,6.89843 4.40067,10.4576 0.1679,0.4235 0.147,1.33513 -0.73837,1.27425 z m 47.66319,-25.53403 c -2.804,-2.76929 -5.4263,-5.66469 -7.91337,-8.64158 1.5132,-1.96202 3.03727,-3.92394 4.53517,-5.89194 1.6755,2.85564 3.3628,5.70516 5.01027,8.57509 0.9883,1.77736 0.7999,3.97457 -0.031,6.02276 -0.3837,0.71717 -1.27577,0.27757 -1.60187,-0.0643 z m -34.07025,40.63725 c -2.0388,-5.48861 -4.1136,-10.96325 -6.1525,-16.45155 -0.34987,-0.59459 0.1743,-1.46093 1.0518,-1.71539 7.05937,-2.77052 13.97464,-5.90356 20.57451,-9.51452 4.477,-2.43761 8.78697,-5.10511 13.01194,-7.85762 0.6842,-0.54218 1.726,-0.43074 2.1178,0.10118 4.27457,4.33233 8.55197,8.65779 12.82534,12.98837 0,0 -12.15094,15.09382 -36.41612,21.05239 -2.3197,0.61113 -4.6682,1.0777 -7.01267,1.397 z"
   style="stroke-width:0.999999" /><path
   id="path3719"
   name=""
   fill="#0071bc"
   space_id="6"
   d="m 338.97037,1195.2483 c -2.8619,-1.2306 -6.0127,-2.5965 -8.6939,-1.9482 -3.5425,0.9236 -6.8086,2.3677 -9.9195,4.0052 -2.8791,1.5532 -5.2029,3.8187 -7.2201,6.3155 -3.8594,4.8924 -7.3513,10.1214 -10.1038,15.8707 -0.4993,1.0401 -0.6263,2.3001 -1.2366,3.2728 -1.7969,3.023 -3.7077,5.9608 -5.5186,8.9764 -1.5465,0.4009 -2.3518,1.7959 -3.1376,3.0278 -0.548,1.0391 -1.2313,2.1387 -0.924,3.5638 -3.6471,5.8884 -7.2726,11.79 -10.9295,17.6702 -1.0656,-1.3952 -1.9266,-2.9485 -3.1388,-4.2364 -0.9635,0.1589 -1.1254,1.4325 -1.1241,2.3659 0,1.7512 1.5793,3.2925 2.4021,4.918 -3.2806,5.3678 -6.6122,10.6968 -9.9109,16.0511 -0.3624,0.6335 -0.9287,1.0815 -1.4458,1.5737 -1.1989,1.118 -2.0045,2.5889 -2.9447,3.9351 -3.0613,4.3815 -5.8447,8.9905 -8.2799,13.8414 -1.0707,2.1342 -1.1584,4.87 -0.44,7.5974 0.9855,4.4041 2.2552,8.8256 3.8264,13.2197 0.5728,1.5843 1.7073,3.0426 3.0104,4.2446 3.3432,3.1738 6.9228,6.0672 10.4977,8.9329 5.2443,4.1396 10.5597,8.1958 16.0793,11.8461 1.8356,1.2061 3.8236,2.4598 5.8205,2.5518 4.4689,0.1959 8.8252,-0.058 13.077,-0.5607 1.5503,-0.1528 2.9995,-0.6013 4.1934,-1.3919 1.3985,-0.8836 2.3025,-2.285 3.2743,-3.5879 3.3473,-4.4607 6.2631,-9.2799 9.0323,-14.1915 0.7367,-1.1902 0.8846,-2.7502 1.6842,-3.8921 3.3627,-5.2311 6.7757,-10.4232 10.1233,-15.666 0.9326,0.2864 1.8634,0.6175 2.7925,0.8799 1.4349,0.4085 2.8135,10e-5 3.5434,-0.9779 0.2122,-0.265 0.5062,-0.648 0.1866,-1.0825 -1.5165,-0.7233 -3.0856,-1.1498 -4.6232,-1.7447 3.7627,-5.8168 7.484,-11.6628 11.2832,-17.4487 0.9335,-0.099 1.5396,-0.7342 2.0701,-1.3666 0.8584,-1.0933 1.6332,-2.2966 2.0256,-3.7175 0.1812,-0.5775 -0.081,-1.363 0.3401,-1.8102 1.8198,-2.7813 3.6007,-5.5959 5.4278,-8.3714 0.6419,-0.9815 1.6682,-1.5826 2.4016,-2.472 3.0809,-3.8322 5.7953,-7.9888 8.1278,-12.4164 2.1175,-3.8326 4.104,-7.8718 4.6489,-12.5999 0.3244,-3.2299 0.4321,-6.5427 0.2537,-9.9226 -0.089,-1.3756 -0.1474,-2.7733 -0.6534,-4.1903 -0.6721,-1.9127 -1.976,-3.664 -3.2431,-5.3565 -3.4629,-4.4633 -7.6014,-8.4304 -11.9049,-12.0837 -6.4507,-5.3654 -13.3786,-10.253 -20.7297,-13.6244 z m -77.9208,118.5923 c -1.9383,-4.7242 -3.0651,-9.5135 -4.0825,-14.2582 -0.4468,-1.6769 0.2817,-3.1036 1.1411,-4.1564 0.4514,-0.4482 1.1682,0.2447 1.2507,0.8422 1.7504,6.5359 2.8547,13.0717 3.1933,19.4469 -0.5664,-0.57 -1.1936,-1.1446 -1.5026,-1.8745 z m 52.3394,24.6335 c -0.6454,1.0986 -1.4944,2.2723 -2.9566,2.392 -3.5669,0.4595 -7.1618,0.8912 -10.911,0.7989 -1.5692,-0.077 -3.2499,0.1521 -4.8147,-1.0681 5.5796,-1.8003 11.5176,-2.9487 17.714,-3.3359 0.6649,-0.135 1.3345,0.6623 0.9683,1.2132 z m -13.3041,-103.0933 c 2.4751,0.6002 4.9474,1.0998 7.4231,1.7007 -2.9259,5.7868 -6.2596,11.3743 -10.8393,15.8044 -3.3008,2.9785 -6.7404,5.8341 -10.479,8.3049 -0.9787,-0.2366 -1.9531,-0.6348 -2.9325,-0.93 5.5069,-8.3777 11.1542,-16.6405 16.8277,-24.88 z m 28.4865,70.2615 c -0.7197,2.9152 -4.2279,3.9386 -7.4186,2.487 -13.952,-6.6044 -27.1249,-16.5257 -37.8728,-28.4832 -1.3076,-1.5031 -2.8265,-2.9734 -3.5494,-4.7817 -1.0673,-2.4518 -0.703,-5.1178 1.0137,-6.3988 4.6485,-3.5149 9.137,-7.221 13.8937,-10.6059 0.5206,-0.4281 1.4403,-0.146 2.0358,0.4567 11.2478,9.7805 23.0264,18.874 35.1772,27.2247 0.7384,0.4703 1.1028,1.3966 0.8639,2.04 -1.3832,6.0205 -2.7473,12.0507 -4.1435,18.0611 z m 21.3513,-31.6815 c -5.0409,8.729 -10.1106,17.4392 -15.3264,26.042 -0.5868,-0.9171 -1.2591,-1.7936 -1.7961,-2.7303 0.8125,-4.7361 2.0536,-9.2935 3.4468,-13.7487 2.1852,-6.2837 5.7801,-11.669 9.6843,-16.6985 1.36,2.3682 2.6322,4.7676 3.9914,7.1355 z m 5.7512,-16.1613 c 0.6641,2.3329 0.7354,4.7471 -0.2492,6.5553 -1.6376,2.9131 -3.3107,5.7989 -4.9734,8.6928 -1.2788,-2.3306 -2.5815,-4.658 -3.8741,-6.9839 2.41,-2.9229 4.9398,-5.7402 7.63,-8.397 0.3135,-0.3306 1.149,-0.6958 1.4668,0.1326 z m -43.2387,-32.4686 c -1.3301,3.7098 -2.8512,7.3078 -4.503,10.8177 -2.417,-0.5457 -4.8384,-1.1014 -7.2542,-1.6307 1.8838,-2.7227 3.7571,-5.4534 5.6659,-8.1568 1.1955,-1.645 3.2675,-2.3999 5.4748,-2.5099 0.8121,0.045 0.7893,1.04 0.6168,1.4797 z m 51.2089,13.7776 c -4.1187,4.1615 -8.2095,8.3497 -12.3278,12.5112 -0.3919,0.5678 -1.3986,0.4573 -1.9989,-0.2311 -5.4869,-5.235 -11.2419,-10.1866 -17.2973,-14.6507 -4.097,-3.0331 -8.332,-5.8181 -12.6084,-8.4902 -0.78,-0.3921 -1.1178,-1.3838 -0.8004,-1.9634 2.1281,-5.7019 4.2488,-11.4035 6.3757,-17.1037 0,0 18.8082,4.6606 34.4356,24.1566 1.5316,1.8463 2.9441,3.7797 4.2215,5.7714 z"
   style="stroke-width:0.999999" /><path
   id="path3721"
   name=""
   fill="#0071bc"
   space_id="7"
   d="m 495.12767,1194.6314 c -2.8472,-1.2642 -5.9818,-2.667 -8.6703,-2.0503 -3.5532,0.8818 -6.8361,2.2874 -9.9661,3.8884 -2.8971,1.5192 -5.2474,3.7571 -7.2938,6.23 -3.9167,4.8466 -7.4698,10.0343 -10.2897,15.7508 -0.5116,1.034 -0.6533,2.2925 -1.2751,3.2579 -1.8323,3.0018 -3.7775,5.9169 -5.6238,8.911 -1.551,0.3825 -2.3728,1.768 -3.173,2.9907 -0.5601,1.0325 -1.2563,2.1241 -0.9658,3.5528 -3.7161,5.8449 -7.4108,11.7035 -11.1365,17.5403 -1.0491,-1.4077 -1.8918,-2.971 -3.0889,-4.273 -0.9652,0.1476 -1.1421,1.4192 -1.1518,2.3525 -0.017,1.7511 1.5395,3.3113 2.3441,4.9459 -3.3435,5.3288 -6.7374,10.6181 -10.099,15.9333 -0.3697,0.6293 -0.9414,1.0706 -1.4642,1.5568 -1.212,1.1037 -2.0349,2.565 -2.9908,3.9001 -3.1126,4.3452 -5.95,8.9211 -8.4421,13.743 -1.0957,2.1216 -1.2155,4.8561 -0.5294,7.5917 0.9338,4.4155 2.1513,8.8516 3.6707,13.2639 0.5541,1.5908 1.6714,3.0623 2.9603,4.2796 3.3056,3.213 6.851,6.1483 10.3919,9.0557 5.1953,4.2011 10.4625,8.3195 15.9389,12.0344 1.8213,1.2277 3.7944,2.5047 5.79,2.6202 4.4664,0.2481 8.8253,0.046 13.0828,-0.407 1.552,-0.1344 3.0063,-0.566 4.2094,-1.3425 1.4089,-0.867 2.3292,-2.2577 3.3163,-3.549 3.3995,-4.421 6.3718,-9.2055 9.1986,-14.0843 0.7506,-1.1815 0.9168,-2.7396 1.7299,-3.872 3.4239,-5.1911 6.8978,-10.3428 10.3069,-15.546 0.929,0.2974 1.8559,0.6395 2.7819,0.9129 1.4299,0.4251 2.8132,0.034 3.5546,-0.9363 0.2153,-0.2626 0.5138,-0.642 0.1993,-1.0802 -1.5079,-0.741 -3.0719,-1.186 -4.6023,-1.7989 3.8308,-5.7722 7.6205,-11.574 11.4876,-17.3148 0.9345,-0.089 1.5482,-0.7162 2.0859,-1.3422 0.8713,-1.0831 1.6601,-2.2772 2.0693,-3.6934 0.188,-0.5753 -0.065,-1.3639 0.3614,-1.8062 1.8522,-2.7596 3.6662,-5.5531 5.5258,-8.3068 0.6534,-0.9738 1.6867,-1.563 2.4305,-2.4436 3.1258,-3.7957 5.8889,-7.9201 8.2733,-12.3199 2.1624,-3.8077 4.1962,-7.8231 4.7968,-12.5444 0.3624,-3.2261 0.5089,-6.5373 0.3702,-9.9189 -0.072,-1.3766 -0.1145,-2.7749 -0.604,-4.1977 -0.6496,-1.9205 -1.9328,-3.6871 -3.1799,-5.3944 -3.4102,-4.5037 -7.5018,-8.5192 -11.7619,-12.2228 -6.3872,-5.4411 -13.2572,-10.4096 -20.5681,-13.8673 z m -79.3103,117.6676 c -1.8825,-4.7466 -2.953,-9.5488 -3.9144,-14.3053 -0.427,-1.682 0.3183,-3.0999 1.1898,-4.1426 0.4567,-0.4428 1.1653,0.2588 1.2408,0.8569 1.6733,6.5561 2.7007,13.1043 2.9644,19.483 -0.5597,-0.5766 -1.1801,-1.1585 -1.4806,-1.892 z m 52.0461,25.2475 c -0.6583,1.0908 -1.521,2.2545 -2.9845,2.357 -3.572,0.4175 -7.1718,0.8069 -10.9196,0.6705 -1.5685,-0.093 -3.2514,0.1141 -4.8018,-1.1246 5.6004,-1.7345 11.5514,-2.8131 17.752,-3.1274 0.6664,-0.1272 1.3267,0.6778 0.9538,1.2245 z m -12.0907,-103.2427 c 2.4679,0.6293 4.9342,1.158 7.4028,1.7879 -2.9939,5.7521 -6.3931,11.2999 -11.0246,15.6758 -3.3355,2.9395 -6.8086,5.7544 -10.576,8.1811 -0.9758,-0.2482 -1.9454,-0.6578 -2.9214,-0.9644 5.6053,-8.3124 11.3493,-16.5083 17.1192,-24.6804 z m 27.6582,70.5915 c -0.7539,2.9067 -4.274,3.8887 -7.4473,2.3998 -13.8733,-6.7681 -26.9286,-16.8436 -37.5352,-28.9268 -1.2899,-1.5184 -2.7912,-3.0064 -3.4929,-4.823 -1.0384,-2.4641 -0.6428,-5.1258 1.0889,-6.3864 4.6895,-3.4601 9.2213,-7.1132 14.0174,-10.4418 0.5257,-0.422 1.442,-0.1289 2.0303,0.4805 11.132,9.9123 22.8029,19.1436 34.8546,27.6366 0.7329,0.479 1.0864,1.4094 0.8399,2.05 -1.454,6.0037 -2.8888,12.0176 -4.3557,18.0111 z m 21.7226,-31.4281 c -5.1434,8.6691 -10.3152,17.3192 -15.6318,25.8601 -0.5759,-0.924 -1.2379,-1.8083 -1.7637,-2.7514 0.868,-4.7261 2.1626,-9.2686 3.6081,-13.7071 2.259,-6.2576 5.917,-11.6001 9.88,-16.5835 1.3322,2.384 2.576,4.7982 3.9074,7.1819 z m 5.9407,-16.0924 c 0.6367,2.3405 0.6796,4.7553 -0.3264,6.5519 -1.6719,2.8935 -3.3788,5.7595 -5.0754,8.6337 -1.2513,-2.3455 -2.5265,-4.6881 -3.7917,-7.0289 2.4443,-2.8944 5.007,-5.6818 7.7283,-8.3067 0.3172,-0.3268 1.1571,-0.6823 1.4651,0.15 z M 468.24047,1224.4 c -1.3736,3.6937 -2.9369,7.2736 -4.6299,10.7638 -2.4104,-0.5741 -4.8251,-1.1582 -7.2346,-1.7158 1.9157,-2.7004 3.8212,-5.409 5.7615,-8.0896 1.2147,-1.6309 3.2955,-2.3613 5.504,-2.4455 0.8116,0.053 0.7769,1.0493 0.5994,1.487 z m 51.0434,14.3788 c -4.1674,4.1128 -8.3072,8.2526 -12.4742,12.3653 -0.3985,0.5632 -1.4037,0.4408 -1.9961,-0.2547 -5.4249,-5.2992 -11.1212,-10.3181 -17.1237,-14.8532 -4.061,-3.0812 -8.263,-5.9157 -12.5077,-8.6379 -0.7753,-0.4012 -1.1015,-1.3968 -0.7772,-1.9727 2.195,-5.6764 4.3825,-11.3527 6.5765,-17.0276 0,0 18.7521,4.8816 34.1489,24.5601 1.5099,1.8642 2.8996,3.8139 4.1535,5.8205 z"
   style="stroke-width:0.999999" /><path
   id="path3723"
   name=""
   fill="#0071bc"
   space_id="8"
   d="m 650.46877,1193.6236 c -2.8798,-1.3278 -6.0501,-2.8011 -8.7954,-2.2123 -3.6293,0.846 -6.9911,2.2293 -10.2002,3.8134 -2.9706,1.5043 -5.3953,3.7482 -7.514,6.2356 -4.0568,4.8764 -7.7483,10.1051 -10.7014,15.8828 -0.5355,1.0451 -0.6981,2.324 -1.3448,3.2975 -1.9086,3.0289 -3.9307,5.9678 -5.8532,8.9885 -1.5843,0.367 -2.4408,1.7654 -3.2729,2.9981 -0.585,1.0429 -1.3095,2.1439 -1.0345,3.6022 -3.867,5.8955 -7.7124,11.8049 -11.5891,17.692 -1.0475,-1.4479 -1.8826,-3.0514 -3.0822,-4.394 -0.9845,0.1364 -1.183,1.428 -1.2063,2.3778 -0.043,1.7822 1.52,3.3922 2.3143,5.0682 -3.4803,5.3754 -7.0114,10.71 -10.5098,16.0713 -0.3855,0.6352 -0.9737,1.076 -1.5129,1.5632 -1.2495,1.106 -2.1083,2.5814 -3.1005,3.9265 -3.2312,4.3776 -6.1854,8.9941 -8.7918,13.8659 -1.1459,2.1435 -1.3075,4.9251 -0.6488,7.7195 0.8865,4.5076 2.0616,9.0406 3.5443,13.5536 0.5409,1.6273 1.6568,3.1411 2.9511,4.3987 3.318,3.3182 6.8841,6.3572 10.4462,9.3678 5.2271,4.3511 10.5287,8.6194 16.0489,12.4798 1.836,1.2759 3.8258,2.6043 5.8553,2.7508 4.5426,0.3172 8.9822,0.1743 13.3221,-0.2249 1.5817,-0.1145 3.0681,-0.5326 4.304,-1.3055 1.4465,-0.8621 2.4033,-2.2642 3.4267,-3.5643 3.5243,-4.4508 6.6189,-9.2776 9.5666,-14.2023 0.7811,-1.1918 0.973,-2.7753 1.8168,-3.9161 3.5603,-5.2342 7.1707,-10.4275 10.7158,-15.674 0.9415,0.3162 1.8799,0.6775 2.8183,0.9693 1.4494,0.4535 2.8631,0.075 3.6316,-0.9014 0.2229,-0.2643 0.5323,-0.6461 0.2188,-1.0967 -1.5242,-0.776 -3.1095,-1.2516 -4.6584,-1.8977 3.9827,-5.8197 7.9241,-11.67 11.94323,-17.4572 0.95238,-0.076 1.58607,-0.7064 2.14258,-1.336 0.90244,-1.0897 1.7227,-2.2938 2.15966,-3.7294 0.19964,-0.5828 -0.0461,-1.389 0.39393,-1.833 1.92528,-2.7821 3.81199,-5.599 5.74468,-8.3751 0.67919,-0.9818 1.73939,-1.5665 2.50923,-2.452 3.23641,-3.8182 6.10853,-7.9761 8.59919,-12.4199 2.25614,-3.8441 4.38439,-7.9019 5.06399,-12.6989 0.41564,-3.2779 0.6127,-6.6464 0.52044,-10.0904 -0.0537,-1.4021 -0.0766,-2.8259 -0.55401,-4.2812 -0.63341,-1.9642 -1.91396,-3.7808 -3.15854,-5.5366 -3.40582,-4.6334 -7.51219,-8.7799 -11.79478,-12.6112 -6.42234,-5.6304 -13.34289,-10.7872 -20.7341,-14.4124 z m -82.4286,118.6183 c -1.8474,-4.8585 -2.8675,-9.7618 -3.7772,-14.617 -0.4103,-1.7182 0.3688,-3.1507 1.2711,-4.1993 0.4712,-0.4442 1.1822,0.28 1.2505,0.8901 1.6083,6.6972 2.5592,13.3772 2.7351,19.8734 -0.5612,-0.5949 -1.1844,-1.1962 -1.4795,-1.9472 z m 52.609,26.4513 c -0.6859,1.1008 -1.5808,2.2728 -3.072,2.3559 -3.6417,0.3733 -7.3113,0.7175 -11.1241,0.5244 -1.5947,-0.12 -3.3111,0.069 -4.8711,-1.2141 5.7254,-1.6845 11.7982,-2.6961 18.1139,-2.9262 0.6801,-0.1196 1.3405,0.7092 0.9532,1.26 z m -10.8117,-105.2593 c 2.5027,0.6764 5.0055,1.2501 7.5088,1.9271 -3.1305,5.8113 -6.6705,11.4088 -11.4481,15.7956 -3.4375,2.9437 -7.0133,5.7586 -10.883,8.174 -0.9898,-0.2666 -1.9707,-0.6976 -2.9595,-1.0238 5.8254,-8.3796 11.7906,-16.6385 17.7818,-24.8729 z m 27.1296,72.2513 c -0.8095,2.9475 -4.4066,3.8961 -7.6151,2.3347 -14.0228,-7.0897 -27.1651,-17.5339 -37.7858,-29.9862 -1.2909,-1.5642 -2.7976,-3.1005 -3.4853,-4.9597 -1.0213,-2.5231 -0.5802,-5.2264 1.2007,-6.4844 4.8232,-3.4538 9.4887,-7.1066 14.4186,-10.4252 0.5412,-0.422 1.4697,-0.1104 2.0595,0.5186 11.1872,10.25 22.9326,19.8149 35.0763,28.634 0.739,0.4983 1.0852,1.4505 0.8252,2.0989 -1.5668,6.0896 -3.1144,12.19 -4.6941,18.2693 z m 22.56495,-31.6743 c -5.36065,8.7493 -10.74985,17.4787 -16.28505,26.095 -0.5727,-0.9488 -1.2337,-1.8585 -1.7553,-2.8259 0.9519,-4.7978 2.3354,-9.4028 3.871,-13.8994 2.3898,-6.3366 6.1904,-11.7214 10.2963,-16.7363 1.3214,2.4459 2.55248,4.9211 3.87305,7.3666 z m 6.27972,-16.2935 c 0.6141,2.3915 0.62289,4.8501 -0.42712,6.664 -1.74345,2.921 -3.52232,5.8134 -5.29083,8.7143 -1.23969,-2.4055 -2.50372,-4.8083 -3.75752,-7.2093 2.52976,-2.9105 5.17852,-5.7105 7.98641,-8.3429 0.32782,-0.3281 1.18753,-0.6777 1.48896,0.174 z m -43.14077,-34.1835 c -1.4517,3.7398 -3.0946,7.3609 -4.8684,10.8889 -2.445,-0.6193 -4.8944,-1.2487 -7.3388,-1.8511 1.9891,-2.7209 3.9676,-5.4501 5.9813,-8.1505 1.2601,-1.6425 3.3886,-2.3559 5.6377,-2.4094 0.8251,0.068 0.7755,1.0792 0.5885,1.522 z m 51.74564,15.3744 c -4.30122,4.1258 -8.57482,8.2795 -12.87573,12.4053 -0.41376,0.5674 -1.43519,0.4283 -2.0279,-0.2881 -5.44501,-5.4722 -11.17031,-10.6632 -17.21421,-15.3661 -4.0889,-3.1949 -8.3247,-6.1408 -12.6058,-8.973 -0.7832,-0.4196 -1.1009,-1.4377 -0.7624,-2.0191 2.3163,-5.746 4.625,-11.4919 6.9402,-17.2361 0,0 19.0159,5.2401 34.40261,25.4925 1.50968,1.9194 2.89605,3.924 4.14323,5.9845 z"
   style="stroke-width:1.01794" /><path
   id="path3725"
   name=""
   fill="#0071bc"
   space_id="9"
   d="m 800.8024,1190.8874 c -2.9026,-1.2378 -6.09837,-2.612 -8.81207,-1.9472 -3.5856,0.9461 -6.88957,2.4187 -10.03587,4.0869 -2.91147,1.5819 -5.25857,3.8836 -7.29427,6.4188 -3.89477,4.9672 -7.41584,10.2743 -10.18664,16.1062 -0.5027,1.055 -0.6274,2.3318 -1.2428,3.3188 -1.8111,3.0675 -3.73767,6.049 -5.56297,9.1091 -1.5653,0.4107 -2.3769,1.8262 -3.1691,3.0763 -0.5518,1.0542 -1.24057,2.1702 -0.92507,3.6128 -3.6765,5.9754 -7.33117,11.9641 -11.01757,17.9314 -1.0836,-1.4101 -1.9605,-2.9808 -3.19227,-4.2818 -0.9753,0.1641 -1.1356,1.4544 -1.1314,2.3999 0.01,1.7738 1.6095,3.3304 2.44787,4.9744 -3.30687,5.447 -6.66547,10.855 -9.99069,16.2882 -0.36521,0.643 -0.93754,1.0985 -1.4598,1.5987 -1.21101,1.136 -2.02269,2.6283 -2.9709,3.9947 -3.08778,4.4473 -5.89324,9.1243 -8.34535,14.0452 -1.07811,2.165 -1.15875,4.9365 -0.42299,7.697 1.01159,4.4581 2.311,8.9329 3.9157,13.3791 0.58492,1.6031 1.73857,3.0767 3.06211,4.2904 3.39595,3.2049 7.03046,6.1248 10.66035,9.0167 5.32447,4.1775 10.72077,8.2701 16.32264,11.951 1.863,1.2161 3.88047,2.4801 5.90327,2.5674 4.52747,0.1849 8.93927,-0.085 13.24444,-0.6073 1.5699,-0.1597 3.0364,-0.6182 4.24347,-1.4227 1.4139,-0.8991 2.3252,-2.3212 3.3057,-3.6439 3.37727,-4.5285 6.31627,-9.4188 9.10647,-14.4021 0.7425,-1.2078 0.88767,-2.7885 1.69427,-3.9476 3.3904,-5.3088 6.83187,-10.5784 10.20697,-15.899 0.9456,0.2875 1.8894,0.6199 2.83117,0.8829 1.4547,0.4094 2.8499,-0.01 3.5862,-1.0011 0.2143,-0.269 0.5109,-0.658 0.186,-1.0971 -1.5384,-0.728 -3.1289,-1.1554 -4.68817,-1.7534 3.79377,-5.9033 7.54554,-11.836 11.37654,-17.7082 0.9451,-0.1036 1.5573,-0.7482 2.0927,-1.3904 0.8662,-1.11 1.64737,-2.3313 2.04067,-3.7718 0.1818,-0.5854 -0.086,-1.3802 0.3391,-1.8346 1.8348,-2.8226 3.6303,-5.6789 5.47267,-8.4957 0.6472,-0.9963 1.6849,-1.6083 2.4252,-2.5113 3.1092,-3.891 5.84617,-8.1096 8.19557,-12.6013 2.1333,-3.8888 4.13327,-7.9861 4.67107,-12.7769 0.3189,-3.2726 0.418,-6.6287 0.2266,-10.0516 -0.094,-1.3932 -0.1576,-2.8087 -0.6743,-4.2424 -0.6866,-1.9356 -2.01267,-3.7056 -3.30117,-5.4161 -3.5211,-4.5107 -7.72497,-8.5166 -12.09504,-12.2041 -6.55027,-5.4154 -13.58244,-10.3453 -21.03861,-13.7382 z m -78.57144,120.3598 c -1.97748,-4.7795 -3.13338,-9.6273 -4.1781,-14.4304 -0.45757,-1.6971 0.27586,-3.1444 1.14337,-4.2134 0.45587,-0.4554 1.18401,0.2444 1.26946,0.8492 1.79265,6.6153 2.93088,13.2321 3.29302,19.6888 -0.57541,-0.5757 -1.21252,-1.1559 -1.52775,-1.8942 z m 53.09003,24.7946 c -0.6504,1.1146 -1.50687,2.3062 -2.98767,2.4318 -3.6115,0.4761 -7.25167,0.9242 -11.04957,0.8419 -1.58977,-0.073 -3.29147,0.1641 -4.88007,-1.0673 5.64627,-1.8403 11.65754,-3.0215 17.93284,-3.4323 0.67307,-0.1388 1.35377,0.6668 0.98437,1.2259 z m -13.78604,-104.3862 c 2.5088,0.6007 5.0147,1.0993 7.52417,1.7005 -2.94627,5.8705 -6.30627,11.5401 -10.93194,16.0413 -3.3344,3.0269 -6.80997,5.9297 -10.58937,8.4437 -0.99217,-0.2365 -1.98017,-0.6371 -2.97317,-0.9332 5.55287,-8.5024 11.24824,-16.8892 16.97031,-25.2523 z m 29.06598,71.0843 c -0.7203,2.9551 -4.27077,4.002 -7.50717,2.5415 -14.15204,-6.648 -27.52508,-16.6578 -38.44782,-28.7376 -1.329,-1.5188 -2.8719,-3.0034 -3.6096,-4.8329 -1.08837,-2.4803 -0.7276,-5.1818 1.0076,-6.4845 4.6979,-3.5743 9.23327,-7.3418 14.04124,-10.7848 0.5262,-0.4353 1.4586,-0.1521 2.0635,0.4564 11.42274,9.8732 23.38078,19.0487 35.71375,27.4709 0.7494,0.4742 1.12117,1.4113 0.8812,2.0638 -1.383,6.1024 -2.7466,12.2148 -4.1428,18.3069 z m 21.53201,-32.1553 c -5.07997,8.857 -10.18897,17.695 -15.44634,26.4249 -0.597,-0.9273 -1.2807,-1.8132 -1.82737,-2.7604 0.80857,-4.7997 2.05207,-9.4198 3.44997,-13.9368 2.1945,-6.3714 5.81957,-11.8371 9.75927,-16.9434 1.38467,2.3947 2.68047,4.8212 4.06447,7.2157 z m 5.77687,-16.3875 c 0.6797,2.361 0.7592,4.8062 -0.2332,6.6408 -1.65,2.9556 -3.33597,5.8838 -5.01147,8.8201 -1.3024,-2.3568 -2.6289,-4.7105 -3.9452,-7.0625 2.4324,-2.968 4.9864,-5.8292 7.70337,-8.5286 0.3166,-0.3357 1.1617,-0.7081 1.4862,0.1299 z m -43.89509,-32.7583 c -1.3362,3.7616 -2.8661,7.4108 -4.5288,10.9711 -2.44967,-0.5456 -4.90407,-1.1012 -7.35287,-1.6301 1.9001,-2.7635 3.7894,-5.5353 5.71457,-8.2792 1.2061,-1.6699 3.3027,-2.4408 5.5382,-2.559 0.8227,0.044 0.8025,1.0513 0.6292,1.497 z m 51.91216,13.8017 c -4.15947,4.2276 -8.29057,8.4824 -12.44954,12.71 -0.3953,0.5763 -1.4153,0.4674 -2.0255,-0.2281 -5.57357,-5.2862 -11.41774,-10.2845 -17.56481,-14.7881 -4.1592,-3.0602 -8.45717,-5.8682 -12.79694,-8.562 -0.7912,-0.3948 -1.1364,-1.3983 -0.8166,-1.9863 2.13847,-5.7821 4.26927,-11.5639 6.40667,-17.3441 0,0 19.06531,4.6644 34.95325,24.3654 1.55687,1.8656 2.99357,3.8197 4.29347,5.8333 z"
   style="stroke-width:1.01293" /><path
   id="path3727"
   name=""
   fill="#0071bc"
   space_id="10"
   d="m 955.58941,1191.851 c -2.9294,-1.3304 -6.15417,-2.8068 -8.93617,-2.1934 -3.67717,0.8795 -7.07977,2.3023 -10.32624,3.9282 -3.0052,1.5435 -5.45207,3.8341 -7.58717,6.37 -4.08727,4.9709 -7.80217,10.2971 -10.76467,16.176 -0.53727,1.0635 -0.69457,2.3619 -1.34517,3.3534 -1.9186,3.0839 -3.9531,6.0774 -5.88607,9.1533 -1.6052,0.3815 -2.4659,1.8051 -3.3031,3.0606 -0.5875,1.0615 -1.316,2.1828 -1.0286,3.6607 -3.88887,6.0036 -7.75587,12.0216 -11.65474,18.0166 -1.0711,-1.4627 -1.9277,-3.0847 -3.1525,-4.4399 -0.99807,0.1439 -1.19197,1.4557 -1.21007,2.4194 -0.031,1.8083 1.56087,3.4333 2.37737,5.1284 -3.49967,5.4739 -7.05117,10.9067 -10.56914,16.3662 -0.3874,0.6467 -0.9817,1.0974 -1.5258,1.5948 -1.2613,1.1293 -2.124,2.6313 -3.1229,4.0017 -3.25257,4.4601 -6.22297,9.1608 -8.83894,14.1187 -1.1502,2.1813 -1.298,5.0044 -0.6132,7.8355 0.9254,4.5682 2.14397,9.1601 3.67437,13.7302 0.5583,1.6478 1.6993,3.1773 3.0196,4.4457 3.38557,3.347 7.02127,6.4095 10.65264,9.4432 5.32837,4.3841 10.73187,8.6836 16.35484,12.5681 1.8702,1.2837 3.89657,2.6198 5.95657,2.7568 4.61037,0.2953 9.11367,0.1247 13.51444,-0.3056 1.604,-0.1255 3.1096,-0.5582 4.35897,-1.3496 1.4625,-0.883 2.4252,-2.3111 3.4559,-3.6361 3.54957,-4.5358 6.66107,-9.451 9.62324,-14.4645 0.7855,-1.2135 0.9708,-2.8213 1.8204,-3.9836 3.5815,-5.331 7.21427,-10.6208 10.78047,-15.9642 0.95687,0.3152 1.91107,0.6766 2.86487,0.9669 1.4731,0.4517 2.9051,0.059 3.6793,-0.9356 0.2249,-0.2694 0.5362,-0.6585 0.2153,-1.1139 -1.5507,-0.7785 -3.162,-1.2518 -4.7371,-1.8982 4.0067,-5.9274 7.97137,-11.8858 12.01537,-17.7806 0.96587,-0.084 1.60507,-0.7259 2.16597,-1.3678 0.9093,-1.1109 1.7344,-2.3373 2.1694,-3.7962 0.1992,-0.5925 -0.055,-1.409 0.389,-1.8621 1.9371,-2.8337 3.83487,-5.7026 5.77957,-8.5303 0.6833,-1.0001 1.7555,-1.5993 2.5314,-2.5022 3.26147,-3.8926 6.15107,-8.1277 8.65214,-12.6506 2.2666,-3.9132 4.4021,-8.0423 5.0638,-12.913 0.4026,-3.3281 0.5829,-6.7466 0.4693,-10.2403 -0.063,-1.4222 -0.094,-2.8666 -0.5869,-4.3402 -0.6541,-1.9891 -1.9638,-3.8247 -3.2367,-5.5989 -3.48227,-4.681 -7.67247,-8.8638 -12.03964,-12.726 -6.54847,-5.6751 -13.59964,-10.8666 -21.11951,-14.5015 z m -82.93774,120.8231 c -1.9026,-4.9185 -2.96587,-9.8872 -3.91707,-14.8077 -0.4263,-1.7409 0.3559,-3.1987 1.2651,-4.2678 0.47557,-0.4534 1.20117,0.2775 1.27387,0.8957 1.6707,6.7854 2.6742,13.5569 2.8905,20.1468 -0.5729,-0.6005 -1.2086,-1.2068 -1.5124,-1.967 z m 53.52786,26.5303 c -0.6895,1.1208 -1.59057,2.315 -3.10287,2.408 -3.6926,0.3998 -7.41367,0.7704 -11.28287,0.5966 -1.61877,-0.1121 -3.35887,0.09 -4.94907,-1.2035 5.79887,-1.7422 11.95414,-2.8038 18.36031,-3.074 0.6893,-0.1255 1.3641,0.7118 0.9744,1.273 z m -11.58084,-106.7277 c 2.5432,0.6716 5.08557,1.2392 7.62927,1.9113 -3.1423,5.9141 -6.70127,11.6137 -11.52274,16.0922 -3.4705,3.0065 -7.08187,5.883 -10.99387,8.3561 -1.0056,-0.2649 -2.0034,-0.6963 -3.00847,-1.0216 5.86137,-8.5353 11.86534,-16.9491 17.89581,-25.338 z m 27.94408,73.1445 c -0.8041,2.9952 -4.44787,3.9785 -7.71207,2.413 -14.26804,-7.1112 -27.66208,-17.6311 -38.50982,-30.2028 -1.3187,-1.5794 -2.8562,-3.1293 -3.5648,-5.0116 -1.0508,-2.5538 -0.6189,-5.299 1.1805,-6.5858 4.87327,-3.5321 9.58537,-7.265 14.56774,-10.6605 0.5466,-0.4312 1.4903,-0.1203 2.0925,0.514 11.40944,10.3342 23.38118,19.9701 35.75282,28.8468 0.7526,0.5012 1.1094,1.4652 0.8493,2.1245 -1.5542,6.1875 -3.08877,12.3856 -4.65617,18.5624 z m 22.70911,-32.2662 c -5.3877,8.9078 -10.80467,17.7955 -16.37014,26.5694 -0.5866,-0.9594 -1.2625,-1.8785 -1.7974,-2.8569 0.938,-4.8732 2.3148,-9.553 3.8466,-14.1242 2.38767,-6.4425 6.21227,-11.9279 10.34874,-17.0395 1.3548,2.4737 2.6182,4.9778 3.9722,7.4512 z m 6.27627,-16.567 c 0.637,2.4227 0.6602,4.9169 -0.3946,6.7635 -1.7518,2.9735 -3.5397,5.9184 -5.31707,8.8718 -1.2716,-2.4333 -2.5681,-4.8637 -3.8541,-7.2923 2.5496,-2.9678 5.22067,-5.8238 8.05407,-8.5108 0.3305,-0.3347 1.201,-0.6944 1.5117,0.1678 z m -43.96682,-34.4301 c -1.451,3.8028 -3.09687,7.4862 -4.87597,11.0757 -2.4842,-0.614 -4.97277,-1.2384 -7.45627,-1.8355 2.0022,-2.7719 3.99357,-5.5524 6.02097,-8.3037 1.2688,-1.6737 3.4241,-2.4098 5.70557,-2.4772 0.8376,0.064 0.7932,1.0904 0.606,1.5407 z m 52.58746,15.2974 c -4.33977,4.2108 -8.65134,8.4498 -12.99084,12.6606 -0.4165,0.578 -1.45357,0.4429 -2.05907,-0.2807 -5.556,-5.5201 -11.39477,-10.7532 -17.55384,-15.4894 -4.16697,-3.2176 -8.48147,-6.1818 -12.84124,-9.0303 -0.7972,-0.4211 -1.1253,-1.4523 -0.7854,-2.044 2.3167,-5.843 4.62557,-11.686 6.94097,-17.5272 0,0 19.32291,5.2057 35.05115,25.6633 1.5429,1.9385 2.961,3.9643 4.23827,6.0476 z"
   style="stroke-width:1.03276" /><path
   id="path3709-0"
   name=""
   fill="#0071bc"
   space_id="1"
   d="m 527.45947,804.71044 c 2.3834,-2.00601 5.0173,-4.20967 5.6403,-6.89676 0.7633,-3.58057 0.9373,-7.14746 0.8689,-10.66239 -0.097,-3.26978 -1.0797,-6.36286 -2.4067,-9.2856 -2.6418,-5.6437 -5.7495,-11.10979 -9.6537,-16.14838 -0.7057,-0.91273 -1.775,-1.5913 -2.3705,-2.57301 -1.8962,-2.96188 -3.665,-5.98725 -5.5482,-8.95829 0.3354,-1.56197 -0.5503,-2.9075 -1.299,-4.16226 -0.683,-0.95581 -1.3594,-2.05972 -2.771,-2.42422 -3.6273,-5.90055 -7.276,-11.78774 -10.8917,-17.69336 1.7249,-0.32679 3.4994,-0.39971 5.1942,-0.90558 0.2895,-0.93249 -0.7757,-1.64829 -1.6105,-2.06567 -1.5669,-0.78208 -3.6511,-0.0656 -5.473,-0.0588 -3.3264,-5.33961 -6.5952,-10.70725 -9.9014,-16.05687 -0.4038,-0.60802 -0.5503,-1.31521 -0.7582,-1.99809 -0.4617,-1.57298 -1.415,-2.95272 -2.1966,-4.39676 -2.5432,-4.70123 -5.4144,-9.25606 -8.6579,-13.60815 -1.4274,-1.91413 -3.8333,-3.21942 -6.5932,-3.8006 -4.3783,-1.09428 -8.8996,-1.94244 -13.5317,-2.50875 -1.6729,-0.19861 -3.4851,0.16169 -5.1438,0.78707 -4.3362,1.56471 -8.5277,3.4665 -12.6922,5.37656 -6.052,2.83076 -12.0613,5.76239 -17.7993,9.05875 -1.9012,1.09982 -3.9133,2.31432 -4.8912,4.05777 -2.1792,3.90661 -3.9062,7.91392 -5.3636,11.93976 -0.5586,1.45423 -0.8077,2.9505 -0.6364,4.37229 0.1624,1.6462 1.0096,3.08255 1.7383,4.53555 2.4857,4.99237 5.4854,9.75975 8.6334,14.43763 0.7335,1.19222 2.0615,2.024 2.7234,3.25087 3.1674,5.35161 6.2775,10.73073 9.462,16.07403 -0.6743,0.70507 -1.3875,1.38856 -2.0387,2.10129 -1.0086,1.0993 -1.2618,2.51469 -0.7151,3.60559 0.1418,0.30867 0.3522,0.74304 0.8838,0.65252 1.3265,-1.03121 2.4114,-2.24225 3.6327,-3.34973 3.5115,5.9718 7.0678,11.91956 10.5352,17.91026 -0.3292,0.87913 -0.034,1.70534 0.2933,2.46298 0.5921,1.2576 1.3203,2.48981 2.4142,3.47784 0.4348,0.42097 1.2545,0.53883 1.4654,1.11581 1.6698,2.87373 3.3867,5.7279 5.048,8.60569 0.5894,1.01395 0.6665,2.20073 1.1324,3.25514 2.0434,4.47242 4.5413,8.76266 7.4525,12.83308 2.476,3.61154 5.1953,7.19849 9.1768,9.8061 2.7414,1.7385 5.6541,3.3204 8.755,4.67666 1.2697,0.53647 2.5448,1.11226 4.0383,1.29524 2.011,0.25706 4.161,-0.12306 6.2421,-0.49631 5.5423,-1.09346 10.9442,-3.01326 16.1394,-5.22123 7.6886,-3.3593 15.1641,-7.3595 21.4743,-12.41775 z m -71.0508,-122.83151 c 5.0918,0.38463 9.8777,1.52703 14.5748,2.7457 1.6992,0.35233 2.6475,1.64374 3.2032,2.88395 0.1982,0.60446 -0.7429,0.9342 -1.3137,0.74014 -6.6268,-1.36676 -12.9636,-3.31083 -18.8136,-5.86737 0.7634,-0.25022 1.5583,-0.55353 2.3493,-0.50242 z m -45.4905,35.73293 c -0.6925,-1.0696 -1.3608,-2.35482 -0.812,-3.71535 1.1889,-3.39414 2.4153,-6.80098 4.1795,-10.11037 0.7727,-1.36809 1.3212,-2.97317 3.1139,-3.82444 -0.8932,5.79445 -2.5298,11.61687 -4.9627,17.32877 -0.1774,0.65481 -1.1905,0.8958 -1.5186,0.32132 z m 98.1106,34.3443 c -1.6466,1.94298 -3.2019,3.92872 -4.8492,5.87205 -3.8601,-5.2105 -7.359,-10.69593 -9.2645,-16.77619 -1.182,-4.28591 -2.1916,-8.64097 -2.7233,-13.09058 0.6504,-0.76868 1.4432,-1.46096 2.1464,-2.20397 5.0181,8.67936 9.8707,17.43258 14.6906,26.19869 z m -75.5748,-6.0498 c -2.2829,-1.95074 -1.6242,-5.54532 1.1041,-7.74618 12.1602,-9.50817 26.9355,-16.83256 42.4434,-21.07615 1.93,-0.49466 3.9253,-1.19272 5.8657,-1.02792 2.67,0.14664 4.8896,1.66681 5.2645,3.77575 1.0568,5.73111 2.3564,11.4051 3.2484,17.17456 0.149,0.65742 -0.5146,1.35325 -1.3211,1.61475 -13.7863,5.66695 -27.1964,12.11629 -40.1096,19.23144 -0.7516,0.44907 -1.7428,0.35927 -2.211,-0.14015 -4.7607,-3.93635 -9.5387,-7.86011 -14.2846,-11.80354 z m 18.7409,33.29221 c -5.5411,-8.42042 -11.0525,-16.85806 -16.4025,-25.37812 1.0829,-0.1128 2.1678,-0.32098 3.2458,-0.3807 3.8687,2.8501 7.3856,6.00335 10.7427,9.24663 4.6363,4.77127 7.8374,10.39956 10.5818,16.14475 -2.7266,0.15348 -5.4418,0.21433 -8.1678,0.36744 z m 11.8656,12.38831 c -2.383,-0.45238 -4.5727,-1.47173 -5.7472,-3.16281 -1.8693,-2.77012 -3.6982,-5.55978 -5.5392,-8.34374 2.6567,-0.0978 5.3211,-0.21844 7.9797,-0.33056 1.5316,3.46496 2.9151,6.98954 4.0831,10.58556 0.1552,0.42818 0.1067,1.33899 -0.7764,1.25145 z m 48.4118,-24.08479 c -2.7191,-2.8526 -5.2529,-5.82583 -7.6491,-8.87635 1.5717,-1.9155 3.1543,-3.83052 4.7108,-5.75248 1.5887,2.90487 3.1893,5.80403 4.7494,8.72236 0.9343,1.80628 0.6797,3.99685 -0.2123,6.01907 -0.4053,0.70527 -1.2835,0.23894 -1.5993,-0.11075 z m -35.2805,39.59107 c -1.8723,-5.54758 -3.7811,-11.08227 -5.6536,-16.62958 -0.3319,-0.60484 0.2181,-1.45505 1.1031,-1.68284 7.1398,-2.5564 14.1465,-5.47945 20.8523,-8.88969 4.5485,-2.30146 8.9369,-4.83772 13.2431,-7.46157 0.7002,-0.52133 1.7381,-0.37851 2.1139,0.1634 4.1419,4.45928 8.287,8.9118 12.4278,13.36927 0,0 -12.6008,14.72044 -37.0347,19.94444 -2.3372,0.54091 -4.6987,0.93641 -7.0518,1.18486 z"
   style="stroke-width:0.999999" /></g>





	
	
	
	
	
	
	
	
	
	

	

	
</svg>
