<svg width="17" height="17" viewBox="0 0 17 17" fill="none" xmlns="http://www.w3.org/2000/svg">
<path fill-rule="evenodd" clip-rule="evenodd" d="M8.49996 16.9999C3.80798 16.9999 0 13.2004 0 8.49996C0 3.80798 3.80798 0 8.49996 0C13.2004 0 16.9999 3.80798 16.9999 8.49996C16.9999 13.2004 13.2004 16.9999 8.49996 16.9999ZM11.2114 11.6534C11.3134 11.7129 11.4239 11.7469 11.5429 11.7469C11.7554 11.7469 11.9679 11.6364 12.0869 11.4324C12.2654 11.1349 12.1719 10.7439 11.8659 10.5569L8.83996 8.75496V4.82798C8.83996 4.47098 8.55096 4.19048 8.20246 4.19048C7.85396 4.19048 7.56496 4.47098 7.56496 4.82798V9.12046C7.56496 9.34145 7.68396 9.54545 7.87946 9.66445L11.2114 11.6534Z" fill="#9E9E9E"/>
</svg>
