<svg width="20" height="16" viewBox="0 0 20 16" fill="none" xmlns="http://www.w3.org/2000/svg">
<path d="M19.4851 8.00025C19.4851 8.44863 19.1519 8.81919 18.7196 8.87784L18.5995 8.88592L0.885923 8.88592C0.396779 8.88592 0.00024712 8.48939 0.00024712 8.00025C0.00024712 7.55186 0.333443 7.1813 0.765742 7.12266L0.885923 7.11457L18.5995 7.11457C19.0886 7.11457 19.4851 7.5111 19.4851 8.00025Z" fill="#212121"/>
<path d="M8.65507 14.4867C9.00169 14.8319 9.0029 15.3927 8.65776 15.7393C8.34401 16.0544 7.85203 16.084 7.50475 15.8275L7.40523 15.742L0.260775 8.62823C-0.0552785 8.31353 -0.0840293 7.81978 0.174534 7.47251L0.260723 7.37305L7.40518 0.258113C7.75177 -0.0870479 8.31255 -0.0858869 8.65771 0.260707C8.97149 0.575792 8.99906 1.06789 8.74108 1.41408L8.65512 1.51324L2.14123 8.00096L8.65507 14.4867Z" fill="#212121"/>
</svg>
