<svg width="17" height="15" viewBox="0 0 17 15" fill="none" xmlns="http://www.w3.org/2000/svg">
<path fill-rule="evenodd" clip-rule="evenodd" d="M6.63278 9.98969C7.16359 10.3495 7.8105 10.5671 8.49889 10.5671C10.3235 10.5671 11.8081 9.06917 11.8081 7.22814C11.8081 6.53357 11.5925 5.88084 11.2358 5.34527L10.3318 6.25742C10.4811 6.54194 10.564 6.87667 10.564 7.22814C10.564 8.3746 9.63513 9.31186 8.49889 9.31186C8.15055 9.31186 7.81879 9.22817 7.53681 9.07754L6.63278 9.98969ZM13.9645 2.59209C15.1671 3.69671 16.1872 5.18627 16.9502 6.97709C17.0166 7.13609 17.0166 7.3202 16.9502 7.47083C15.1754 11.6383 12.0154 14.132 8.49889 14.132H8.49059C6.88989 14.132 5.35554 13.6048 4.00366 12.6425L2.39466 14.2659C2.27026 14.3914 2.11267 14.45 1.95509 14.45C1.79751 14.45 1.63164 14.3914 1.51552 14.2659C1.30818 14.0567 1.275 13.722 1.44088 13.4793L1.46576 13.4458L13.7323 1.06905L13.7323 1.06905C13.7489 1.05231 13.7654 1.03558 13.7737 1.01884L13.7737 1.01884C13.7903 1.0021 13.8069 0.985369 13.8152 0.968634L14.5948 0.182011C14.8436 -0.0606704 15.2334 -0.0606704 15.474 0.182011C15.7228 0.424693 15.7228 0.826372 15.474 1.06905L13.9645 2.59209ZM5.18361 7.23141C5.18361 7.44898 5.20849 7.66656 5.24167 7.8674L2.17297 10.9637C1.34359 9.99295 0.622034 8.82139 0.0497627 7.47409C-0.0165876 7.32346 -0.0165876 7.13936 0.0497627 6.98036C1.82463 2.81293 4.98456 0.327536 8.49283 0.327536H8.50112C9.68714 0.327536 10.84 0.612059 11.9016 1.14763L9.13145 3.94265C8.9324 3.90918 8.71676 3.88408 8.50112 3.88408C6.6682 3.88408 5.18361 5.38201 5.18361 7.23141Z" fill="#212121"/>
</svg>
