<svg width="330" height="200" viewBox="0 0 278 271" fill="none" xmlns="http://www.w3.org/2000/svg">
<g clip-path="url(#clip0_972_9909)">
<path d="M232.952 259.93L228.243 259.89L226.159 241.298L233.108 241.357L232.952 259.93Z" fill="#A0616A"/>
<path d="M217.868 267.42C217.864 267.978 218.082 268.515 218.473 268.913C218.864 269.312 219.398 269.538 219.956 269.544L229.318 269.622L230.957 266.299L231.559 269.639L235.092 269.671L234.2 257.758L232.971 257.676L227.958 257.33L226.34 257.222L226.312 260.593L218.791 265.695C218.509 265.887 218.278 266.143 218.117 266.444C217.957 266.744 217.871 267.079 217.868 267.42V267.42Z" fill="#2F2E41"/>
<path d="M180.84 259.951L176.35 258.529L179.819 240.145L186.445 242.243L180.84 259.951Z" fill="#A0616A"/>
<path d="M164.222 262.677C164.054 263.21 164.104 263.787 164.361 264.283C164.618 264.779 165.061 265.152 165.593 265.321L174.52 268.148L177.062 265.453L176.657 268.822L180.024 269.891L182.671 258.242L181.52 257.802L176.83 255.998L175.315 255.42L174.298 258.633L165.61 261.3C165.285 261.4 164.989 261.578 164.747 261.818C164.505 262.058 164.325 262.353 164.222 262.677V262.677Z" fill="#2F2E41"/>
<path d="M247.042 260.601C247.303 260.613 247.561 260.544 247.782 260.404C248.003 260.265 248.175 260.06 248.276 259.819C248.377 259.578 248.401 259.312 248.345 259.057C248.29 258.801 248.157 258.569 247.965 258.392L247.878 258.045C247.89 258.017 247.901 257.989 247.913 257.962C248.176 257.341 248.616 256.811 249.179 256.44C249.742 256.068 250.402 255.871 251.076 255.874C251.75 255.876 252.408 256.078 252.968 256.454C253.528 256.829 253.965 257.362 254.223 257.985C255.255 260.472 256.569 262.962 256.893 265.591C257.035 266.753 256.975 267.931 256.715 269.073C259.139 263.784 260.398 258.035 260.406 252.216C260.407 250.756 260.325 249.297 260.163 247.846C260.029 246.656 259.843 245.475 259.605 244.302C258.305 237.94 255.516 231.976 251.465 226.902C249.505 225.831 247.919 224.186 246.922 222.187C246.561 221.468 246.306 220.701 246.165 219.909C246.386 219.938 246.998 216.569 246.832 216.362C247.14 215.895 247.691 215.662 248.028 215.205C249.702 212.935 252.009 213.331 253.213 216.417C255.785 217.715 255.81 219.869 254.232 221.94C253.227 223.258 253.089 225.041 252.208 226.452C252.299 226.568 252.393 226.68 252.484 226.796C254.141 228.928 255.585 231.216 256.796 233.629C256.501 230.926 256.853 228.191 257.821 225.65C258.802 223.282 260.642 221.288 262.261 219.241C262.69 218.691 263.272 218.28 263.933 218.061C264.595 217.842 265.307 217.824 265.978 218.009C266.65 218.194 267.252 218.575 267.708 219.102C268.164 219.629 268.453 220.28 268.539 220.972C268.543 221.002 268.546 221.032 268.549 221.063C268.309 221.198 268.073 221.342 267.843 221.495C267.553 221.688 267.329 221.965 267.199 222.288C267.069 222.611 267.04 222.966 267.116 223.306C267.191 223.646 267.367 223.955 267.621 224.193C267.875 224.431 268.195 224.587 268.539 224.64L268.574 224.646C268.489 225.513 268.337 226.373 268.121 227.217C270.199 235.256 265.713 238.183 259.307 238.315C259.166 238.387 259.028 238.46 258.887 238.529C260.103 241.977 260.866 245.568 261.156 249.213C261.321 251.363 261.311 253.523 261.127 255.672L261.138 255.596C261.602 253.207 262.877 251.051 264.746 249.492C267.522 247.211 271.444 246.371 274.439 244.537C274.758 244.333 275.128 244.224 275.506 244.223C275.884 244.222 276.255 244.329 276.574 244.532C276.893 244.735 277.148 245.025 277.308 245.368C277.468 245.711 277.526 246.092 277.477 246.467L277.465 246.547C277.018 246.729 276.583 246.939 276.163 247.175C275.922 247.311 275.687 247.455 275.456 247.607C275.167 247.801 274.943 248.077 274.813 248.4C274.683 248.723 274.654 249.078 274.729 249.418C274.805 249.758 274.981 250.067 275.235 250.306C275.489 250.544 275.809 250.7 276.153 250.753L276.188 250.758C276.214 250.762 276.235 250.765 276.261 250.769C275.498 252.591 274.427 254.268 273.096 255.727C271.796 262.744 266.216 263.41 260.246 261.366H260.243C259.588 264.213 258.639 266.984 257.411 269.635H247.296C247.259 269.523 247.227 269.406 247.194 269.294C248.131 269.353 249.071 269.297 249.993 269.127C249.243 268.206 248.492 267.278 247.742 266.356C247.725 266.339 247.709 266.321 247.695 266.302C247.314 265.831 246.93 265.363 246.549 264.891L246.549 264.891C246.528 263.446 246.694 262.004 247.042 260.601L247.042 260.601Z" fill="#F2F2F2"/>
<path d="M133.903 269.665C133.903 269.753 133.92 269.84 133.953 269.921C133.987 270.002 134.036 270.076 134.098 270.138C134.16 270.2 134.234 270.249 134.315 270.283C134.396 270.316 134.483 270.334 134.571 270.333H276.753C276.93 270.333 277.1 270.263 277.226 270.138C277.351 270.012 277.421 269.842 277.421 269.665C277.421 269.488 277.351 269.318 277.226 269.193C277.1 269.067 276.93 268.997 276.753 268.997H134.571C134.483 268.997 134.396 269.014 134.315 269.047C134.234 269.081 134.16 269.13 134.098 269.192C134.036 269.254 133.987 269.328 133.954 269.409C133.92 269.49 133.903 269.577 133.903 269.665Z" fill="#CCCCCC"/>
<path d="M268.618 145.061C271.408 145.061 273.67 142.798 273.67 140.007C273.67 137.216 271.408 134.953 268.618 134.953C265.828 134.953 263.566 137.216 263.566 140.007C263.566 142.798 265.828 145.061 268.618 145.061Z" fill="#4D5DFA"/>
<path d="M177.175 60.8575H162.436V186.549C162.436 188.521 162.048 190.474 161.294 192.296C160.539 194.118 159.433 195.773 158.039 197.168C156.645 198.562 154.99 199.668 153.169 200.423C151.347 201.178 149.395 201.566 147.424 201.566H34.7418V201.71C34.7418 203.682 35.1301 205.635 35.8846 207.456C36.639 209.278 37.7448 210.934 39.1389 212.328C40.5329 213.723 42.1879 214.829 44.0093 215.584C45.8307 216.338 47.7829 216.727 49.7544 216.727H177.175C179.146 216.727 181.099 216.338 182.92 215.584C184.741 214.829 186.396 213.723 187.79 212.328C189.184 210.934 190.29 209.278 191.045 207.456C191.799 205.635 192.187 203.682 192.187 201.71V75.8745C192.187 71.8917 190.606 68.0721 187.79 65.2559C184.975 62.4396 181.156 60.8575 177.175 60.8575V60.8575Z" fill="#F2F2F2"/>
<path d="M135.629 43.7599C135.998 44.3196 136.484 44.7924 137.054 45.1456C137.624 45.4987 138.264 45.7238 138.929 45.8053C139.595 45.8868 140.27 45.8227 140.908 45.6174C141.547 45.4122 142.133 45.0708 142.626 44.6167L163.657 54.1077L167.711 48.9344L142.651 37.8444C141.825 37.0706 140.744 36.6266 139.613 36.5968C138.481 36.5669 137.378 36.9531 136.513 37.6823C135.647 38.4115 135.079 39.4329 134.916 40.553C134.753 41.6732 135.007 42.8142 135.629 43.7599H135.629Z" fill="#A0616A"/>
<path d="M225.883 49.6781L227.969 61.5014C228.066 62.053 228.047 62.6188 227.913 63.1626C227.779 63.7064 227.532 64.2161 227.189 64.659C226.847 65.1019 226.415 65.4682 225.922 65.7343C225.43 66.0005 224.887 66.1607 224.329 66.2046L188.886 68.9926L147.225 50.3418L152.201 40.8932L188.367 52.3492L225.883 49.6781Z" fill="#4D5DFA"/>
<path d="M142.933 41.2047H15.5126C7.22135 41.2047 0.5 47.9281 0.5 56.2217V182.057C0.5 190.351 7.22135 197.074 15.5126 197.074H142.933C151.224 197.074 157.946 190.351 157.946 182.057V56.2217C157.946 47.9281 151.224 41.2047 142.933 41.2047Z" fill="#F2F2F2"/>
<path d="M15.5126 44.293C13.9466 44.293 12.3959 44.6015 10.949 45.201C9.50219 45.8005 8.18757 46.6791 7.08021 47.7868C5.97285 48.8945 5.09444 50.2095 4.49514 51.6568C3.89585 53.104 3.5874 54.6552 3.5874 56.2217V182.057C3.5874 185.221 4.8438 188.255 7.08021 190.492C9.31662 192.729 12.3498 193.986 15.5126 193.986H96.8355C104.455 193.986 112 192.485 119.04 189.568C126.079 186.651 132.476 182.376 137.864 176.986C143.252 171.597 147.526 165.199 150.441 158.157C153.357 151.115 154.858 143.568 154.858 135.946V56.2217C154.858 54.6552 154.55 53.104 153.95 51.6568C153.351 50.2095 152.473 48.8945 151.365 47.7868C150.258 46.6791 148.943 45.8005 147.497 45.201C146.05 44.6015 144.499 44.293 142.933 44.293H15.5126Z" fill="white"/>
<path d="M167.1 198.838H120.281C119.625 198.838 118.995 198.577 118.531 198.113C118.067 197.648 117.807 197.019 117.807 196.362C117.807 195.706 118.067 195.076 118.531 194.612C118.995 194.148 119.625 193.887 120.281 193.887H167.1C167.757 193.887 168.386 194.148 168.85 194.612C169.314 195.076 169.575 195.706 169.575 196.362C169.575 197.019 169.314 197.648 168.85 198.113C168.386 198.577 167.757 198.838 167.1 198.838V198.838Z" fill="#4D5DFA"/>
<path d="M160.845 160.856H54.7511C52.4435 160.856 50.2304 161.773 48.5987 163.405C46.967 165.037 46.0503 167.251 46.0503 169.559C46.0503 171.867 46.967 174.081 48.5987 175.713C50.2304 177.345 52.4435 178.262 54.7511 178.262H160.845C163.152 178.262 165.365 177.345 166.997 175.713C168.629 174.081 169.545 171.867 169.545 169.559C169.545 167.251 168.629 165.037 166.997 163.405C165.365 161.773 163.152 160.856 160.845 160.856V160.856Z" fill="white"/>
<path d="M160.845 178.824H54.7511C52.2947 178.824 49.9388 177.848 48.2018 176.11C46.4648 174.373 45.489 172.016 45.489 169.559C45.489 167.102 46.4648 164.745 48.2018 163.008C49.9388 161.27 52.2947 160.294 54.7511 160.294H160.845C163.301 160.294 165.657 161.27 167.394 163.008C169.131 164.745 170.107 167.102 170.107 169.559C170.107 172.016 169.131 174.373 167.394 176.11C165.657 177.848 163.301 178.824 160.845 178.824V178.824ZM54.7511 161.417C52.5924 161.417 50.5221 162.275 48.9957 163.802C47.4692 165.329 46.6117 167.4 46.6117 169.559C46.6117 171.718 47.4692 173.789 48.9957 175.316C50.5221 176.843 52.5924 177.701 54.7511 177.701H160.845C163.003 177.701 165.074 176.843 166.6 175.316C168.126 173.789 168.984 171.718 168.984 169.559C168.984 167.4 168.126 165.329 166.6 163.802C165.074 162.275 163.003 161.417 160.845 161.417H54.7511Z" fill="#4D5DFA"/>
<path d="M114.843 135.264H43.3243C42.668 135.264 42.0386 135.003 41.5746 134.539C41.1105 134.074 40.8499 133.445 40.8499 132.788C40.8499 132.132 41.1105 131.502 41.5746 131.038C42.0386 130.574 42.668 130.313 43.3243 130.313H114.843C115.499 130.313 116.128 130.574 116.592 131.038C117.056 131.502 117.317 132.132 117.317 132.788C117.317 133.445 117.056 134.074 116.592 134.539C116.128 135.003 115.499 135.264 114.843 135.264Z" fill="#F2F2F2"/>
<path d="M143.885 108.89H14.2821C13.6259 108.89 12.9965 108.629 12.5325 108.165C12.0684 107.701 11.8077 107.071 11.8077 106.415C11.8077 105.758 12.0684 105.129 12.5325 104.665C12.9965 104.2 13.6259 103.94 14.2821 103.94H143.885C144.541 103.94 145.17 104.2 145.635 104.665C146.099 105.129 146.359 105.758 146.359 106.415C146.359 107.071 146.099 107.701 145.635 108.165C145.17 108.629 144.541 108.89 143.885 108.89V108.89Z" fill="#F2F2F2"/>
<path d="M221.405 101.79L208.494 129.304L258.16 124.273L247.793 97.8599L221.405 101.79Z" fill="#A0616A"/>
<path d="M255.898 116.535L210.74 124.812C210.74 124.812 203.497 130.232 205.434 132.173C207.372 134.114 207.672 133.813 206.399 135.087C205.126 136.36 202.374 138.062 202.347 139.176C202.32 140.29 182.111 190.265 182.111 190.265C182.111 190.265 184.357 189.142 182.673 190.826C180.989 192.511 180.989 193.903 180.989 193.903L173.13 246.977L185.893 247.729L198.39 199.342L226.266 154.138C226.266 154.138 229.032 194.448 229.148 197.129C229.264 199.81 230.948 196.441 229.264 199.81C227.58 203.179 226.457 200.933 227.58 203.179C228.703 205.425 223.536 251.152 223.536 251.152H235.185L260.171 156.374C260.171 156.374 269.06 129.278 255.898 116.535Z" fill="#2F2E41"/>
<path d="M268.675 142.091C269.034 141.525 269.266 140.887 269.354 140.222C269.443 139.557 269.386 138.881 269.187 138.241C268.989 137.6 268.654 137.01 268.205 136.512C267.756 136.014 267.205 135.619 266.588 135.355L266.625 112.276L260.246 110.697L260.403 138.108C260.036 139.179 260.074 140.347 260.51 141.391C260.946 142.436 261.751 143.284 262.77 143.775C263.79 144.266 264.954 144.365 266.042 144.055C267.131 143.745 268.067 143.046 268.675 142.091V142.091Z" fill="#A0616A"/>
<path d="M114.843 82.4818H43.3243C42.668 82.4818 42.0386 82.2211 41.5746 81.7569C41.1105 81.2927 40.8499 80.6631 40.8499 80.0067C40.8499 79.3502 41.1105 78.7207 41.5746 78.2565C42.0386 77.7923 42.668 77.5316 43.3243 77.5316H114.843C115.499 77.5316 116.128 77.7923 116.592 78.2565C117.056 78.7207 117.317 79.3502 117.317 80.0067C117.317 80.6631 117.056 81.2927 116.592 81.7569C116.128 82.2211 115.499 82.4818 114.843 82.4818Z" fill="#F2F2F2"/>
<path d="M242.595 40.7251L224.506 38.845L219.819 44.9313L214.359 47.84C212.049 49.071 210.142 50.9416 208.866 53.2281C207.591 55.5146 207 58.1203 207.166 60.7336L213.546 97.8599C213.546 97.8599 208.157 109.999 211.862 113.021C215.568 116.042 208.998 123.525 216.915 119.759C224.831 115.993 259.015 120.32 259.015 120.32L251.718 99.5445L257.169 79.1294L257.769 62.0117C257.881 58.813 256.932 55.667 255.07 53.0642C253.208 50.4613 250.537 48.5479 247.474 47.622L246.712 47.3916L242.595 40.7251Z" fill="#4D5DFA"/>
<path d="M237.085 57.3134L247.012 50.565C247.475 50.2502 247.999 50.0357 248.549 49.9353C249.1 49.835 249.666 49.8509 250.21 49.9822C250.755 50.1135 251.266 50.3572 251.71 50.6976C252.155 51.0381 252.524 51.4678 252.792 51.9591L269.859 83.1557L269.924 128.812L259.269 128.144L254.895 90.4504L237.085 57.3134Z" fill="#4D5DFA"/>
<path d="M267.499 26.8534C267.617 31.9535 265.712 36.892 262.974 41.2296C262.161 38.6974 260.699 36.3927 259.174 34.1957C259.943 38.9484 259.124 43.8221 256.844 48.0625C256.764 48.1199 256.681 48.1733 256.595 48.2224C254.364 49.565 251.535 50.1088 249.121 49.1391C254.108 43.7617 254.743 34.8522 250.562 28.8206C249.378 27.1091 247.847 25.5954 247.114 23.6477C245.956 20.54 247.069 17.1184 247.771 13.8783C248.427 10.8628 248.542 7.2743 246.52 5.0643C246.736 4.75546 247.03 4.50961 247.372 4.35197C247.715 4.19433 248.093 4.13054 248.468 4.16716C249.715 4.34336 250.622 5.42755 251.201 6.5442C251.779 7.66082 252.16 8.89842 252.966 9.8629C254.458 11.6682 256.998 12.095 259.14 13.0464C264.325 15.3567 267.374 21.1783 267.499 26.8534Z" fill="#2F2E41"/>
<path d="M223.85 23.9373C224.146 22.8999 222.104 29.2415 223.089 29.356C227.578 29.8711 233.74 32.5527 236.867 33.8038C237.007 33.7874 237.148 33.7711 237.285 33.7506C237.62 33.7138 237.947 33.6607 238.27 33.5994C245.55 32.2216 248.35 21.0356 248.35 20.9334C248.35 20.4305 247.143 6.61884 245.242 6.41445C244.743 6.36027 244.241 6.33297 243.739 6.33268H239.023C238.047 6.1223 237.057 5.97888 236.062 5.9034H236.054C226.558 5.17975 219.071 10.9689 219.771 18.0132C219.775 18.0214 219.784 18.0296 219.788 18.0378C219.991 18.3403 220.169 18.6265 220.326 18.9004C220.479 19.158 220.608 19.4033 220.719 19.6363C221.585 21.4352 219.36 23.6988 220.835 24.1213C222.797 24.6832 215.675 43.1528 223.441 43.1528C219.664 44.2271 223.032 26.7992 223.85 23.9373Z" fill="#2F2E41"/>
<path d="M232.326 34.7744C238.494 34.7744 243.493 29.7733 243.493 23.604C243.493 17.4348 238.494 12.4337 232.326 12.4337C226.159 12.4337 221.159 17.4348 221.159 23.604C221.159 29.7733 226.159 34.7744 232.326 34.7744Z" fill="#A0616A"/>
<path d="M219.771 18.6223C219.958 18.7205 220.14 18.8104 220.326 18.9003C220.521 18.9944 220.716 19.0884 220.91 19.1743C224.649 20.871 227.693 21.059 229.54 18.6223C229.589 17.3402 229.877 16.0785 230.389 14.9019C230.298 16.2168 230.645 17.5247 231.374 18.6223H235.093C238.923 21.1653 240.89 21.4311 238.232 29.7796C237.491 32.1059 234.543 45.6425 235.703 47.65C236.038 47.6132 239.607 32.7863 239.93 32.725C247.209 31.3472 251.835 19.3501 251.243 18.6714C251.246 16.7414 250.802 14.837 249.947 13.1071C248.864 10.9154 247.177 9.07959 245.085 7.81671C243.838 7.2118 242.538 6.72321 241.201 6.35715C241.168 6.34896 241.139 6.34077 241.106 6.33262C240.696 6.22222 240.277 6.12001 239.859 6.03415C238.995 5.85166 238.121 5.71925 237.242 5.63759C237.18 5.63349 237.118 5.62939 237.06 5.62939C236.709 5.63022 236.364 5.72479 236.062 5.90334C236.058 5.90334 236.058 5.90741 236.054 5.90741C235.838 6.0337 235.649 6.20188 235.499 6.40209C235.234 6.73897 235.091 7.15531 235.093 7.58364H230.952C230.799 7.58364 230.646 7.58773 230.492 7.5959C227.729 7.69037 225.1 8.81309 223.12 10.7443C221.14 12.6756 219.952 15.2764 219.788 18.0377C219.775 18.2339 219.771 18.4261 219.771 18.6223Z" fill="#2F2E41"/>
<path d="M244.187 15.0515C248.251 15.0515 251.544 11.7567 251.544 7.69237C251.544 3.62804 248.251 0.333252 244.187 0.333252C240.124 0.333252 236.831 3.62804 236.831 7.69237C236.831 11.7567 240.124 15.0515 244.187 15.0515Z" fill="#2F2E41"/>
</g>
<defs>
<clipPath id="clip0_972_9909">
<rect width="277" height="270" fill="white" transform="translate(0.5 0.333252)"/>
</clipPath>
</defs>
</svg>
