<svg version="1.1" id="Layer_1" xmlns="http://www.w3.org/2000/svg" xmlns:xlink="http://www.w3.org/1999/xlink" x="0px" y="0px"
	 viewBox="0 0 2051 1080" style="enable-background:new 0 0 2051 1080;" xml:space="preserve">
<style type="text/css">
	.st0{
		fill: #CCCCCC;
		fill-opacity: 1;
		stroke:white;
		stroke-opacity: 1;
		stroke-width:0.5;
		}
	<!-- .st0{fill:#FFFFFF;} -->
	.st1{fill:#FFFFFF;stroke:#fff;stroke-width:4;stroke-miterlimit:10;}
	.st2{fill:none;stroke:#fff;stroke-width:4;stroke-miterlimit:10;}
</style>
<g>
<path   id="bg" name="background" class="st0" d="M55 508h1972v331H55Z" />;
  <path id="1" name="1" type="space" class="st0" d="M863.74 602h101.26v236H863.74Z" /> ;
  <path id="2" name="2" type="space" class="st0" d="M762.65 602h101.26v236H762.65Z" /> ;
    <path id="ns" name="" fill="#0071bc" space_id="1" d="m 809.68392,1161.0881 c -4.04076,-1.0848 -8.49047,-2.2937 -12.17035,-0.9663 -4.85859,1.8409 -9.30314,4.3093 -13.52125,7.0015 -3.9015,2.5404 -6.99131,5.9075 -9.64228,9.5203 -5.06535,7.0623 -9.60105,14.4964 -13.08143,22.4738 -0.6315,1.4434 -0.73383,3.1058 -1.52313,4.4815 -2.3145,4.2578 -4.79171,8.4255 -7.12665,12.6758 -2.12117,0.8006 -3.15611,2.7613 -4.17382,4.5058 -0.69881,1.451 -1.58185,3.0053 -1.07238,4.8042 -4.71225,8.3199 -9.39419,16.6531 -14.12042,24.9643 -1.55962,-1.6232 -2.84479,-3.4889 -4.60136,-4.9461 -1.32651,0.3814 -1.47659,2.0672 -1.42,3.2814 0.10762,2.2779 2.38203,3.9998 3.61934,5.9658 -4.23473,7.5766 -8.54239,15.1117 -12.80301,22.6739 -0.46532,0.8897 -1.22468,1.5748 -1.91271,2.3086 -1.59732,1.6708 -2.6282,3.7303 -3.85302,5.6516 -3.98844,6.2537 -7.57817,12.753 -10.67083,19.5043 -1.35963,2.9703 -1.32092,6.5458 -0.16495,9.9651 1.62499,5.5529 3.6449,11.077 6.08131,16.5112 0.88709,1.958 2.54597,3.6508 4.42346,4.9797 4.8223,3.5268 9.9558,6.6457 15.08144,9.7293 7.51511,4.4403 15.12388,8.7593 22.99224,12.513 2.61642,1.2382 5.44665,2.5108 8.22107,2.2704 6.20903,-0.5516 12.23511,-1.6676 18.10191,-3.0892 2.14107,-0.4785 4.12421,-1.3236 5.73351,-2.5679 1.88765,-1.4019 3.05899,-3.3883 4.33033,-5.259 4.38045,-6.4083 8.14146,-13.2051 11.69355,-20.0959 0.95136,-1.6817 1.06571,-3.7381 2.1074,-5.3682 4.35633,-7.4135 8.78507,-14.7854 13.12018,-22.2112 1.30992,0.2044 2.62022,0.4671 3.92401,0.6411 2.01363,0.2724 3.9016,-0.5075 4.85637,-1.9118 0.27881,-0.3834 0.66407,-0.9346 0.19547,-1.4423 -2.14549,-0.6675 -4.34634,-0.9394 -6.51346,-1.4361 4.87716,-8.2475 9.69468,-16.5259 14.62429,-24.7398 1.28865,-0.2977 2.09196,-1.2332 2.79032,-2.1517 1.12656,-1.5775 2.13033,-3.2832 2.5913,-5.203 0.22036,-0.783 -0.19206,-1.7587 0.36558,-2.4167 2.36083,-3.947 4.66547,-7.9308 7.03606,-11.8722 0.83304,-1.3926 2.22054,-2.3604 3.18557,-3.6497 4.04789,-5.5425 7.56848,-11.4407 10.54364,-17.6226 2.71168,-5.3693 5.22956,-10.9835 5.70812,-17.2341 0.26077,-4.2611 0.21578,-8.5913 -0.22998,-12.9569 -0.20332,-1.7739 -0.36661,-3.5821 -1.15166,-5.3343 -1.04422,-2.3677 -2.95498,-4.411 -4.8112,-6.3849 -5.06394,-5.1827 -11.03575,-9.5982 -17.21754,-13.5752 -9.26004,-5.8176 -19.15388,-10.9272 -29.54569,-13.9878 z m -101.10533,168.3712 c -2.96471,-5.7972 -4.80819,-11.8258 -6.49708,-17.8162 -0.71784,-2.1013 0.20885,-4.0891 1.3387,-5.6141 0.59966,-0.6648 1.63441,0.1079 1.78393,0.8702 2.8104,8.1888 4.72491,16.4937 5.56816,24.728 -0.81887,-0.6395 -1.72234,-1.274 -2.19375,-2.1679 z m 74.02587,22.6096 c -0.83122,1.5456 -1.93911,3.2264 -3.95987,3.6459 -4.91941,1.2415 -9.87946,2.4517 -15.08413,3.008 -2.18065,0.183 -4.49778,0.7848 -6.73945,-0.521 7.63206,-3.3493 15.79927,-5.915 24.36946,-7.5368 0.91413,-0.2957 1.88954,0.6209 1.41378,1.4038 z m -24.49268,-131.7444 c 3.46754,0.3346 6.92546,0.5385 10.39391,0.8736 -3.71842,8.0577 -8.0139,15.9297 -14.10507,22.5204 -4.40305,4.4708 -9.0054,8.8075 -14.04514,12.697 -1.37095,-0.1311 -2.74556,-0.4735 -4.12104,-0.6809 7.14566,-11.8947 14.49276,-23.6652 21.87734,-35.4101 z m 43.62226,86.2841 c -0.82715,3.9233 -5.63213,5.8879 -10.14188,4.5749 -19.73524,-6.0765 -38.58428,-16.6091 -54.18975,-30.229 -1.90169,-1.7201 -4.09408,-3.3591 -5.20241,-5.5816 -1.62433,-2.9974 -1.27501,-6.5323 1.03065,-8.5088 6.24022,-5.4123 12.24742,-11.0447 18.64532,-16.3073 0.69737,-0.6506 1.98882,-0.45 2.84983,0.2268 16.17143,10.6972 33.03834,20.4042 50.37799,29.0777 1.05182,0.4789 1.61118,1.6182 1.31793,2.4986 -1.56542,8.0832 -3.1036,16.176 -4.68753,24.2485 z m 27.75194,-45.0762 c -6.47883,12.2678 -12.99867,24.5161 -19.72748,36.6513 -0.86744,-1.0876 -1.85116,-2.1067 -2.65075,-3.2287 0.84906,-6.3091 2.30314,-12.4632 3.9741,-18.5116 2.66189,-8.5706 7.33135,-16.2266 12.45076,-23.4754 2.02482,2.836 3.9297,5.7286 5.95337,8.5644 z m 7.02818,-22.0665 c 1.05773,2.9156 1.2981,6.0439 0.038,8.5746 -2.10031,4.0859 -4.2512,8.143 -6.38746,12.2084 -1.90993,-2.8017 -3.85295,-5.5952 -5.7816,-8.3883 3.17069,-4.2383 6.51374,-8.3605 10.08866,-12.3029 0.41488,-0.4872 1.55257,-1.1126 2.04196,-0.092 z m -61.86454,-34.4466 c -1.627,5.0671 -3.52549,10.0234 -5.61057,14.8885 -3.38367,-0.2741 -6.77415,-0.5602 -10.15543,-0.8131 2.45291,-3.8826 4.89075,-7.7739 7.37917,-11.6357 1.56141,-2.3564 4.39061,-3.7125 7.44515,-4.2539 1.1288,-0.087 1.15534,1.2109 0.94125,1.8145 z m 71.82166,8.6878 c -5.4676,6.1581 -10.89521,12.3458 -16.36249,18.5038 -0.50999,0.8096 -1.91234,0.8474 -2.78545,0.06 -7.91581,-5.8217 -16.18662,-11.2263 -24.84574,-15.9424 -5.85923,-3.2075 -11.89558,-6.0672 -17.98238,-8.7723 -1.10458,-0.3695 -1.63125,-1.5991 -1.22505,-2.4105 2.61688,-7.8032 5.22346,-15.6049 7.83901,-23.4057 0,0 26.35546,2.6709 49.1694,25.2194 2.23229,2.1261 4.30452,4.3868 6.19272,6.7479 z" />
    <path id="ns" name="" fill="#0071bc" space_id="2" d="m 963.44377,1161.0881 c -4.04076,-1.0848 -8.49047,-2.2937 -12.17035,-0.9663 -4.85859,1.8409 -9.30314,4.3093 -13.52125,7.0015 -3.9015,2.5404 -6.99131,5.9075 -9.64228,9.5203 -5.06535,7.0623 -9.60105,14.4964 -13.08143,22.4738 -0.6315,1.4434 -0.73383,3.1058 -1.52313,4.4815 -2.3145,4.2578 -4.79171,8.4255 -7.12665,12.6758 -2.12117,0.8006 -3.15611,2.7613 -4.17382,4.5058 -0.69881,1.451 -1.58185,3.0053 -1.07238,4.8042 -4.71225,8.3199 -9.39419,16.6531 -14.12042,24.9643 -1.55962,-1.6232 -2.84479,-3.4889 -4.60136,-4.9461 -1.32651,0.3814 -1.47659,2.0672 -1.42,3.2814 0.10762,2.2779 2.38203,3.9998 3.61934,5.9658 -4.23473,7.5766 -8.54239,15.1117 -12.80301,22.6739 -0.46532,0.8897 -1.22468,1.5748 -1.91271,2.3086 -1.59732,1.6708 -2.6282,3.7303 -3.85302,5.6516 -3.98844,6.2537 -7.57817,12.753 -10.67083,19.5043 -1.35963,2.9703 -1.32092,6.5458 -0.16495,9.9651 1.62499,5.5529 3.6449,11.077 6.08131,16.5112 0.88709,1.958 2.54597,3.6508 4.42346,4.9797 4.8223,3.5268 9.9558,6.6457 15.08144,9.7293 7.51511,4.4403 15.12388,8.7593 22.99224,12.513 2.61642,1.2382 5.44665,2.5108 8.22107,2.2704 6.20903,-0.5516 12.23511,-1.6676 18.10191,-3.0892 2.14107,-0.4785 4.12421,-1.3236 5.73351,-2.5679 1.88765,-1.4019 3.05899,-3.3883 4.33033,-5.259 4.38045,-6.4083 8.14146,-13.2051 11.69355,-20.0959 0.95136,-1.6817 1.06571,-3.7381 2.1074,-5.3682 4.35633,-7.4135 8.78507,-14.7854 13.12018,-22.2112 1.30992,0.2044 2.62022,0.4671 3.92401,0.6411 2.01363,0.2724 3.9016,-0.5075 4.85637,-1.9118 0.27881,-0.3834 0.66407,-0.9346 0.19547,-1.4423 -2.14549,-0.6675 -4.34634,-0.9394 -6.51346,-1.4361 4.87716,-8.2475 9.6947,-16.5259 14.6243,-24.7398 1.2886,-0.2977 2.092,-1.2332 2.7903,-2.1517 1.1266,-1.5775 2.1303,-3.2832 2.5913,-5.203 0.2204,-0.783 -0.192,-1.7587 0.3656,-2.4167 2.3608,-3.947 4.6655,-7.9308 7.0361,-11.8722 0.833,-1.3926 2.2205,-2.3604 3.18549,-3.6497 4.0479,-5.5425 7.5685,-11.4407 10.5437,-17.6226 2.7116,-5.3693 5.2295,-10.9835 5.7081,-17.2341 0.2608,-4.2611 0.2158,-8.5913 -0.23,-12.9569 -0.2033,-1.7739 -0.3666,-3.5821 -1.1517,-5.3343 -1.0442,-2.3677 -2.9549,-4.411 -4.8112,-6.3849 -5.0639,-5.1827 -11.03569,-9.5982 -17.21749,-13.5752 -9.26,-5.8176 -19.15388,-10.9272 -29.54569,-13.9878 z m -101.10533,168.3712 c -2.96471,-5.7972 -4.80819,-11.8258 -6.49708,-17.8162 -0.71784,-2.1013 0.20885,-4.0891 1.3387,-5.6141 0.59966,-0.6648 1.63441,0.1079 1.78393,0.8702 2.8104,8.1888 4.72491,16.4937 5.56816,24.728 -0.81887,-0.6395 -1.72234,-1.274 -2.19375,-2.1679 z m 74.02587,22.6096 c -0.83122,1.5456 -1.93911,3.2264 -3.95987,3.6459 -4.91941,1.2415 -9.87946,2.4517 -15.08413,3.008 -2.18065,0.183 -4.49778,0.7848 -6.73945,-0.521 7.63206,-3.3493 15.79927,-5.915 24.36946,-7.5368 0.91413,-0.2957 1.88954,0.6209 1.41378,1.4038 z m -24.49268,-131.7444 c 3.46754,0.3346 6.92546,0.5385 10.39391,0.8736 -3.71842,8.0577 -8.0139,15.9297 -14.10507,22.5204 -4.40305,4.4708 -9.0054,8.8075 -14.04514,12.697 -1.37095,-0.1311 -2.74556,-0.4735 -4.12104,-0.6809 7.14566,-11.8947 14.49276,-23.6652 21.87734,-35.4101 z m 43.62226,86.2841 c -0.82715,3.9233 -5.63213,5.8879 -10.14188,4.5749 -19.73524,-6.0765 -38.58428,-16.6091 -54.18975,-30.229 -1.90169,-1.7201 -4.09408,-3.3591 -5.20241,-5.5816 -1.62433,-2.9974 -1.27501,-6.5323 1.03065,-8.5088 6.24022,-5.4123 12.24742,-11.0447 18.64532,-16.3073 0.69737,-0.6506 1.98882,-0.45 2.84983,0.2268 16.17143,10.6972 33.03834,20.4042 50.37799,29.0777 1.05182,0.4789 1.61118,1.6182 1.31793,2.4986 -1.56542,8.0832 -3.1036,16.176 -4.68753,24.2485 z m 27.75192,-45.0762 c -6.47881,12.2678 -12.99865,24.5161 -19.72746,36.6513 -0.86744,-1.0876 -1.85116,-2.1067 -2.65075,-3.2287 0.84906,-6.3091 2.30314,-12.4632 3.9741,-18.5116 2.66189,-8.5706 7.33135,-16.2266 12.45076,-23.4754 2.02485,2.836 3.92975,5.7286 5.95335,8.5644 z m 7.0282,-22.0665 c 1.0577,2.9156 1.2981,6.0439 0.038,8.5746 -2.1003,4.0859 -4.2512,8.143 -6.3875,12.2084 -1.9099,-2.8017 -3.8529,-5.5952 -5.78156,-8.3883 3.17066,-4.2383 6.51376,-8.3605 10.08866,-12.3029 0.4149,-0.4872 1.5526,-1.1126 2.042,-0.092 z m -61.86454,-34.4466 c -1.627,5.0671 -3.52549,10.0234 -5.61057,14.8885 -3.38367,-0.2741 -6.77415,-0.5602 -10.15543,-0.8131 2.45291,-3.8826 4.89075,-7.7739 7.37917,-11.6357 1.56141,-2.3564 4.39061,-3.7125 7.44515,-4.2539 1.1288,-0.087 1.15534,1.2109 0.94125,1.8145 z m 71.82163,8.6878 c -5.46759,6.1581 -10.89519,12.3458 -16.36249,18.5038 -0.51,0.8096 -1.9123,0.8474 -2.7854,0.06 -7.91583,-5.8217 -16.18664,-11.2263 -24.84576,-15.9424 -5.85923,-3.2075 -11.89558,-6.0672 -17.98238,-8.7723 -1.10458,-0.3695 -1.63125,-1.5991 -1.22505,-2.4105 2.61688,-7.8032 5.22346,-15.6049 7.83901,-23.4057 0,0 26.35546,2.6709 49.16938,25.2194 2.2323,2.1261 4.3045,4.3868 6.19269,6.7479 z" />


</g>
</svg>
