<svg width="17" height="15" viewBox="0 0 17 15" fill="none" xmlns="http://www.w3.org/2000/svg">
<path fill-rule="evenodd" clip-rule="evenodd" d="M16.6667 4.48483L0 4.48482V10.5513C0 13.3462 1.6963 15 4.57037 15H12.0963C14.9704 15 16.6667 13.3462 16.6667 10.5513V4.48483ZM12.0963 0C14.52 0 16.1062 1.17617 16.5437 3.24265H0.118353C0.549308 1.18448 2.13807 0 4.57037 0H12.0963ZM8.54074 12.1108H3.26667C2.91365 12.1069 2.62961 11.8267 2.62963 11.4825C2.62962 11.3184 2.69697 11.1612 2.81666 11.0459C2.93634 10.9305 3.0984 10.8667 3.26667 10.8686H8.54074C8.89257 10.8686 9.17778 11.1467 9.17778 11.4897C9.17778 11.8327 8.89257 12.1108 8.54074 12.1108Z" fill="#9E9E9E"/>
</svg>
