<svg width="14" height="14" viewBox="0 0 14 14" fill="none" xmlns="http://www.w3.org/2000/svg">
<path fill-rule="evenodd" clip-rule="evenodd" d="M3.96902 0H10.0381C12.4111 0 14.0001 1.66601 14.0001 4.14403V9.86376C14.0001 12.3348 12.4111 14.0001 10.0381 14.0001H3.96902C1.59601 14.0001 0 12.3348 0 9.86376V4.14403C0 1.66601 1.59601 0 3.96902 0ZM6.99304 4.94273C6.66404 4.94273 6.39104 4.66903 6.39104 4.33373C6.39104 3.99072 6.66404 3.71772 7.00704 3.71772C7.34304 3.71772 7.61605 3.99072 7.61605 4.33373C7.61605 4.66903 7.34304 4.94273 6.99304 4.94273ZM7.60905 9.64676C7.60905 9.98276 7.33604 10.2558 6.99304 10.2558C6.65704 10.2558 6.38404 9.98276 6.38404 9.64676V6.55274C6.38404 6.21604 6.65704 5.93674 6.99304 5.93674C7.33604 5.93674 7.60905 6.21604 7.60905 6.55274V9.64676Z" fill="#2F6FB6"/>
</svg>
