<svg width="17" height="16" viewBox="0 0 17 16" fill="none" xmlns="http://www.w3.org/2000/svg">
<path fill-rule="evenodd" clip-rule="evenodd" d="M11.0128 8.74049C11.0128 7.27465 9.82409 6.08598 8.35824 6.08598C6.8924 6.08598 5.70373 7.27465 5.70373 8.74049C5.70373 10.2063 6.8924 11.395 8.35824 11.395C9.82409 11.395 11.0128 10.2063 11.0128 8.74049Z" stroke="#2F6FB6" stroke-width="1.5" stroke-linecap="round" stroke-linejoin="round"/>
<path fill-rule="evenodd" clip-rule="evenodd" d="M8.35797 15.2406C15.1479 15.2406 15.9564 13.2062 15.9564 8.79798C15.9564 5.70816 15.5477 4.05487 12.974 3.34416C12.7377 3.26953 12.4757 3.12739 12.2633 2.89374C11.9204 2.51795 11.6699 1.36394 10.8419 1.0148C10.0139 0.66655 6.68869 0.682541 5.87403 1.0148C5.06027 1.34794 4.79553 2.51795 4.45261 2.89374C4.24029 3.12739 3.9791 3.26953 3.7419 3.34416C1.16823 4.05487 0.759573 5.70816 0.759573 8.79798C0.759573 13.2062 1.56801 15.2406 8.35797 15.2406Z" stroke="#2F6FB6" stroke-width="1.5" stroke-linecap="round" stroke-linejoin="round"/>
<path d="M12.5035 5.78796H12.5111" stroke="#2F6FB6" stroke-width="1.5" stroke-linecap="round" stroke-linejoin="round"/>
</svg>
