<svg width="15" height="15" viewBox="0 0 15 15" fill="none" xmlns="http://www.w3.org/2000/svg">
<path fill-rule="evenodd" clip-rule="evenodd" d="M5.31366 14.1899L12.6357 4.7212C13.0336 4.21059 13.1751 3.62025 13.0424 3.01916C12.9275 2.47271 12.5914 1.95314 12.0874 1.55899L10.8582 0.582553C9.78821 -0.268467 8.46177 -0.178886 7.70127 0.797548L6.87887 1.86446C6.77276 1.99793 6.79929 2.19501 6.93193 2.30251C6.93193 2.30251 9.01003 3.96872 9.05424 4.00455C9.19573 4.13892 9.30185 4.31808 9.32838 4.53308C9.37259 4.95411 9.08077 5.34827 8.64747 5.40201C8.44408 5.42889 8.24953 5.36618 8.10805 5.24973L5.92383 3.51185C5.81771 3.43213 5.65854 3.44915 5.57011 3.55664L0.379282 10.2752C0.0432487 10.6963 -0.07171 11.2427 0.0432487 11.7712L0.706472 14.6468C0.741844 14.7991 0.874489 14.9066 1.03366 14.9066L3.95185 14.8707C4.48242 14.8618 4.97763 14.6199 5.31366 14.1899ZM9.39974 13.2944H14.1581C14.6224 13.2944 15 13.6769 15 14.1472C15 14.6184 14.6224 15 14.1581 15H9.39974C8.93548 15 8.55789 14.6184 8.55789 14.1472C8.55789 13.6769 8.93548 13.2944 9.39974 13.2944Z" fill="#9E9E9E"/>
</svg>
