<svg width="15" height="17" viewBox="0 0 15 17" fill="none" xmlns="http://www.w3.org/2000/svg">
<path fill-rule="evenodd" clip-rule="evenodd" d="M0.231609 12.0449C0.331577 11.9064 0.561206 11.6831 0.561206 11.6831C1.37382 10.8161 3.39495 9.5102 4.42036 9.09084C4.42036 9.08206 5.03007 8.83336 5.32007 8.82361L5.35868 8.82361C5.80309 8.82361 6.2188 9.07231 6.4316 9.47217C6.51933 9.63701 6.60093 10.0379 6.64029 10.2314C6.65333 10.2955 6.66173 10.3368 6.6642 10.3392C6.7513 10.9107 6.80871 11.7875 6.80871 12.7501C6.80871 13.7604 6.7513 14.6752 6.6444 15.238C6.6444 15.2477 6.5385 15.7617 6.4702 15.9333C6.36429 16.1811 6.1703 16.3907 5.92879 16.5244C5.73578 16.6199 5.53189 16.6667 5.32008 16.6667C5.09737 16.658 4.68167 16.5146 4.51736 16.4483C3.43355 16.0289 1.36392 14.6567 0.571104 13.818C0.482681 13.7309 0.390049 13.6317 0.325593 13.5627C0.291204 13.5259 0.264834 13.4977 0.251404 13.4844C0.0871006 13.2748 -1.59523e-07 13.0173 -1.7163e-07 12.7403C-1.82416e-07 12.4936 0.0772028 12.2458 0.231609 12.0449ZM5.96815 3.1429C6.40465 3.1429 6.75801 3.49107 6.75801 3.92116C6.75801 4.35126 6.40465 4.69943 5.96815 4.69943L2.15246 4.91399C1.59619 4.91399 1.14583 4.46927 1.14583 3.92116C1.14583 3.37306 1.59619 2.92931 2.15246 2.92931L5.96815 3.1429ZM8.52966 0.733487C8.63656 0.485767 8.82957 0.276085 9.07108 0.142471C9.26409 0.0468956 9.46799 8.16021e-05 9.6808 8.15928e-05C9.90252 0.0088592 10.3192 0.152225 10.4835 0.219518C11.5664 0.63791 13.6361 2.01109 14.4299 2.84885C14.5162 2.93451 14.607 3.0318 14.6712 3.10062L14.6712 3.10065L14.6712 3.10066C14.7071 3.13916 14.7347 3.16875 14.7486 3.18239C14.9129 3.39305 15 3.64955 15 3.92555C15 4.17425 14.9228 4.42196 14.7674 4.6219C14.6684 4.76038 14.4388 4.98372 14.4388 4.98372C13.6271 5.85171 11.605 7.15663 10.5795 7.57599C10.5795 7.58575 9.97081 7.83347 9.6808 7.84322L9.6422 7.84322C9.19679 7.84322 8.78107 7.5955 8.56826 7.19466C8.48144 7.03015 8.39963 6.63049 8.35994 6.43661L8.35994 6.43658C8.34669 6.37187 8.33814 6.33009 8.33566 6.32765C8.24856 5.75614 8.19115 4.87937 8.19115 3.91677C8.19115 2.90639 8.24856 1.99159 8.35546 1.42886C8.35546 1.42008 8.46136 0.905134 8.52966 0.733487ZM8.24211 12.7455C8.24211 13.1756 8.59546 13.5237 9.03195 13.5237L12.8476 13.7383C13.4038 13.7383 13.8542 13.2936 13.8542 12.7455C13.8542 12.1974 13.4038 11.7536 12.8476 11.7536L9.03195 11.9672C8.59546 11.9672 8.24211 12.3154 8.24211 12.7455Z" fill="#2F6FB6"/>
</svg>
