<svg width="23" height="23" viewBox="0 0 23 23" fill="none" xmlns="http://www.w3.org/2000/svg">
<path fill-rule="evenodd" clip-rule="evenodd" d="M11.5 0.766592C9.07193 0.766592 8.84238 4.99574 7.39682 6.48997C5.95127 7.9842 1.4572 6.27573 0.832808 8.92793C0.209725 11.5815 4.25255 12.4818 4.75102 14.7584C5.25211 17.035 2.78207 20.2337 4.89269 21.8255C7.0033 23.416 9.27526 19.816 11.5 19.816C13.7247 19.816 15.9967 23.416 18.1073 21.8255C20.2179 20.2337 17.7492 17.035 18.249 14.7584C18.7487 12.4818 22.7903 11.5815 22.1672 8.92793C21.5441 6.27573 17.0487 7.9842 15.6045 6.48997C14.1589 4.99574 13.928 0.766592 11.5 0.766592Z" stroke="#212121" stroke-width="1.5" stroke-linecap="round" stroke-linejoin="round"/>
</svg>
