<svg width="16" height="17" viewBox="0 0 16 17" fill="none" xmlns="http://www.w3.org/2000/svg">
<path fill-rule="evenodd" clip-rule="evenodd" d="M7.90412 0H12.1478C14.2696 0 16.0001 1.68422 16.0001 3.73897V13.1032C16.0001 15.1664 14.2696 16.8422 12.1304 16.8422H7.89542C5.7736 16.8422 4.0344 15.1664 4.0344 13.1116V9.06952H9.42591L8.03456 10.4169C7.77368 10.6695 7.77368 11.0822 8.03456 11.3348C8.165 11.4611 8.33892 11.5201 8.51283 11.5201C8.67806 11.5201 8.85198 11.4611 8.98242 11.3348L11.5216 8.88426C11.6521 8.76636 11.7217 8.59794 11.7217 8.4211C11.7217 8.25267 11.6521 8.08425 11.5216 7.96636L8.98242 5.51582C8.72154 5.26319 8.29544 5.26319 8.03456 5.51582C7.77368 5.76845 7.77368 6.18108 8.03456 6.43372L9.42591 7.77267H4.0344V3.74739C4.0344 1.68422 5.7736 0 7.90412 0ZM0 8.42101C0 8.06733 0.299142 7.77259 0.658113 7.77259H4.03414V9.06944H0.658113C0.299142 9.06944 0 8.78312 0 8.42101Z" fill="white"/>
</svg>
