<svg width="15" height="17" viewBox="0 0 15 17" fill="none" xmlns="http://www.w3.org/2000/svg">
<path fill-rule="evenodd" clip-rule="evenodd" d="M11.1757 0.640514L11.1766 1.2652C13.4721 1.44511 14.9885 3.00933 14.9909 5.40813L15 12.4296C15.0033 15.045 13.3602 16.6542 10.7265 16.6583L4.29324 16.6667C1.67599 16.67 0.0123471 15.0225 0.00905605 12.3996L5.54146e-06 5.4606C-0.00328555 3.04598 1.45961 1.48592 3.75514 1.2752L3.75432 0.650509C3.7535 0.284026 4.02501 0.00833105 4.38703 0.00833105C4.74905 0.00749813 5.02057 0.28236 5.02139 0.648844L5.02221 1.23188L9.90949 1.22522L9.90866 0.64218C9.90784 0.275697 10.1794 0.000834804 10.5414 1.88791e-06C10.8952 -0.000831028 11.1749 0.274031 11.1757 0.640514ZM1.2679 5.71797L13.7247 5.70131V5.40979C13.6893 3.61902 12.7908 2.67949 11.1782 2.53956L11.179 3.18091C11.179 3.53906 10.9001 3.82309 10.5463 3.82309C10.1843 3.82392 9.91195 3.54073 9.91195 3.18257L9.91113 2.50791L5.02386 2.51458L5.02468 3.18841C5.02468 3.54739 4.75399 3.83058 4.39197 3.83058C4.02995 3.83142 3.75761 3.54906 3.75761 3.19007L3.75679 2.54873C2.15238 2.70948 1.26461 3.65234 1.26708 5.45893L1.2679 5.71797ZM10.1999 9.50358V9.51274C10.2082 9.89588 10.5208 10.1866 10.9001 10.1782C11.2704 10.1691 11.5657 9.85174 11.5575 9.46859C11.5402 9.10211 11.2432 8.80309 10.8738 8.80393C10.4953 8.81226 10.1991 9.12043 10.1999 9.50358ZM10.8795 13.2434C10.5011 13.235 10.1958 12.9194 10.195 12.5362C10.1868 12.1531 10.4904 11.8357 10.8688 11.8266H10.8771C11.2638 11.8266 11.5772 12.1423 11.5772 12.5337C11.5781 12.9252 11.2654 13.2425 10.8795 13.2434ZM6.8101 9.5169C6.82655 9.90004 7.14003 10.1991 7.51851 10.1824C7.88875 10.1649 8.18413 9.8484 8.16768 9.46526C8.15862 9.09045 7.8542 8.79893 7.48395 8.79976C7.10547 8.81642 6.80928 9.13376 6.8101 9.5169ZM7.5218 13.2059C7.14332 13.2225 6.83067 12.9235 6.81339 12.5404C6.81339 12.1572 7.10877 11.8407 7.48724 11.8232C7.85749 11.8224 8.16274 12.1139 8.17097 12.4879C8.18824 12.8719 7.89205 13.1884 7.5218 13.2059ZM3.42027 9.54605C3.43673 9.9292 3.7502 10.229 4.12868 10.2116C4.49893 10.1949 4.7943 9.87755 4.77703 9.49441C4.7688 9.1196 4.46437 8.82808 4.0933 8.82891C3.71483 8.84557 3.41945 9.16291 3.42027 9.54605ZM4.13197 13.2101C3.7535 13.2275 3.44084 12.9277 3.42356 12.5446C3.42274 12.1614 3.71894 11.8441 4.09741 11.8274C4.46766 11.8266 4.77291 12.1181 4.78114 12.4929C4.79842 12.8761 4.50304 13.1934 4.13197 13.2101Z" fill="#9E9E9E"/>
</svg>
