<svg width="19" height="16" viewBox="0 0 19 16" fill="none" xmlns="http://www.w3.org/2000/svg">
<path fill-rule="evenodd" clip-rule="evenodd" d="M4.29216e-05 0.875909C4.29428e-05 0.392407 0.392449 -4.09622e-07 0.875951 -3.88488e-07L13.5591 -3.82872e-08C14.0426 -1.71527e-08 14.435 0.392407 14.435 0.875909C14.435 1.35941 14.0426 1.75182 13.5591 1.75182L0.875951 1.75182C0.392449 1.75182 4.29005e-05 1.35941 4.29216e-05 0.875909Z" fill="#212121"/>
<path fill-rule="evenodd" clip-rule="evenodd" d="M0.00117611 8C0.00117613 7.5165 0.393584 7.12409 0.877085 7.12409L17.3944 7.12409C17.8779 7.12409 18.2703 7.5165 18.2703 8C18.2703 8.4835 17.8779 8.87591 17.3944 8.87591L0.877085 8.87591C0.393583 8.87591 0.00117609 8.4835 0.00117611 8Z" fill="#212121"/>
<path fill-rule="evenodd" clip-rule="evenodd" d="M0.00125057 15.1241C0.00125059 14.6406 0.393658 14.2482 0.877159 14.2482L9.32559 14.2482C9.8091 14.2482 10.2015 14.6406 10.2015 15.1241C10.2015 15.6076 9.8091 16 9.32559 16L0.877159 16C0.393658 16 0.00125055 15.6076 0.00125057 15.1241Z" fill="#212121"/>
</svg>
