<svg width="17" height="15" viewBox="0 0 17 15" fill="none" xmlns="http://www.w3.org/2000/svg">
<path fill-rule="evenodd" clip-rule="evenodd" d="M6.63277 9.98967C7.16357 10.3495 7.81049 10.5671 8.49887 10.5671C10.3235 10.5671 11.8081 9.06916 11.8081 7.22813C11.8081 6.53356 11.5924 5.88083 11.2358 5.34526L10.3318 6.25741C10.4811 6.54193 10.564 6.87666 10.564 7.22813C10.564 8.37459 9.63512 9.31184 8.49887 9.31184C8.15053 9.31184 7.81878 9.22816 7.53679 9.07753L6.63277 9.98967ZM13.9645 2.59208C15.1671 3.6967 16.1872 5.18626 16.9502 6.97708C17.0166 7.13608 17.0166 7.32018 16.9502 7.47081C15.1754 11.6382 12.0154 14.132 8.49887 14.132H8.49058C6.88988 14.132 5.35553 13.6048 4.00365 12.6424L2.39466 14.2659C2.27025 14.3914 2.11267 14.45 1.95509 14.45C1.79751 14.45 1.63163 14.3914 1.51552 14.2659C1.30818 14.0567 1.275 13.7219 1.44088 13.4793L1.46576 13.4458L13.7322 1.06905L13.7322 1.06905C13.7488 1.05231 13.7654 1.03558 13.7737 1.01884L13.7737 1.01884C13.7903 1.0021 13.8069 0.985367 13.8152 0.968632L14.5948 0.182011C14.8436 -0.0606703 15.2334 -0.0606703 15.4739 0.182011C15.7227 0.424692 15.7227 0.826371 15.4739 1.06905L13.9645 2.59208ZM5.1836 7.23139C5.1836 7.44897 5.20848 7.66655 5.24166 7.86738L2.17297 10.9637C1.34359 9.99294 0.622032 8.82137 0.0497626 7.47407C-0.0165875 7.32344 -0.0165875 7.13934 0.0497626 6.98034C1.82463 2.81292 4.98455 0.327536 8.49282 0.327536H8.50111C9.68712 0.327536 10.84 0.612058 11.9016 1.14763L9.13144 3.94265C8.93238 3.90917 8.71675 3.88407 8.50111 3.88407C6.66819 3.88407 5.1836 5.382 5.1836 7.23139Z" fill="#9E9E9E"/>
</svg>
