<svg width="17" height="17" viewBox="0 0 17 17" fill="none" xmlns="http://www.w3.org/2000/svg">
<path fill-rule="evenodd" clip-rule="evenodd" d="M4.81948 0H12.1889C15.0704 0 16.9999 2.02214 16.9999 5.03113V11.9756C16.9999 14.9769 15.0704 16.9999 12.1889 16.9999H4.81948C1.93799 16.9999 0 14.9769 0 11.9756V5.03113C0 2.02214 1.93799 0 4.81948 0ZM11.5429 11.7384C11.7554 11.7384 11.9679 11.6279 12.0869 11.4239C12.2739 11.1256 12.1719 10.7346 11.8659 10.5484L8.83996 8.74646V4.81863C8.83996 4.47098 8.55946 4.18113 8.20246 4.18113C7.85396 4.18113 7.56496 4.47098 7.56496 4.81863V9.11196C7.56496 9.33296 7.68396 9.54545 7.87946 9.65595L11.2114 11.6449C11.3134 11.7129 11.4324 11.7384 11.5429 11.7384Z" fill="#9E9E9E"/>
</svg>
