<svg width="330" height="200" viewBox="0 0 261 250" fill="none" xmlns="http://www.w3.org/2000/svg">
<g clip-path="url(#clip0_932_12967)">
<path d="M235.042 242.2C236.031 242.262 236.577 241.036 235.829 240.322L235.755 240.027C235.764 240.003 235.774 239.979 235.784 239.956C236.784 237.577 240.171 237.593 241.162 239.976C242.042 242.09 243.162 244.209 243.437 246.445C243.561 247.432 243.505 248.437 243.286 249.406C245.347 244.912 246.432 240.004 246.432 235.069C246.432 233.829 246.364 232.589 246.225 231.352C246.11 230.341 245.953 229.335 245.749 228.339C244.646 222.953 242.257 217.824 238.812 213.54C237.155 212.636 235.774 211.223 234.94 209.53C234.64 208.919 234.405 208.262 234.294 207.593C234.483 207.617 235.005 204.752 234.863 204.576C235.125 204.178 235.596 203.98 235.882 203.592C237.309 201.661 239.275 201.998 240.301 204.622C242.493 205.727 242.514 207.558 241.169 209.32C240.314 210.441 240.196 211.957 239.445 213.157C239.522 213.256 239.603 213.351 239.68 213.45C241.097 215.264 242.322 217.213 243.355 219.261C243.063 216.985 243.494 214.243 244.228 212.475C245.065 210.461 246.632 208.765 248.013 207.024C249.671 204.933 253.071 205.845 253.363 208.497C253.366 208.522 253.369 208.548 253.372 208.574C253.167 208.689 252.966 208.812 252.769 208.941C251.65 209.68 252.037 211.412 253.363 211.616L253.393 211.621C253.319 212.358 253.192 213.089 253.007 213.808C254.778 220.644 250.955 223.134 245.495 223.246C245.375 223.308 245.257 223.37 245.137 223.428C245.69 224.983 246.132 226.578 246.459 228.194C246.753 229.622 246.957 231.065 247.071 232.515C247.213 234.344 247.201 236.183 247.046 238.009L247.056 237.944C247.448 235.933 248.542 234.054 250.13 232.753C252.496 230.812 255.839 230.098 258.391 228.539C259.62 227.788 261.195 228.758 260.98 230.18L260.97 230.248C260.59 230.402 260.219 230.581 259.86 230.782C259.655 230.897 259.455 231.02 259.258 231.149C258.139 231.888 258.526 233.62 259.852 233.824L259.882 233.829C259.904 233.832 259.922 233.835 259.944 233.838C259.292 235.384 258.384 236.818 257.246 238.055C256.139 244.023 251.383 244.589 246.296 242.851H246.292C245.736 245.269 244.924 247.632 243.879 249.884H235.258C235.227 249.788 235.2 249.689 235.172 249.594C235.969 249.643 236.772 249.597 237.557 249.452C236.918 248.668 236.278 247.879 235.638 247.095C235.623 247.08 235.611 247.065 235.598 247.049C235.274 246.648 234.946 246.25 234.622 245.849L234.622 245.849C234.601 244.618 234.749 243.391 235.042 242.2L235.042 242.2V242.2Z" fill="#F2F2F2"/>
<path d="M76.4266 249.432C76.4266 249.747 76.6802 250 76.996 250H260.364C260.679 250 260.933 249.747 260.933 249.432C260.933 249.117 260.679 248.863 260.364 248.863H76.996C76.6802 248.863 76.4266 249.117 76.4266 249.432Z" fill="#CCCCCC"/>
<path d="M104.251 249.758H19.8485C9.55709 249.758 1.18433 241.4 1.18433 231.127V50.0624C1.18433 39.7893 9.55709 31.4314 19.8485 31.4314H104.251C114.542 31.4314 122.915 39.7893 122.915 50.0624V231.127C122.915 241.4 114.542 249.758 104.251 249.758Z" fill="#3F3D56"/>
<path d="M122.915 98.0328C122.479 98.0328 122.125 98.3863 122.125 98.821V124.043C122.125 124.478 122.479 124.831 122.915 124.831C123.35 124.831 123.705 124.478 123.705 124.043V98.821C123.705 98.3863 123.35 98.0328 122.915 98.0328Z" fill="#3F3D56"/>
<path d="M121.139 50.0625V231.124C121.139 240.066 114.166 247.38 105.351 247.947H105.347C105.217 247.955 105.086 247.963 104.952 247.967C104.719 247.979 104.486 247.983 104.249 247.983C104.249 247.983 103.381 247.92 101.794 247.802C100.191 247.683 97.8576 247.506 94.948 247.273C94.0755 247.206 93.1556 247.132 92.1844 247.053C90.2499 246.895 88.126 246.722 85.848 246.525C84.94 246.45 84.0004 246.367 83.041 246.284C78.1377 245.863 72.6461 245.37 66.8545 244.81C65.8755 244.72 64.8885 244.625 63.8936 244.527C63.633 244.499 63.3685 244.475 63.104 244.448C58.9745 244.042 2.96106 233.236 2.96106 231.124V50.0625C2.96106 40.7502 10.5213 33.2033 19.8503 33.2033H29.9333C31.544 33.2033 32.839 34.4565 32.9771 36.0605C32.989 36.1669 33.0008 36.2733 33.0206 36.3797C33.3127 37.9915 34.7932 39.1147 36.4355 39.1147H87.6641C89.3064 39.1147 90.7868 37.9915 91.079 36.3797C91.0987 36.2733 91.1106 36.1669 91.1224 36.0605C91.2606 34.4565 92.5555 33.2033 94.1663 33.2033H104.249C113.578 33.2033 121.139 40.7502 121.139 50.0625Z" fill="white"/>
<path d="M0.789583 79.1165C0.354115 79.1165 0 79.4699 0 79.9046V86.2101C0 86.6448 0.35412 86.9983 0.789583 86.9983C1.22505 86.9983 1.57917 86.6448 1.57917 86.2101V79.9046C1.57917 79.4699 1.22505 79.1165 0.789583 79.1165Z" fill="#3F3D56"/>
<path d="M0.789583 98.0328C0.354115 98.0328 0 98.3863 0 98.821V111.038C0 111.473 0.35412 111.826 0.789583 111.826C1.22505 111.826 1.57917 111.473 1.57917 111.038V98.821C1.57917 98.3863 1.22505 98.0328 0.789583 98.0328Z" fill="#3F3D56"/>
<path d="M0.789583 115.373C0.354115 115.373 0 115.726 0 116.161V128.378C0 128.812 0.35412 129.166 0.789583 129.166C1.22505 129.166 1.57917 128.812 1.57917 128.378V116.161C1.57917 115.726 1.22505 115.373 0.789583 115.373Z" fill="#3F3D56"/>
<path d="M29.6584 35.9635H14.5583C14.4764 35.9635 14.4099 36.0298 14.4099 36.1116V37.7858C14.4099 37.8676 14.4764 37.934 14.5583 37.934H29.6584C29.7404 37.934 29.8068 37.8676 29.8068 37.7858V36.1116C29.8068 36.0298 29.7404 35.9635 29.6584 35.9635Z" fill="#E6E6E6"/>
<path d="M96.6612 37.934C97.5333 37.934 98.2404 37.2282 98.2404 36.3576C98.2404 35.487 97.5333 34.7812 96.6612 34.7812C95.789 34.7812 95.082 35.487 95.082 36.3576C95.082 37.2282 95.789 37.934 96.6612 37.934Z" fill="#E6E6E6"/>
<path d="M101.004 37.934C101.876 37.934 102.583 37.2282 102.583 36.3576C102.583 35.487 101.876 34.7812 101.004 34.7812C100.132 34.7812 99.4248 35.487 99.4248 36.3576C99.4248 37.2282 100.132 37.934 101.004 37.934Z" fill="#E6E6E6"/>
<path d="M105.347 37.934C106.219 37.934 106.926 37.2282 106.926 36.3576C106.926 35.487 106.219 34.7812 105.347 34.7812C104.475 34.7812 103.768 35.487 103.768 36.3576C103.768 37.2282 104.475 37.934 105.347 37.934Z" fill="#E6E6E6"/>
<path d="M62.0924 216.578C77.4169 216.578 89.8399 204.178 89.8399 188.88C89.8399 173.583 77.4169 161.182 62.0924 161.182C46.7679 161.182 34.345 173.583 34.345 188.88C34.345 204.178 46.7679 216.578 62.0924 216.578Z" fill="#4D5DFA"/>
<path d="M66.5023 179.836C64.1606 179.932 61.5133 180.093 59.7824 181.887C58.2787 183.445 57.9492 185.757 59.4741 187.421C61.0029 189.089 63.38 189.315 65.1424 190.616C67.2117 192.144 66.9086 195.167 64.9061 196.615C62.5447 198.323 59.4958 197.526 57.3369 195.902C56.7837 195.485 56.2467 196.418 56.7936 196.829C58.7278 198.285 61.2517 199.095 63.6432 198.399C65.8015 197.77 67.4745 196.014 67.6447 193.729C67.7259 192.638 67.4153 191.531 66.736 190.67C66.0188 189.761 64.9859 189.202 63.9417 188.747C62.1442 187.963 59.0492 186.95 59.5718 184.399C60.2053 181.308 63.975 181.015 66.5023 180.911C67.1926 180.883 67.1962 179.808 66.5023 179.836L66.5023 179.836Z" fill="white"/>
<path d="M62.1581 178.374L62.0549 201.962C62.0519 202.654 63.1283 202.654 63.1313 201.962L63.2346 178.374C63.2376 177.683 62.1612 177.682 62.1581 178.374Z" fill="white"/>
<path d="M95.3406 142.557H28.3639C27.3088 142.557 26.4503 141.701 26.4503 140.647C26.4503 139.594 27.3088 138.737 28.3639 138.737H95.3406C96.3958 138.737 97.2542 139.594 97.2542 140.647C97.2542 141.701 96.3958 142.557 95.3406 142.557Z" fill="#E6E6E6"/>
<path d="M53.1309 120.112H28.2538C27.1987 120.112 26.3402 119.255 26.3402 118.202C26.3402 117.149 27.1987 116.292 28.2538 116.292H53.1309C54.186 116.292 55.0445 117.149 55.0445 118.202C55.0445 119.255 54.186 120.112 53.1309 120.112Z" fill="#E6E6E6"/>
<path d="M35.0093 100.999L31.072 99.1371C32.6869 101.387 34.0784 104.9 34.8234 107.696C36.0847 105.092 38.118 101.905 40.1307 100.002L35.9694 101.07C38.5336 88.526 48.1779 79.5204 59.222 79.5204V78.5652C47.6862 78.5652 37.6273 87.948 35.0093 100.999Z" fill="#3F3D56"/>
<path d="M209.104 0H72.2992C67.2808 0 63.2 4.07352 63.2 9.08307V102.665C63.2 107.674 67.2808 111.748 72.2992 111.748H209.104C214.122 111.748 218.203 107.674 218.203 102.665V9.08307C218.203 4.07352 214.122 0 209.104 0Z" fill="white"/>
<path d="M140.072 55.6426C148.527 55.6426 155.381 48.8007 155.381 40.3608C155.381 31.921 148.527 25.0791 140.072 25.0791C131.618 25.0791 124.764 31.921 124.764 40.3608C124.764 48.8007 131.618 55.6426 140.072 55.6426Z" fill="#4D5DFA"/>
<path d="M142.977 33.5415C141.082 33.6194 138.948 33.7393 137.515 35.1471C136.327 36.3132 135.912 38.1285 137.003 39.5014C138.152 40.947 140.063 41.2213 141.562 42.1451C142.494 42.7192 143.112 43.589 143.132 44.7068C143.151 45.7533 142.667 46.731 141.858 47.3869C139.874 48.9961 137.167 48.33 135.29 46.9226C134.921 46.6457 134.563 47.2674 134.928 47.5412C136.483 48.7068 138.485 49.3837 140.419 48.8822C142.2 48.4206 143.635 47.0221 143.828 45.1534C144.031 43.1839 142.736 41.8428 141.056 41.0734C139.52 40.3702 136.827 39.6209 137.081 37.4361C137.404 34.6584 140.81 34.3469 142.977 34.2578C143.437 34.2389 143.439 33.5224 142.977 33.5414V33.5415Z" fill="white"/>
<path d="M139.683 32.2425L139.597 51.8977C139.595 52.3587 140.313 52.3593 140.315 51.8977L140.401 32.2425C140.403 31.7815 139.685 31.7809 139.683 32.2425Z" fill="white"/>
<path d="M209.104 0H72.2992C67.2808 0 63.2 4.07352 63.2 9.08307V102.665C63.2 107.674 67.2808 111.748 72.2992 111.748H209.104C214.122 111.748 218.203 107.674 218.203 102.665V9.08307C218.203 4.07352 214.122 0 209.104 0ZM217.246 102.665C217.246 107.149 213.596 110.793 209.104 110.793H72.2992C67.807 110.793 64.1568 107.149 64.1568 102.665V9.08307C64.1568 4.59885 67.807 0.955109 72.2992 0.955109H209.104C213.596 0.955109 217.246 4.59885 217.246 9.08307V102.665Z" fill="#3F3D56"/>
<path d="M192.039 64.2386H89.3639C85.0918 64.2386 81.6185 67.7056 81.6185 71.9702V78.952C81.6185 83.2166 85.0918 86.6837 89.3639 86.6837H192.039C196.311 86.6837 199.784 83.2166 199.784 78.952V71.9702C199.784 67.7056 196.311 64.2386 192.039 64.2386Z" fill="#4D5DFA"/>
<path d="M218.621 113.891L218.37 133.394L213.509 150.779L209.623 149.332L211.348 133.397L211.121 111.832L218.621 113.891Z" fill="#FFB6B6"/>
<path d="M213.492 153.583C213.948 151.083 213.112 148.837 211.625 148.567C210.138 148.297 208.563 150.104 208.107 152.604C207.651 155.104 208.487 157.35 209.974 157.62C211.461 157.89 213.036 156.083 213.492 153.583Z" fill="#FFB6B6"/>
<path d="M212.722 90.6691C212.722 90.6691 221.049 90.7836 221.042 95.1995C221.038 97.6927 220.502 120.33 219.009 134.082C217.858 144.687 215.66 147.453 215.66 147.453L210.398 135.514L212.722 90.6691Z" fill="#E6E6E6"/>
<path d="M212.508 130.515H184.383C186.741 125.264 188.19 120.263 185.924 116.286L212.508 114.747C211.179 120.117 211.017 125.387 212.508 130.515Z" fill="#FFB6B6"/>
<path d="M209.04 83.9808L197.868 83.2117L193.244 88.9804L190.901 89.4057C187.387 90.0434 184.886 93.1731 185.043 96.7342L185.954 117.418L212.659 119.362L219.057 92.4271L211.352 89.3649L209.04 83.9808V83.9808Z" fill="#E6E6E6"/>
<path d="M140.905 90.2204C141.698 90.9322 142.263 91.7638 142.562 92.5703L150.543 98.8753L147.426 102.578L139.666 95.7837C138.831 95.572 137.943 95.0979 137.151 94.3861C135.34 92.7599 134.712 90.5091 135.749 89.3588C136.786 88.2085 139.094 88.5942 140.905 90.2204L140.905 90.2204Z" fill="#FFB6B6"/>
<path d="M197.326 95.5284V95.5284L166.749 116.139L144.83 100.913L148.12 94.9627L165.372 104.971L181.281 92.7766C186.946 87.4647 194.047 88.4943 197.326 95.5284H197.326Z" fill="#E6E6E6"/>
<path d="M202.791 81.4843C207.369 81.4843 211.08 77.7799 211.08 73.2102C211.08 68.6406 207.369 64.9362 202.791 64.9362C198.214 64.9362 194.503 68.6406 194.503 73.2102C194.503 77.7799 198.214 81.4843 202.791 81.4843Z" fill="#FFB6B6"/>
<path d="M214.058 71.1774V72.782L204.71 70.1555L197.701 71.6215C197.62 70.5566 197.304 69.5107 196.778 68.5843C197.144 70.0702 197.185 71.2198 196.797 71.8126L195.854 72.0083C195.701 71.5929 195.405 71.23 195.017 71.0103C194.979 70.9864 194.931 70.9673 194.888 70.9816C194.821 71.0055 194.816 71.0914 194.816 71.1583C194.826 71.5117 194.836 71.8651 194.85 72.2185L192.142 72.782V71.1774C189.544 65.3427 196.391 60.2938 203.102 60.2414C206.131 60.2178 208.867 61.464 210.853 63.441C212.833 65.4229 214.058 68.1545 214.058 71.1774Z" fill="#2F2E41"/>
<path d="M219.317 89.9923L218.611 89.9339C218.661 89.7035 218.711 89.476 218.757 89.2456C219.148 87.3117 218.287 84.8498 218.224 82.9918C217.892 84.9548 218.46 87.37 217.872 89.2339C217.806 89.441 215.252 90.7775 215.182 90.9816C212.355 89.9496 209.411 86.6521 206.077 88.5781C204.106 89.7172 201.856 89.2179 199.617 88.6964C199.063 88.5673 198.986 85.8359 198.438 85.7285C197.456 85.5363 196.013 88.0193 195.089 88.1163L198.916 73.3121C198.916 65.2586 198.169 56.8091 208.389 59.6568C210.959 60.373 213.503 60.9344 215.4 63.052C217.297 65.1726 218.648 68.1361 219.126 71.511C219.415 73.5469 221.216 80.4599 219.317 89.9923Z" fill="#2F2E41"/>
<path d="M212.717 238.863L208.155 238.971L205.612 218.51L212.344 218.351L212.717 238.863Z" fill="#FFB7B7"/>
<path d="M197.064 248.365C197.064 249.134 197.611 249.758 198.286 249.758H207.342C207.342 249.758 208.233 246.182 211.866 244.643L212.117 249.758H216.789L216.223 241.533C216.223 241.533 217.472 237.133 214.877 234.884C212.282 232.635 214.384 232.948 214.384 232.948L213.363 227.858L206.304 228.687L206.252 236.677L202.826 244.608L197.801 247.086C197.354 247.307 197.064 247.809 197.064 248.365H197.064H197.064Z" fill="#2F2E41"/>
<path d="M198.837 235.529L194.451 236.789L186.79 217.642L193.262 215.783L198.837 235.529Z" fill="#FFB7B7"/>
<path d="M186.112 248.684C186.307 249.429 186.995 249.893 187.647 249.722L196.407 247.429C196.407 247.429 196.36 243.744 199.483 241.335L201.026 246.219L205.545 245.036L202.906 237.224C202.906 237.224 202.997 232.651 199.915 231.133C196.832 229.615 198.945 229.385 198.945 229.385L196.664 224.72L190.046 227.31L192.027 235.052L190.73 243.592L186.499 247.261C186.123 247.588 185.97 248.147 186.112 248.684L186.112 248.685L186.112 248.684Z" fill="#2F2E41"/>
<path d="M209.92 129.306L212.79 130.261C217.278 138.535 219.181 149.523 218.929 162.772L213.83 222.281H205.488L199.383 155.986L188.619 180.869L196.495 222.281L188.619 223.083L172.757 180.021L183.804 129.972L209.92 129.306Z" fill="#2F2E41"/>
<path d="M124.929 9.24066H111.505C110.83 9.24066 110.28 9.78986 110.28 10.4632C110.28 11.1413 110.83 11.6905 111.505 11.6905H124.929C125.603 11.6905 126.153 11.1413 126.153 10.4632C126.153 9.78986 125.603 9.24066 124.929 9.24066Z" fill="#E6E6E6"/>
<path d="M147.414 9.24066H133.989C133.315 9.24066 132.765 9.78986 132.765 10.4632C132.765 11.1413 133.315 11.6905 133.989 11.6905H147.414C148.088 11.6905 148.638 11.1413 148.638 10.4632C148.638 9.78986 148.088 9.24066 147.414 9.24066Z" fill="#E6E6E6"/>
<path d="M169.899 9.24066H156.475C155.8 9.24066 155.25 9.78986 155.25 10.4632C155.25 11.1413 155.8 11.6905 156.475 11.6905H169.899C170.573 11.6905 171.123 11.1413 171.123 10.4632C171.123 9.78986 170.573 9.24066 169.899 9.24066Z" fill="#E6E6E6"/>
</g>
<defs>
<clipPath id="clip0_932_12967">
<rect width="261" height="250" fill="white"/>
</clipPath>
</defs>
</svg>
